<svg width="316" height="413" viewBox="0 0 316 413" fill="none" xmlns="http://www.w3.org/2000/svg">
<path d="M257.923 175.297C257.923 175.297 234.153 220.351 209.983 251.451C200.371 263.82 190.708 273.99 182.443 278.247C174.354 282.386 167.537 288.842 161.869 295.985C147.213 314.479 140.447 337.633 140.447 337.633L78.6751 249.133C78.6751 249.133 80.7724 162.62 88.188 148.146C98.9993 127.05 104.218 84.4556 108.362 75.9651C111.434 69.6741 120.247 37.1548 121.071 34.7661C121.446 33.7255 124.367 32.1646 128.162 32.1646C131.208 32.1646 136.402 34.9553 137.7 40.7023C144.317 69.6977 136.352 88.8309 136.452 89.6823C138.774 111.985 131.783 128.516 136.676 132.915C136.851 133.081 137.201 133.01 137.675 132.702C146.189 127.523 199.047 54.5378 205.539 52.9769C212.48 51.3214 257.923 175.297 257.923 175.297Z" fill="#EFA26F"/>
<path d="M159.048 320.108C159.048 320.108 158.199 359.439 155.802 412.416H0C35.6048 340.495 66.5655 279.95 66.5655 279.95C66.5655 279.95 155.278 282.528 159.048 320.108Z" fill="#F99746"/>
<path d="M311.929 22.8226L292.803 49.382L274.027 75.4447C272.879 76.7455 271.555 77.2185 270.132 77.0766C265.638 76.6745 260.045 70.5254 255.725 67.1198L255.276 66.7887C249.558 62.2951 248.734 54.183 253.478 48.7671L282.142 15.8931L290.656 6.1491C295.4 0.733165 303.964 -0.0472976 309.682 4.44627L310.131 4.77738C315.849 9.27095 316.648 17.383 311.929 22.8226Z" fill="#FFB27D"/>
<path d="M292.803 49.3821L274.027 75.445C272.878 76.7457 271.555 77.2187 270.132 77.0768L282.142 15.8931C282.167 16.2478 284.214 43.6824 292.803 49.3821Z" fill="#EFA26F"/>
<path d="M209.983 251.451C200.371 263.82 190.708 273.99 182.443 278.247C174.354 282.386 167.537 288.842 161.869 295.985C155.353 293.099 147.937 289.741 140.696 286.406C131.858 282.338 131.533 270.466 140.172 266.067C140.247 266.02 140.347 265.972 140.422 265.925C148.536 261.526 156.826 246.011 156.826 246.011L209.983 251.451Z" fill="#D38254"/>
<path d="M120.697 36.1143L115.703 55.2475C115.703 55.2475 120.073 56.9503 122.894 55.6259C125.69 54.3251 127.963 37.1549 120.697 36.1143Z" fill="#FFC197"/>
<path d="M264.864 260.509H157.251C146.664 260.509 138 252.303 138 242.275V18.2345C138 8.20669 146.664 0 157.251 0H264.864C275.451 0 284.115 8.20669 284.115 18.2345V242.275C284.09 252.303 275.426 260.509 264.864 260.509Z" fill="#2B478B"/>
<path d="M276.849 19.9609V238.822C276.849 246.248 270.482 252.326 262.692 252.326H159.398C151.608 252.326 145.266 246.248 145.266 238.822V19.9609C145.266 12.5347 151.633 6.45654 159.398 6.45654H262.717C270.482 6.45654 276.849 12.5347 276.849 19.9609Z" fill="#F2F2F2"/>
<path d="M262.717 6.45654L160.671 252.302H159.398C151.608 252.302 145.266 246.224 145.266 238.798V19.9609C145.266 12.5347 151.633 6.45654 159.398 6.45654H262.717Z" fill="white"/>
<path d="M232.63 14.5923H189.435C185.914 14.5923 183.043 11.8725 183.043 8.53782V7.59181C183.043 4.25713 185.914 1.53735 189.435 1.53735H232.63C236.15 1.53735 239.022 4.25713 239.022 7.59181V8.53782C239.047 11.8725 236.15 14.5923 232.63 14.5923Z" fill="#2B478B"/>
<path d="M183.191 175.781C183.293 175.733 183.532 175.708 183.908 175.708H190.466C190.842 175.708 191.062 175.72 191.127 175.745C191.304 175.807 191.379 175.978 191.353 176.259C191.353 176.372 191.277 176.474 191.127 176.563C191.062 176.587 190.849 176.599 190.486 176.599H189.293C188.979 176.599 188.821 176.75 188.821 177.053V178.802C188.821 179.118 188.973 179.276 189.277 179.276C189.742 179.238 190.1 179.276 190.353 179.389C190.804 179.654 191.044 179.97 191.07 180.337V191.085C191.044 191.679 190.671 192.064 189.954 192.239H184.553C183.948 192.201 183.564 191.848 183.4 191.178V180.337C183.513 179.73 183.879 179.376 184.497 179.276H185.214C185.515 179.276 185.665 179.124 185.665 178.818V177.053C185.665 176.75 185.515 176.599 185.214 176.599H183.928C183.549 176.599 183.297 176.568 183.171 176.506C183.047 176.403 182.991 176.282 183.001 176.142C182.991 175.99 183.054 175.87 183.191 175.781ZM192.582 176.275C192.493 176.035 192.613 175.846 192.941 175.708H197.967C198.609 175.733 199.038 176.169 199.253 177.016V181.763C199.175 182.535 198.733 182.99 197.926 183.127H194.13C193.539 183.243 193.281 183.624 193.356 184.269V190.174C193.38 190.387 193.424 190.576 193.489 190.741C193.602 190.995 193.829 191.166 194.17 191.255C194.686 191.369 195.183 191.437 195.661 191.462H197.096C197.851 191.413 198.481 191.224 198.987 190.895C199.048 190.857 199.093 190.806 199.12 190.741C199.246 190.349 199.321 189.805 199.345 189.109V187.971C199.308 187.806 199.339 187.648 199.438 187.497C199.615 187.319 199.824 187.3 200.063 187.44C200.138 187.489 200.189 187.596 200.216 187.76V189.716L200.176 190.571C200.063 191.418 199.584 191.995 198.741 192.3C198.426 192.4 198.023 192.462 197.531 192.486H196.23C195.346 192.448 194.564 192.366 193.884 192.239C193.268 192.037 192.853 191.652 192.638 191.085C192.536 190.793 192.48 190.528 192.469 190.287V183.565C192.544 182.844 192.978 182.408 193.771 182.257H197.531C198.01 182.192 198.287 181.933 198.362 181.479V177.32C198.362 176.953 198.135 176.713 197.681 176.599H193.509C193.13 176.599 192.908 176.587 192.844 176.563C192.669 176.484 192.582 176.389 192.582 176.275ZM187.935 178.818V177.073C187.935 176.757 187.79 176.599 187.499 176.599H187.028C186.713 176.599 186.556 176.75 186.556 177.053V178.802C186.556 179.118 186.707 179.276 187.008 179.276H187.479C187.783 179.276 187.935 179.124 187.935 178.818ZM185.214 180.167C184.698 180.078 184.382 180.294 184.267 180.815V187.627C184.267 187.945 184.419 188.104 184.722 188.104H189.748C190.049 188.104 190.2 187.952 190.2 187.647V186.699C190.2 186.394 190.049 186.242 189.748 186.242C189.206 186.306 188.77 186.243 188.443 186.051C188.142 185.8 187.972 185.484 187.935 185.104V180.625C187.935 180.32 187.783 180.167 187.479 180.167H187.028C186.713 180.167 186.556 180.32 186.556 180.625V182.216C186.478 183.585 186.156 184.851 185.589 186.015C185.527 186.255 185.32 186.464 184.968 186.643C184.866 186.718 184.74 186.705 184.589 186.602C184.326 186.337 184.345 186.085 184.646 185.845C185.025 185.413 185.283 184.907 185.42 184.326C185.573 183.705 185.655 183.11 185.665 182.54V180.625C185.665 180.32 185.515 180.167 185.214 180.167ZM190.2 184.893V180.831C190.138 180.299 189.836 180.078 189.293 180.167C188.979 180.167 188.821 180.32 188.821 180.625V184.363C188.821 184.668 188.847 184.884 188.898 185.01C189.137 185.313 189.421 185.426 189.748 185.351C190.049 185.351 190.2 185.198 190.2 184.893ZM190.2 190.684V189.449C190.2 189.133 190.055 188.975 189.765 188.975H184.742C184.425 188.975 184.267 189.128 184.267 189.433V190.741C184.382 191.121 184.603 191.331 184.928 191.369H189.519C189.911 191.317 190.138 191.089 190.2 190.684ZM202.537 175.781C202.64 175.733 202.879 175.708 203.255 175.708H209.813C210.189 175.708 210.409 175.72 210.474 175.745C210.651 175.807 210.726 175.978 210.699 176.259C210.699 176.372 210.624 176.474 210.474 176.563C210.409 176.587 210.196 176.599 209.833 176.599H208.64C208.325 176.599 208.168 176.75 208.168 177.053V178.802C208.168 179.118 208.32 179.276 208.624 179.276C209.088 179.238 209.447 179.276 209.7 179.389C210.151 179.654 210.39 179.97 210.417 180.337V191.085C210.39 191.679 210.018 192.064 209.301 192.239H203.9C203.295 192.201 202.911 191.848 202.747 191.178V180.337C202.86 179.73 203.225 179.376 203.843 179.276H204.561C204.862 179.276 205.012 179.124 205.012 178.818V177.053C205.012 176.75 204.862 176.599 204.561 176.599H203.275C202.896 176.599 202.644 176.568 202.517 176.506C202.394 176.403 202.337 176.282 202.348 176.142C202.337 175.99 202.4 175.87 202.537 175.781ZM211.929 176.275C211.84 176.035 211.96 175.846 212.287 175.708H217.313C217.956 175.733 218.384 176.169 218.599 177.016V181.763C218.521 182.535 218.079 182.99 217.273 183.127H213.476C212.885 183.243 212.627 183.624 212.703 184.269V190.174C212.727 190.387 212.771 190.576 212.836 190.741C212.948 190.995 213.175 191.166 213.517 191.255C214.033 191.369 214.53 191.437 215.008 191.462H216.443C217.198 191.413 217.828 191.224 218.333 190.895C218.395 190.857 218.439 190.806 218.466 190.741C218.593 190.349 218.668 189.805 218.692 189.109V187.971C218.654 187.806 218.685 187.648 218.785 187.497C218.962 187.319 219.17 187.3 219.409 187.44C219.485 187.489 219.536 187.596 219.563 187.76V189.716L219.522 190.571C219.409 191.418 218.931 191.995 218.087 192.3C217.773 192.4 217.37 192.462 216.878 192.486H215.576C214.692 192.448 213.91 192.366 213.231 192.239C212.615 192.037 212.2 191.652 211.985 191.085C211.883 190.793 211.827 190.528 211.816 190.287V183.565C211.891 182.844 212.325 182.408 213.118 182.257H216.878C217.356 182.192 217.633 181.933 217.708 181.479V177.32C217.708 176.953 217.481 176.713 217.027 176.599H212.856C212.477 176.599 212.255 176.587 212.191 176.563C212.016 176.484 211.929 176.389 211.929 176.275ZM207.281 178.818V177.073C207.281 176.757 207.136 176.599 206.846 176.599H206.375C206.06 176.599 205.903 176.75 205.903 177.053V178.802C205.903 179.118 206.053 179.276 206.354 179.276H206.826C207.13 179.276 207.281 179.124 207.281 178.818ZM204.561 180.167C204.045 180.078 203.729 180.294 203.614 180.815V187.627C203.614 187.945 203.765 188.104 204.069 188.104H209.095C209.396 188.104 209.547 187.952 209.547 187.647V186.699C209.547 186.394 209.396 186.242 209.095 186.242C208.552 186.306 208.117 186.243 207.789 186.051C207.488 185.8 207.319 185.484 207.281 185.104V180.625C207.281 180.32 207.13 180.167 206.826 180.167H206.375C206.06 180.167 205.903 180.32 205.903 180.625V182.216C205.825 183.585 205.503 184.851 204.936 186.015C204.874 186.255 204.667 186.464 204.315 186.643C204.213 186.718 204.087 186.705 203.936 186.602C203.673 186.337 203.692 186.085 203.992 185.845C204.371 185.413 204.629 184.907 204.766 184.326C204.92 183.705 205.001 183.11 205.012 182.54V180.625C205.012 180.32 204.862 180.167 204.561 180.167ZM209.547 184.893V180.831C209.485 180.299 209.182 180.078 208.64 180.167C208.325 180.167 208.168 180.32 208.168 180.625V184.363C208.168 184.668 208.194 184.884 208.245 185.01C208.484 185.313 208.767 185.426 209.095 185.351C209.396 185.351 209.547 185.198 209.547 184.893ZM209.547 190.684V189.449C209.547 189.133 209.401 188.975 209.111 188.975H204.089C203.772 188.975 203.614 189.128 203.614 189.433V190.741C203.729 191.121 203.949 191.331 204.275 191.369H208.865C209.258 191.317 209.485 191.089 209.547 190.684ZM231.537 175.081C231.677 174.854 231.911 174.847 232.239 175.06C232.327 175.301 232.346 175.724 232.295 176.332C232.282 176.637 232.427 176.79 232.73 176.79H237.68C237.957 176.803 238.208 176.872 238.434 176.996C238.751 177.236 238.903 177.566 238.889 177.984C238.964 179.429 238.561 181.086 237.68 182.957C237.68 183.071 237.586 183.172 237.398 183.261C237.282 183.312 237.156 183.281 237.019 183.168C236.906 183.065 236.862 182.913 236.886 182.71C236.91 182.521 236.999 182.269 237.152 181.953C237.63 180.876 237.926 179.863 238.039 178.916C238.09 178.497 238.071 178.161 237.982 177.907C237.945 177.832 237.894 177.775 237.829 177.737C237.73 177.686 237.528 177.66 237.224 177.66H235.165C234.85 177.66 234.693 177.813 234.693 178.118C234.707 178.461 234.695 178.758 234.657 179.009V180.434C234.746 182.662 235.123 184.724 235.79 186.622C236.483 188.482 237.422 190.128 238.607 191.559C238.846 191.81 238.971 191.999 238.982 192.126C239.033 192.304 238.976 192.45 238.813 192.563C238.598 192.714 238.371 192.651 238.131 192.373C236.154 189.854 234.888 187.216 234.335 184.46C234.246 184.141 234.164 184.147 234.089 184.476C233.661 186.655 232.956 188.648 231.973 190.457C231.57 191.216 231.136 191.81 230.671 192.239C230.268 192.506 230.041 192.633 229.99 192.62C229.611 192.393 229.561 192.134 229.84 191.842C230.507 191.159 231.042 190.425 231.445 189.639C232.012 188.578 232.44 187.566 232.73 186.602C233.386 184.502 233.745 182.078 233.807 179.333V178.118C233.807 177.813 233.655 177.66 233.351 177.66H232.618C232.314 177.66 232.124 177.813 232.049 178.118C231.772 179.7 231.224 181.066 230.405 182.216C230.203 182.47 229.99 182.47 229.764 182.216C229.587 181.989 229.599 181.768 229.8 181.552C230.883 179.781 231.431 177.876 231.445 175.838C231.445 175.46 231.476 175.207 231.537 175.081ZM226.04 175.004C226.306 174.915 226.621 175.041 226.987 175.384C227.742 175.978 228.497 176.56 229.252 177.13C229.693 177.435 229.913 177.694 229.913 177.907C229.827 178.301 229.601 178.422 229.236 178.268L226.588 176.085C226.451 175.934 226.294 175.903 226.116 175.992C226.041 176.03 225.853 176.201 225.552 176.506C224.606 177.429 223.592 178.239 222.509 178.936C222.168 179.138 221.896 179.233 221.695 179.219C221.544 179.144 221.457 179.049 221.433 178.936C221.344 178.72 221.407 178.542 221.622 178.401C222.753 177.832 223.975 176.927 225.286 175.688C225.625 175.307 225.876 175.079 226.04 175.004ZM226.08 177.778C226.268 177.689 226.451 177.757 226.628 177.984C226.666 178.049 226.685 178.27 226.685 178.648V179.256C226.685 179.572 226.835 179.73 227.136 179.73H228.063C228.692 179.781 229.064 180.148 229.179 180.831V186.035C229.139 186.605 228.793 186.977 228.14 187.153H224.19C223.875 187.153 223.718 187.305 223.718 187.61V190.704C223.718 191.007 223.869 191.127 224.169 191.065C225.368 190.787 226.464 190.457 227.458 190.077C227.786 189.95 227.894 189.747 227.781 189.469L227.402 188.424C227.238 188.146 227.358 187.963 227.761 187.874C227.911 187.874 228.031 187.937 228.119 188.064C228.635 189.152 229.045 190.164 229.349 191.101C229.448 191.417 229.493 191.695 229.482 191.935C229.404 192.227 229.24 192.349 228.99 192.3C228.915 192.273 228.789 192.057 228.611 191.652L228.422 191.158C228.309 190.856 228.101 190.761 227.797 190.874C226.034 191.544 224.101 192.043 221.997 192.373C221.645 192.438 221.457 192.273 221.433 191.879C221.47 191.614 221.785 191.451 222.376 191.389C222.69 191.362 222.847 191.202 222.847 190.911V180.815C222.899 180.245 223.245 179.884 223.887 179.73H225.342C225.643 179.73 225.794 179.578 225.794 179.276V178.098C225.821 177.96 225.916 177.853 226.08 177.778ZM227.422 180.625H224.246C223.993 180.635 223.817 180.787 223.718 181.078V182.617C223.718 182.933 223.869 183.091 224.169 183.091H227.837C228.138 183.091 228.289 182.94 228.289 182.637V181.078C228.278 180.914 228.209 180.793 228.083 180.718C227.943 180.656 227.723 180.625 227.422 180.625ZM228.289 185.748V184.419C228.289 184.117 228.138 183.966 227.837 183.966H224.19C223.875 183.966 223.718 184.117 223.718 184.419V185.804C223.718 186.123 223.869 186.282 224.169 186.282H227.724C228.012 186.269 228.2 186.09 228.289 185.748Z" fill="#070150"/>
<path d="M201.996 124.519C201.996 125.881 200.898 126.985 199.542 126.985C198.186 126.985 197.087 125.881 197.087 124.519C197.087 123.156 198.186 122.053 199.542 122.053C200.897 122.053 201.996 123.157 201.996 124.519ZM219.736 107.108C218.208 107.108 216.969 108.353 216.969 109.889C216.969 111.425 218.208 112.669 219.736 112.669C221.264 112.669 222.502 111.425 222.502 109.889C222.502 108.353 221.264 107.108 219.736 107.108ZM229.974 134.114V154.7H192.05V126.176C193.34 125.388 194.675 124.901 196.052 124.654C196.134 126.519 197.664 128.007 199.542 128.007C201.275 128.007 202.713 126.737 202.988 125.072C207.158 126.104 211.569 128.253 216.091 130.2C215.721 130.822 215.509 131.549 215.509 132.325C215.509 134.618 217.36 136.478 219.642 136.478C221.685 136.478 223.381 134.988 223.715 133.031C225.797 133.625 227.888 134.027 229.974 134.114ZM204.016 144.557C204.016 142.264 202.165 140.405 199.883 140.405C197.601 140.405 195.75 142.264 195.75 144.557C195.75 146.85 197.601 148.71 199.883 148.71C202.165 148.71 204.016 146.85 204.016 144.557ZM206.368 135.823C207.897 135.823 209.136 134.579 209.136 133.043C209.136 131.508 207.897 130.263 206.368 130.263C204.84 130.263 203.601 131.508 203.601 133.043C203.6 134.579 204.84 135.823 206.368 135.823ZM212.277 148.921C212.277 147.385 211.038 146.14 209.51 146.14C207.981 146.14 206.743 147.385 206.743 148.921C206.743 150.456 207.981 151.701 209.51 151.701C211.038 151.701 212.277 150.456 212.277 148.921ZM218 141.047C218 139.109 216.436 137.537 214.506 137.537C212.576 137.537 211.012 139.109 211.012 141.047C211.012 142.986 212.576 144.557 214.506 144.557C216.436 144.557 218 142.986 218 141.047ZM225.945 149.703C225.945 147.765 224.381 146.193 222.451 146.193C220.521 146.193 218.957 147.765 218.957 149.703C218.957 151.642 220.521 153.214 222.451 153.214C224.381 153.214 225.945 151.642 225.945 149.703ZM213.225 116.01C210.943 116.01 209.092 117.87 209.092 120.163C209.092 122.456 210.943 124.315 213.225 124.315C215.507 124.315 217.359 122.456 217.359 120.163C217.359 117.87 215.507 116.01 213.225 116.01ZM219.736 128.98C217.979 128.98 216.554 130.412 216.554 132.177C216.554 133.943 217.979 135.374 219.736 135.374C221.492 135.374 222.918 133.943 222.918 132.177C222.918 130.411 221.492 128.98 219.736 128.98ZM205.802 110.315C203.873 110.315 202.309 111.887 202.309 113.826C202.309 115.765 203.873 117.336 205.802 117.336C207.732 117.336 209.297 115.765 209.297 113.826C209.297 111.887 207.732 110.315 205.802 110.315Z" fill="#F39519"/>
<path d="M232.713 97.887C231.86 97.887 231.238 98.5826 231.238 99.4395V99.8277V154.381C231.238 155.121 230.729 156.301 229.992 156.301H217.872H204.153H192.032C191.295 156.301 190.786 155.121 190.786 154.381V99.8277V99.4395C190.786 98.5826 190.165 97.887 189.311 97.887C188.458 97.887 187.837 98.5826 187.837 99.4395V99.8277V163.757C187.837 167.458 191.05 171.119 194.733 171.119H204.153H217.872H227.291C230.975 171.119 234.188 167.459 234.188 163.757V99.8277V99.4395C234.188 98.5826 233.567 97.887 232.713 97.887ZM211.012 168.156C208.686 168.156 206.799 166.26 206.799 163.922C206.799 161.584 208.686 159.688 211.012 159.688C213.339 159.688 215.226 161.584 215.226 163.922C215.226 166.26 213.339 168.156 211.012 168.156Z" fill="#070150"/>
<path d="M302.391 123.1L299.545 124.117L280.369 131.023C279.92 131.189 279.47 131.331 279.021 131.425C272.679 132.986 265.912 129.794 263.54 123.857L263.266 123.148C260.719 116.786 264.115 109.596 270.831 107.184L288.708 100.751L290.007 100.278L292.853 99.2607C299.57 96.8484 307.16 100.065 309.707 106.427L309.981 107.113C312.528 113.498 309.107 120.688 302.391 123.1Z" fill="#FFB27D"/>
<path d="M286.811 123.526C283.615 124.685 277.822 126.719 274.726 127.145C273.852 127.263 272.229 126.813 270.731 125.253C269.832 124.307 268.958 122.982 268.309 121.137C268.01 120.262 267.76 119.411 267.66 118.512C267.535 117.472 267.56 116.431 267.76 115.39C267.935 114.468 268.609 113.616 269.583 113.167C269.583 113.167 269.583 113.167 269.608 113.167C272.903 111.677 277.348 109.856 281.243 108.839C283.939 108.13 286.661 109.265 287.51 111.488L287.909 112.529L289.957 117.874C290.831 120.049 289.432 122.58 286.811 123.526Z" fill="#FFD3B6"/>
<path d="M286.811 123.526C283.615 124.685 277.822 126.719 274.726 127.145C273.852 127.263 272.229 126.814 270.731 125.253C270.581 124.898 270.432 124.52 270.282 124.117C269.982 123.242 269.732 122.391 269.633 121.492C269.508 120.452 269.533 119.411 269.732 118.37C269.907 117.448 270.581 116.597 271.555 116.147C271.555 116.147 271.555 116.147 271.58 116.147C274.876 114.657 279.32 112.836 283.215 111.819C284.938 111.37 286.686 111.677 287.934 112.529L289.982 117.874C290.831 120.05 289.432 122.58 286.811 123.526Z" fill="#FFC197"/>
<path d="M293.702 148.643L278.921 152.45C274.426 153.609 269.757 151.079 268.534 146.822L268.085 145.237C266.861 140.98 269.533 136.557 274.027 135.398L288.808 131.591C293.302 130.432 297.972 132.962 299.195 137.219L299.644 138.804C300.868 143.061 298.196 147.484 293.702 148.643Z" fill="#FFB27D"/>
<path d="M285.687 147.957C282.966 148.643 278.047 149.849 275.475 149.991C274.551 150.038 272.654 149.281 271.43 146.964C271.131 146.396 270.881 145.734 270.681 144.977C270.507 144.291 270.357 143.605 270.357 142.92C270.332 142.115 270.457 141.311 270.681 140.531C270.906 139.821 271.505 139.206 272.354 138.923C272.354 138.923 272.354 138.923 272.379 138.923C275.201 137.977 278.996 136.865 282.267 136.321C284.539 135.943 286.661 136.983 287.21 138.733L287.585 139.987L288.733 143.771C289.258 145.545 287.909 147.413 285.687 147.957Z" fill="#FFD3B6"/>
<path d="M285.687 147.957C282.966 148.643 278.047 149.849 275.475 149.991C274.551 150.038 272.654 149.281 271.43 146.964C271.256 146.325 271.156 145.686 271.131 145.024C271.106 144.22 271.231 143.416 271.455 142.636C271.68 141.926 272.279 141.311 273.128 141.027C273.128 141.027 273.128 141.027 273.153 141.027C275.975 140.081 279.77 138.97 283.041 138.426C284.913 138.118 286.711 138.757 287.56 140.01L288.708 143.794C289.258 145.544 287.909 147.413 285.687 147.957Z" fill="#FFC197"/>
<path d="M51.4097 309.797C51.4097 309.797 81.846 337.42 102.37 348.086L117.9 337.657V353.053C117.9 353.053 148.461 358.162 158.099 353.053V311.05L72.2582 270.301L51.4097 309.797Z" fill="#ED7D2B"/>
<path d="M78.7001 246.011C78.7001 246.011 59.3746 273.399 40.149 302.702C40.149 302.702 80.6476 329.095 102.595 336.829L131.383 305.587L127.263 343.191C127.263 343.191 152.756 351.989 164.566 349.695C164.566 349.695 163.817 315.591 163.817 293.241C163.842 293.218 93.8059 274.629 78.7001 246.011Z" fill="#F3F8FF"/>
<path d="M83.4441 315.544C83.469 313.037 85.6413 311.026 88.2879 311.05C90.9346 311.074 93.0569 313.131 93.0319 315.638C93.0069 318.145 90.8347 320.156 88.188 320.132C85.5414 320.085 83.4191 318.051 83.4441 315.544Z" fill="#F99746"/>
<path d="M301.942 96.2572C301.842 96.3045 301.742 96.3282 301.617 96.3518L282.217 101.058C273.702 103.139 264.864 98.7642 262.617 91.338L261.468 87.5302C259.296 80.4115 263.965 72.9616 271.88 70.5493L278.272 68.9883L291.255 65.8192C299.769 63.738 308.608 68.1133 310.855 75.5395L312.004 79.3472C314.151 86.395 309.657 93.7503 301.942 96.2572Z" fill="#FFB27D"/>
<path d="M293.053 91.1249L283.64 95.1455C283.615 95.1455 283.615 95.1455 283.59 95.1692C283.215 95.2638 282.841 95.3347 282.441 95.382C282.292 95.4057 282.117 95.4293 281.967 95.4293C281.892 95.4293 281.842 95.4293 281.767 95.4293C280.719 95.4057 280.019 94.3651 280.469 93.419C281.368 91.5743 281.592 89.4458 280.993 87.3645L280.768 86.5841V86.5604L280.044 84.0298C279.47 82.0195 278.247 80.3167 276.624 79.0869C276.424 78.945 276.224 78.8031 276.024 78.6612C274.152 77.4314 274.626 74.6643 276.823 74.0967C276.848 74.0967 276.873 74.0967 276.873 74.073L287.21 72.583C289.757 71.9208 292.229 73.7892 292.928 76.2016L293.752 79.0869L295.525 85.236C296.199 87.7429 295.6 90.4627 293.053 91.1249Z" fill="#FFD3B6"/>
<path d="M293.053 91.1251L283.64 95.1457C283.615 95.1457 283.615 95.1457 283.59 95.1693C283.365 95.2166 282.666 95.3112 281.767 95.4531C280.719 95.4295 280.019 94.3889 280.469 93.4428C281.368 91.5981 281.592 89.4696 280.993 87.3883L280.769 86.6079V86.5842L280.044 84.0536C279.47 82.0433 278.247 80.3405 276.624 79.1107C276.948 78.6377 277.448 78.2829 278.097 78.1174C278.122 78.1174 278.147 78.1174 278.147 78.0937L288.484 76.6038C290.631 76.0598 292.728 77.2896 293.752 79.1344L295.525 85.2835C296.199 87.7431 295.6 90.4629 293.053 91.1251Z" fill="#FFC197"/>
<path d="M137.75 191.805C137.75 191.805 133.53 156.826 129.61 150.015C125.715 143.203 122.395 129.533 128.412 119.387C134.404 109.241 136.502 89.7061 136.502 89.7061C138.824 112.008 131.833 128.54 136.726 132.939C136.901 133.105 137.251 133.034 137.725 132.726L137.75 191.805Z" fill="#D38254"/>
</svg>
