<svg width="40" height="51" viewBox="0 0 40 51" fill="none" xmlns="http://www.w3.org/2000/svg">
<path d="M37.4547 0.179146C36.6884 -0.0511845 35.9222 0.00639806 35.0969 0.00639806C30.0866 0.00639806 25.0762 0.00639806 20.0659 0.00639806C14.7019 0.00639806 9.27891 0.00639806 3.91489 0.00639806C2.14653 0.00639806 0.849739 0.754971 0.260287 2.3097C-0.388111 3.97959 0.201342 5.41916 1.73392 6.28289C2.97177 6.9163 2.91282 7.83762 3.03071 8.93169C4.32751 22.2333 5.68325 35.5924 6.98005 48.9515C7.09794 50.3335 7.51055 50.679 8.86629 50.679C16.2345 50.6214 23.6026 50.6214 30.9708 50.679C32.3854 50.679 32.916 50.3911 33.0928 48.8364C34.3306 35.7651 35.7453 22.6939 36.9832 9.62268C37.16 7.8952 37.6905 6.68597 38.9873 5.47674C40.8736 3.69168 39.9894 0.927718 37.4547 0.179146ZM34.6843 10.4288C34.6254 10.9471 34.6254 11.4077 34.5664 11.7532L32.7981 27.7036C32.3265 32.5405 31.796 37.3199 31.3834 42.0992C31.3834 42.2144 31.3834 42.3296 31.3244 42.4447L30.8529 47.2817C30.7939 48.0878 30.3224 48.4333 29.3203 48.4333C23.131 48.3757 16.9418 48.3757 10.7525 48.4333C9.75047 48.4333 9.27891 48.0878 9.21996 47.3392V47.2817L8.7484 42.4447C8.7484 42.3296 8.68946 42.2144 8.68946 42.0992C7.98211 34.7862 7.21583 27.4157 6.50848 20.0451L5.56536 11.0047C5.50641 10.4864 5.44747 10.0258 5.44747 9.62268C5.27063 6.9163 6.03692 6.9163 10.3399 6.9163C13.5819 6.9163 16.8239 6.9163 20.0659 6.9163C24.3689 6.9163 28.7308 6.97388 33.0338 6.9163C34.3896 6.9163 34.9201 7.08905 34.8022 8.64378C34.7433 9.33477 34.7433 9.91059 34.6843 10.4288ZM35.3917 4.613C34.979 4.613 34.6254 4.613 34.2127 4.613C24.7815 4.613 15.3503 4.613 5.91903 4.613C5.44747 4.613 4.97591 4.613 4.50434 4.613C3.62017 4.613 2.50021 4.67058 2.44126 3.51893C2.44126 2.13695 3.67911 2.3097 4.62224 2.3097C9.80942 2.3097 15.0555 2.3097 20.2427 2.3097C24.8405 2.3097 29.4971 2.3097 34.0949 2.3097C34.5664 2.3097 35.0969 2.3097 35.5685 2.3097C36.4527 2.3097 37.5726 2.25212 37.6316 3.40377C37.6316 4.78575 36.3937 4.613 35.3917 4.613Z" fill="#070150"/>
<path d="M34.6847 10.4285C34.6258 10.9468 34.6258 11.4075 34.5668 11.7529L32.7985 27.7033C32.3269 32.5402 31.7964 37.3196 31.3838 42.0989C31.3838 42.2141 31.3838 42.3293 31.3248 42.4444L30.8533 47.2814C30.7943 48.0875 30.3228 48.433 29.3207 48.433C23.1314 48.3754 16.9422 48.3754 10.7529 48.433C9.75087 48.433 9.27931 48.0875 9.22036 47.3389V47.2814L8.7488 42.4444C8.7488 42.3293 8.68985 42.2141 8.68985 42.0989C7.98251 34.786 7.21622 27.4154 6.50888 20.0448L5.56576 11.0044C5.50681 10.4861 5.44787 10.0255 5.44787 9.62239C5.27103 6.91602 6.03732 6.91602 10.3403 6.91602H20.0663C24.3693 6.91602 28.7312 6.9736 33.0342 6.91602C34.39 6.91602 34.9205 7.08876 34.8026 8.64349C34.7437 9.33448 34.7437 9.91031 34.6847 10.4285Z" fill="#AFC8E9"/>
</svg>
