<svg width="136" height="50" viewBox="0 0 136 50" fill="none" xmlns="http://www.w3.org/2000/svg">
<path d="M46.2831 12.4685C46.4464 12.3924 46.8291 12.3544 47.431 12.3544H57.9235C58.5254 12.3544 58.878 12.3734 58.9812 12.4114C59.2649 12.5086 59.3853 12.777 59.3423 13.2165C59.3423 13.394 59.2219 13.5525 58.9812 13.692C58.878 13.73 58.5362 13.749 57.9558 13.749H56.0469C55.5438 13.749 55.2923 13.9857 55.2923 14.459V17.1975C55.2923 17.692 55.5352 17.9392 56.0211 17.9392C56.7648 17.88 57.3388 17.9392 57.7429 18.1167C58.4652 18.5309 58.8479 19.0253 58.8909 19.6001V36.4242C58.8479 37.354 58.2524 37.9562 57.1045 38.2309H48.4628C47.4955 38.1717 46.8807 37.6181 46.6184 36.57V19.6001C46.799 18.6492 47.3837 18.0956 48.3725 17.9392H49.5205C50.002 17.9392 50.2428 17.7004 50.2428 17.2229V14.459C50.2428 13.9857 50.002 13.749 49.5205 13.749H47.4632C46.857 13.749 46.4529 13.7004 46.2508 13.6032C46.0531 13.4426 45.9628 13.2524 45.98 13.0327C45.9628 12.796 46.0638 12.608 46.2831 12.4685ZM61.3092 13.2419C61.1674 12.8658 61.3587 12.5699 61.8832 12.3544H69.9251C70.9527 12.3924 71.6384 13.0749 71.9823 14.4019V21.8315C71.8577 23.0401 71.1504 23.7522 69.8606 23.9678H63.7857C62.8398 24.1495 62.4271 24.7454 62.5475 25.7554V34.9979C62.5861 35.3318 62.6571 35.6276 62.7603 35.8854C62.9408 36.2827 63.3041 36.551 63.8502 36.6905C64.6756 36.868 65.471 36.9757 66.2363 37.0138H68.5321C69.7402 36.9377 70.7484 36.6419 71.5567 36.1263C71.6556 36.0671 71.7265 35.9868 71.7695 35.8854C71.9716 35.2726 72.092 34.421 72.1307 33.3307V31.5494C72.0705 31.2916 72.1199 31.0444 72.279 30.8077C72.5628 30.5288 72.896 30.4992 73.2786 30.719C73.399 30.795 73.4807 30.962 73.5237 31.2198V34.2816L73.4592 35.6192C73.2786 36.9462 72.5133 37.8484 71.1633 38.326C70.6603 38.4823 70.0154 38.5795 69.2286 38.6176H67.1456C65.7311 38.5584 64.48 38.4295 63.3923 38.2309C62.4077 37.9139 61.7435 37.3117 61.3995 36.4242C61.2362 35.9678 61.1459 35.5515 61.1287 35.1754V24.6524C61.2491 23.524 61.9434 22.8415 63.2117 22.6048H69.2286C69.9939 22.5034 70.4367 22.0977 70.5571 21.3877V14.8774C70.5571 14.3026 70.1938 13.9265 69.4672 13.749H62.7925C62.1863 13.749 61.8316 13.73 61.7284 13.692C61.449 13.5694 61.3092 13.4194 61.3092 13.2419ZM53.8735 17.2229V14.4907C53.8735 13.9962 53.6414 13.749 53.1771 13.749H52.4225C51.9195 13.749 51.668 13.9857 51.668 14.459V17.1975C51.668 17.692 51.9088 17.9392 52.3903 17.9392H53.1448C53.6306 17.9392 53.8735 17.7004 53.8735 17.2229ZM49.5205 19.3338C48.695 19.1944 48.1898 19.5325 48.005 20.3481V31.0106C48.005 31.5093 48.2479 31.7586 48.7337 31.7586H56.7756C57.2571 31.7586 57.4979 31.5198 57.4979 31.0423V29.5589C57.4979 29.0814 57.2571 28.8426 56.7756 28.8426C55.9071 28.944 55.2106 28.8447 54.6861 28.5446C54.2046 28.1516 53.9337 27.6572 53.8735 27.0613V20.0501C53.8735 19.5726 53.6306 19.3338 53.1448 19.3338H52.4225C51.9195 19.3338 51.668 19.5726 51.668 20.0501V22.5414C51.5433 24.6841 51.0274 26.6661 50.1202 28.4876C50.0213 28.8637 49.6903 29.1912 49.1271 29.4702C48.9637 29.5885 48.7616 29.5674 48.5209 29.4068C48.0995 28.9926 48.1296 28.5975 48.6112 28.2213C49.2174 27.5452 49.6301 26.7528 49.8494 25.8442C50.0944 24.8721 50.2256 23.9403 50.2428 23.0486V20.0501C50.2428 19.5726 50.002 19.3338 49.5205 19.3338ZM57.4979 26.7316V20.3734C57.399 19.5409 56.9153 19.1944 56.0469 19.3338C55.5438 19.3338 55.2923 19.5726 55.2923 20.0501V25.9012C55.2923 26.3788 55.3332 26.7168 55.4149 26.9155C55.7975 27.3888 56.2511 27.5663 56.7756 27.448C57.2571 27.448 57.4979 27.2092 57.4979 26.7316ZM57.4979 35.7967V33.8632C57.4979 33.3687 57.2657 33.1215 56.8014 33.1215H48.7659C48.2586 33.1215 48.005 33.3603 48.005 33.8378V35.8854C48.1898 36.4813 48.5424 36.8088 49.0626 36.868H56.408C57.0357 36.7877 57.399 36.4306 57.4979 35.7967ZM77.2383 12.4685C77.4017 12.3924 77.7843 12.3544 78.3862 12.3544H88.8787C89.4806 12.3544 89.8332 12.3734 89.9364 12.4114C90.2201 12.5086 90.3405 12.777 90.2975 13.2165C90.2975 13.394 90.1771 13.5525 89.9364 13.692C89.8332 13.73 89.4914 13.749 88.911 13.749H87.0021C86.499 13.749 86.2475 13.9857 86.2475 14.459V17.1975C86.2475 17.692 86.4904 17.9392 86.9763 17.9392C87.7201 17.88 88.294 17.9392 88.6982 18.1167C89.4204 18.5309 89.8031 19.0253 89.8461 19.6001V36.4242C89.8031 37.354 89.2076 37.9562 88.0597 38.2309H79.418C78.4507 38.1717 77.8359 37.6181 77.5736 36.57V19.6001C77.7542 18.6492 78.3389 18.0956 79.3278 17.9392H80.4757C80.9572 17.9392 81.198 17.7004 81.198 17.2229V14.459C81.198 13.9857 80.9572 13.749 80.4757 13.749H78.4184C77.8122 13.749 77.4081 13.7004 77.206 13.6032C77.0083 13.4426 76.918 13.2524 76.9352 13.0327C76.918 12.796 77.019 12.608 77.2383 12.4685ZM92.2645 13.2419C92.1226 12.8658 92.3139 12.5699 92.8384 12.3544H100.88C101.908 12.3924 102.594 13.0749 102.938 14.4019V21.8315C102.813 23.0401 102.106 23.7522 100.816 23.9678H94.7409C93.795 24.1495 93.3823 24.7454 93.5027 25.7554V34.9979C93.5414 35.3318 93.6123 35.6276 93.7155 35.8854C93.896 36.2827 94.2593 36.551 94.8054 36.6905C95.6308 36.868 96.4262 36.9757 97.1915 37.0138H99.4873C100.695 36.9377 101.704 36.6419 102.512 36.1263C102.611 36.0671 102.682 35.9868 102.725 35.8854C102.927 35.2726 103.047 34.421 103.086 33.3307V31.5494C103.026 31.2916 103.075 31.0444 103.234 30.8077C103.518 30.5288 103.851 30.4992 104.234 30.719C104.354 30.795 104.436 30.962 104.479 31.2198V34.2816L104.414 35.6192C104.234 36.9462 103.469 37.8484 102.119 38.326C101.616 38.4823 100.971 38.5795 100.184 38.6176H98.1008C96.6863 38.5584 95.4352 38.4295 94.3475 38.2309C93.3629 37.9139 92.6987 37.3117 92.3547 36.4242C92.1914 35.9678 92.1011 35.5515 92.0839 35.1754V24.6524C92.2043 23.524 92.8986 22.8415 94.1669 22.6048H100.184C100.949 22.5034 101.392 22.0977 101.512 21.3877V14.8774C101.512 14.3026 101.149 13.9265 100.422 13.749H93.7477C93.1415 13.749 92.7868 13.73 92.6836 13.692C92.4042 13.5694 92.2645 13.4194 92.2645 13.2419ZM84.8288 17.2229V14.4907C84.8288 13.9962 84.5966 13.749 84.1323 13.749H83.3777C82.8747 13.749 82.6232 13.9857 82.6232 14.459V17.1975C82.6232 17.692 82.864 17.9392 83.3455 17.9392H84.1C84.5858 17.9392 84.8288 17.7004 84.8288 17.2229ZM80.4757 19.3338C79.6502 19.1944 79.145 19.5325 78.9602 20.3481V31.0106C78.9602 31.5093 79.2031 31.7586 79.6889 31.7586H87.7308C88.2123 31.7586 88.4531 31.5198 88.4531 31.0423V29.5589C88.4531 29.0814 88.2123 28.8426 87.7308 28.8426C86.8623 28.944 86.1658 28.8447 85.6413 28.5446C85.1598 28.1516 84.8889 27.6572 84.8288 27.0613V20.0501C84.8288 19.5726 84.5858 19.3338 84.1 19.3338H83.3777C82.8747 19.3338 82.6232 19.5726 82.6232 20.0501V22.5414C82.4985 24.6841 81.9826 26.6661 81.0754 28.4876C80.9766 28.8637 80.6455 29.1912 80.0823 29.4702C79.9189 29.5885 79.7168 29.5674 79.4761 29.4068C79.0547 28.9926 79.0848 28.5975 79.5664 28.2213C80.1726 27.5452 80.5853 26.7528 80.8046 25.8442C81.0496 24.8721 81.1808 23.9403 81.198 23.0486V20.0501C81.198 19.5726 80.9572 19.3338 80.4757 19.3338ZM88.4531 26.7316V20.3734C88.3542 19.5409 87.8705 19.1944 87.0021 19.3338C86.499 19.3338 86.2475 19.5726 86.2475 20.0501V25.9012C86.2475 26.3788 86.2884 26.7168 86.3701 26.9155C86.7527 27.3888 87.2063 27.5663 87.7308 27.448C88.2123 27.448 88.4531 27.2092 88.4531 26.7316ZM88.4531 35.7967V33.8632C88.4531 33.3687 88.2209 33.1215 87.7566 33.1215H79.7211C79.2138 33.1215 78.9602 33.3603 78.9602 33.8378V35.8854C79.145 36.4813 79.4976 36.8088 80.0178 36.868H87.3632C87.9909 36.7877 88.3542 36.4306 88.4531 35.7967ZM123.639 11.3718C123.862 11.0168 124.236 11.0063 124.761 11.3401C124.903 11.7163 124.933 12.3798 124.851 13.3306C124.83 13.8082 125.062 14.047 125.548 14.047H133.467C133.91 14.0681 134.312 14.1759 134.673 14.3703C135.18 14.7464 135.423 15.262 135.402 15.917C135.522 18.178 134.877 20.7728 133.467 23.7015C133.467 23.879 133.317 24.0375 133.016 24.1769C132.831 24.2572 132.629 24.2086 132.409 24.0311C132.229 23.8706 132.158 23.6318 132.197 23.3148C132.235 23.019 132.377 22.6239 132.622 22.1294C133.388 20.4432 133.861 18.8584 134.041 17.375C134.123 16.72 134.093 16.1938 133.951 15.7966C133.891 15.6782 133.809 15.5895 133.706 15.5303C133.547 15.45 133.224 15.4099 132.738 15.4099H129.443C128.94 15.4099 128.688 15.6487 128.688 16.1262C128.71 16.6629 128.691 17.1278 128.63 17.5208V19.7522C128.772 23.2388 129.376 26.4675 130.443 29.4385C131.552 32.3503 133.054 34.9261 134.95 37.1659C135.333 37.5589 135.533 37.8548 135.55 38.0534C135.632 38.3323 135.542 38.5605 135.279 38.738C134.935 38.9747 134.572 38.8754 134.189 38.4401C131.025 34.4971 129 30.3682 128.114 26.0533C127.973 25.5547 127.841 25.5631 127.721 26.0787C127.037 29.4892 125.909 32.6102 124.335 35.4417C123.69 36.6292 122.996 37.5589 122.252 38.2309C121.607 38.6493 121.244 38.8479 121.162 38.8268C120.556 38.4718 120.477 38.0661 120.924 37.6097C121.99 36.5404 122.846 35.3909 123.491 34.1611C124.398 32.5003 125.083 30.9155 125.548 29.4068C126.597 26.1188 127.171 22.3259 127.27 18.028V16.1262C127.27 15.6487 127.027 15.4099 126.541 15.4099H125.367C124.881 15.4099 124.578 15.6487 124.458 16.1262C124.015 18.6027 123.138 20.7411 121.827 22.5414C121.504 22.9387 121.162 22.9387 120.801 22.5414C120.518 22.1865 120.537 21.8399 120.859 21.5018C122.592 18.7295 123.469 15.748 123.491 12.5572C123.491 11.9656 123.54 11.5705 123.639 11.3718ZM114.842 11.2514C115.268 11.1119 115.773 11.3105 116.358 11.8473C117.566 12.777 118.774 13.6877 119.982 14.5794C120.687 15.057 121.04 15.4627 121.04 15.7966C120.902 16.4136 120.541 16.6016 119.956 16.3608L115.719 12.9439C115.5 12.7073 115.249 12.6587 114.965 12.7981C114.845 12.8573 114.544 13.1257 114.062 13.6032C112.549 15.0485 110.926 16.3164 109.193 17.4067C108.647 17.7237 108.213 17.8716 107.89 17.8505C107.65 17.7321 107.51 17.5842 107.471 17.4067C107.329 17.0686 107.43 16.7897 107.774 16.5699C109.584 15.6782 111.538 14.2625 113.636 12.3227C114.178 11.7268 114.58 11.3697 114.842 11.2514ZM114.907 15.5937C115.208 15.4543 115.5 15.562 115.784 15.917C115.844 16.0184 115.874 16.365 115.874 16.9566V17.9075C115.874 18.402 116.115 18.6492 116.597 18.6492H118.08C119.086 18.7295 119.681 19.3042 119.866 20.3734V28.5193C119.802 29.411 119.247 29.9942 118.202 30.2689H111.882C111.379 30.2689 111.128 30.5077 111.128 30.9852V35.8283C111.128 36.3017 111.369 36.4897 111.85 36.3925C113.768 35.9572 115.522 35.4417 117.112 34.8458C117.637 34.6471 117.809 34.3302 117.628 33.8949L117.022 32.2594C116.76 31.8241 116.951 31.5367 117.596 31.3973C117.837 31.3973 118.028 31.4966 118.17 31.6952C118.996 33.3983 119.651 34.9831 120.137 36.4496C120.296 36.944 120.367 37.3793 120.35 37.7555C120.225 38.2119 119.963 38.4021 119.563 38.326C119.443 38.2837 119.241 37.9456 118.957 37.3117L118.654 36.5383C118.473 36.065 118.14 35.9171 117.654 36.0946C114.834 37.1427 111.74 37.9245 108.374 38.4401C107.811 38.5415 107.51 38.2837 107.471 37.6667C107.531 37.2525 108.034 36.9969 108.98 36.8997C109.483 36.8574 109.735 36.6081 109.735 36.1516V20.3481C109.816 19.4564 110.371 18.8901 111.399 18.6492H113.727C114.208 18.6492 114.449 18.4125 114.449 17.9392V16.0945C114.492 15.879 114.645 15.712 114.907 15.5937ZM117.054 20.0501H111.973C111.568 20.0671 111.287 20.3037 111.128 20.7601V23.169C111.128 23.6635 111.369 23.9107 111.85 23.9107H117.719C118.2 23.9107 118.441 23.674 118.441 23.2007V20.7601C118.424 20.5023 118.314 20.3143 118.112 20.196C117.888 20.0988 117.536 20.0501 117.054 20.0501ZM118.441 28.0692V25.99C118.441 25.5166 118.2 25.28 117.719 25.28H111.882C111.379 25.28 111.128 25.5166 111.128 25.99V28.1579C111.128 28.6566 111.369 28.906 111.85 28.906H117.538C117.998 28.8848 118.299 28.6059 118.441 28.0692Z" fill="#070150"/>
<path d="M10.3023 18.1835C10.3023 19.1134 9.53564 19.8669 8.58963 19.8669C7.64302 19.8669 6.87639 19.1134 6.87639 18.1835C6.87639 17.2527 7.64302 16.4994 8.58963 16.4994C9.53535 16.4994 10.3023 17.2533 10.3023 18.1835ZM22.6825 6.2959C21.6159 6.2959 20.7511 7.14544 20.7511 8.19415C20.7511 9.24286 21.6159 10.0924 22.6825 10.0924C23.7485 10.0924 24.6128 9.24286 24.6128 8.19415C24.6128 7.14544 23.7485 6.2959 22.6825 6.2959ZM29.8275 24.7341V38.7899H3.3614V19.3145C4.26125 18.7766 5.19315 18.4442 6.15387 18.2754C6.21092 19.549 7.27867 20.5644 8.58933 20.5644C9.79883 20.5644 10.8028 19.6975 10.9942 18.561C13.9043 19.2657 16.9832 20.7327 20.1388 22.062C19.8803 22.4864 19.7327 22.9827 19.7327 23.5131C19.7327 25.0787 21.024 26.3482 22.6166 26.3482C24.0426 26.3482 25.2259 25.3307 25.4591 23.9947C26.9121 24.4002 28.3715 24.6749 29.8275 24.7341ZM11.7117 31.8646C11.7117 30.2988 10.4202 29.0292 8.82753 29.0292C7.23486 29.0292 5.94302 30.2988 5.94302 31.8646C5.94302 33.4299 7.23486 34.6997 8.82753 34.6997C10.4202 34.6997 11.7117 33.4299 11.7117 31.8646ZM13.3535 25.9013C14.4204 25.9013 15.2849 25.0521 15.2849 24.0031C15.2849 22.955 14.4204 22.1051 13.3535 22.1051C12.2869 22.1051 11.4221 22.955 11.4221 24.0031C11.4218 25.0518 12.2869 25.9013 13.3535 25.9013ZM17.4766 34.8437C17.4766 33.795 16.6124 32.9454 15.5458 32.9454C14.4792 32.9454 13.6146 33.795 13.6146 34.8437C13.6146 35.8921 14.4792 36.7419 15.5458 36.7419C16.6124 36.7419 17.4766 35.8921 17.4766 34.8437ZM21.4707 29.4677C21.4707 28.1444 20.3794 27.0712 19.0325 27.0712C17.6854 27.0712 16.5941 28.1444 16.5941 29.4677C16.5941 30.7916 17.6854 31.8646 19.0325 31.8646C20.3794 31.8646 21.4707 30.7916 21.4707 29.4677ZM27.0156 35.3781C27.0156 34.0545 25.9237 32.9815 24.5769 32.9815C23.2301 32.9815 22.1388 34.0545 22.1388 35.3781C22.1388 36.7017 23.2301 37.7753 24.5769 37.7753C25.9237 37.7753 27.0156 36.7017 27.0156 35.3781ZM18.1383 12.3737C16.5459 12.3737 15.2544 13.6435 15.2544 15.209C15.2544 16.7749 16.5459 18.0441 18.1383 18.0441C19.7312 18.0441 21.0234 16.7749 21.0234 15.209C21.0234 13.6432 19.7312 12.3737 18.1383 12.3737ZM22.6825 21.229C21.4562 21.229 20.4614 22.2066 20.4614 23.4117C20.4614 24.6173 21.4562 25.5943 22.6825 25.5943C23.9082 25.5943 24.9027 24.6173 24.9027 23.4117C24.9027 22.2063 23.9082 21.229 22.6825 21.229ZM12.9586 8.48523C11.612 8.48523 10.5208 9.55851 10.5208 10.8821C10.5208 12.206 11.612 13.279 12.9586 13.279C14.3054 13.279 15.397 12.206 15.397 10.8821C15.397 9.55851 14.3054 8.48523 12.9586 8.48523Z" fill="#F39519"/>
<path d="M31.7389 0C31.1434 0 30.7097 0.474924 30.7097 1.05998V1.32505V38.5715C30.7097 39.0767 30.3544 39.8826 29.8401 39.8826H21.3816H11.8073H3.34877C2.83445 39.8826 2.47922 39.0767 2.47922 38.5715V1.32505V1.05998C2.47922 0.474924 2.04547 0 1.44998 0C0.854495 0 0.420746 0.474924 0.420746 1.05998V1.32505V44.9733C0.420746 47.4999 2.66301 50 5.23374 50H11.8073H21.3816H27.9551C30.5259 50 32.7681 47.5005 32.7681 44.9733V1.32505V1.05998C32.7681 0.474924 32.3344 0 31.7389 0ZM16.5944 47.9766C14.9706 47.9766 13.6538 46.6822 13.6538 45.086C13.6538 43.4898 14.9706 42.1954 16.5944 42.1954C18.218 42.1954 19.5351 43.4898 19.5351 45.086C19.5351 46.6822 18.218 47.9766 16.5944 47.9766Z" fill="#070150"/>
</svg>
