<svg width="431" height="230" viewBox="0 0 431 230" fill="none" xmlns="http://www.w3.org/2000/svg">
<g clip-path="url(#clip0)">
<path d="M8.65531 229.29C8.65531 229.29 -17.2762 153.864 20.6584 108.822C69.5899 50.7342 132.814 99.2882 156.543 97.8693C180.271 96.4504 181.607 40.7153 252.498 34.0534C307.31 28.897 397.332 28.499 378.131 119.568C363.526 188.8 444.772 152.947 428.953 229.429L8.65531 229.29Z" fill="#EBF2F9"/>
<path d="M115.296 214.478C114.619 217.87 113.7 220.517 112.59 222.611C107.559 232.041 98.5052 229.757 89.659 229.757C83.7615 229.757 81.0903 227.612 79.8762 224.082C78.8701 221.14 78.8701 217.212 78.8701 212.782C78.8701 203.023 84.8543 195.254 95.6605 195.254C106.467 195.254 117.204 204.909 115.296 214.478Z" fill="#82B378"/>
<path d="M112.59 222.611C107.56 232.042 98.5055 229.758 89.6593 229.758C83.7619 229.758 81.0906 227.612 79.8765 224.082C90.8214 215.482 104.021 206.415 104.021 206.415C104.021 206.986 110.491 215.621 112.59 222.611Z" fill="#67935D"/>
<path d="M72.2788 215.949C72.2094 206.052 79.4252 198.109 89.0519 195.479C98.8694 192.78 107.039 199.372 107.022 208.959C107.004 218.597 98.6786 228.131 88.7223 229.429C79.0782 230.657 72.3482 225.57 72.2788 215.949Z" fill="#A8D29F"/>
<path d="M73.146 215.707C73.0766 206.311 79.9281 198.767 89.0865 196.258C98.4184 193.697 106.172 199.961 106.154 209.063C106.137 218.216 98.2276 227.283 88.7569 228.512C79.5985 229.688 73.2154 224.843 73.146 215.707Z" fill="#CEEFC7"/>
<path d="M89.7974 210.205L87.1262 200.151C86.9354 199.407 87.5078 198.525 88.3231 198.352C89.3117 198.144 90.682 197.902 92.1217 197.85C93.8042 197.798 95.2092 197.936 96.1806 198.092C96.9438 198.213 97.2386 199.061 96.7876 199.805L90.6127 210.187C90.4045 210.551 89.9015 210.568 89.7974 210.205Z" fill="#E7FFE1"/>
<path d="M87.4907 213.285L77.4477 219.549C76.7018 220.016 75.8519 219.722 75.6958 218.961C75.5223 218.026 75.3315 216.711 75.3315 215.24C75.3315 213.545 75.5223 212.057 75.6958 211.001C75.8346 210.188 76.6845 209.582 77.413 209.773L87.4907 212.455C87.855 212.541 87.855 213.06 87.4907 213.285Z" fill="#E7FFE1"/>
<path d="M88.0977 211.417L78.1761 208.786C77.4302 208.596 77.2047 207.696 77.7077 206.969C78.3148 206.07 79.1995 204.858 80.2922 203.664C81.5584 202.28 82.7726 201.225 83.6399 200.498C84.3164 199.944 85.2183 200.1 85.4438 200.827L88.7395 210.759C88.8609 211.105 88.4619 211.52 88.0977 211.417Z" fill="#E7FFE1"/>
<path d="M89.069 214.22L85.9989 225.277C85.7734 226.107 84.8714 226.644 84.1603 226.384C83.293 226.073 82.1309 225.571 81.0034 224.862C79.7025 224.031 78.6965 223.166 78.02 222.508C77.4996 222.007 77.7078 221.038 78.4189 220.536L88.4099 213.805C88.7742 213.562 89.1731 213.822 89.069 214.22Z" fill="#E7FFE1"/>
<path d="M91.4979 210.499L98.2106 200.584C98.7136 199.84 99.6676 199.65 100.188 200.169C100.812 200.809 101.628 201.744 102.339 202.903C103.154 204.235 103.692 205.481 104.039 206.398C104.299 207.108 103.761 208.008 102.963 208.215L91.8968 211.157C91.4979 211.261 91.2551 210.863 91.4979 210.499Z" fill="#E7FFE1"/>
<path d="M91.8966 212.074L102.824 210.17C103.64 210.032 104.229 210.672 104.021 211.503C103.778 212.506 103.379 213.891 102.772 215.344C102.061 217.023 101.298 218.424 100.708 219.376C100.257 220.12 99.3031 220.362 98.7828 219.86L91.5324 212.887C91.2722 212.645 91.4977 212.143 91.8966 212.074Z" fill="#E7FFE1"/>
<path d="M90.9078 213.752L96.8053 221.799C97.2389 222.404 96.9267 223.373 96.1635 223.789C95.2269 224.308 93.9259 224.948 92.4689 225.467C90.7864 226.073 89.3294 226.401 88.2887 226.592C87.4908 226.73 86.9184 226.09 87.1265 225.277L90.0753 214.047C90.1967 213.649 90.6997 213.476 90.9078 213.752Z" fill="#E7FFE1"/>
<path opacity="0.6" d="M183.307 214.097L172.796 229.532L172.692 229.705H102.599L93.8911 211.156L105.044 150.818L111.306 116.955V99.0107H167.072V114.601L183.307 214.097Z" fill="#D2E4FF"/>
<path opacity="0.6" d="M167.072 99.0108H111.306L101.714 93.4218C101.714 93.4218 110.421 84.7354 117.949 84.7354H156.924C162.648 84.7354 166.638 84.7354 166.638 84.7354C166.638 84.7354 170.471 89.8745 167.072 99.0108Z" fill="#D2E4FF"/>
<path d="M179.873 196.309L178.485 192.744C182.873 191.049 188.736 188.09 191.702 183.574C193.333 181.082 193.35 179.265 193.333 179.057L193.298 178.832L193.333 178.659C193.385 178.227 199.386 134.691 200.704 122.353C201.034 119.256 200.41 116.799 198.848 115.051C196.125 112.006 191.286 111.815 191.095 111.815H165.458V107.991H191.147C191.425 107.991 197.808 108.112 201.728 112.507C204.035 115.103 204.989 118.546 204.538 122.751C203.254 134.777 197.565 176.15 197.183 179.023C197.183 180.736 196.455 189.924 179.873 196.309Z" fill="#C7DEFF"/>
<path d="M167.072 99.0108H111.306C111.306 99.0108 149.171 95.5501 156.907 84.7354C162.631 84.7354 166.621 84.7354 166.621 84.7354C166.621 84.7354 170.472 89.8745 167.072 99.0108Z" fill="#C7DEFF"/>
<path d="M178.225 211.242L168.911 224.929L168.806 225.067H106.692L98.9736 208.629L108.861 155.143C112.677 154.745 119.424 154.313 124.246 155.524C130.317 157.047 156.214 152.877 168.702 152.859L178.225 211.242Z" fill="#FFBD7B"/>
<path d="M146.586 212.645C146.586 212.645 150.992 211.659 152.033 211.053C153.074 210.447 155.537 209.582 156.612 209.703C157.688 209.824 166.499 208.665 166.898 210.222L160.619 213.406C160.602 213.389 147.991 213.7 146.586 212.645Z" fill="#CADEFC"/>
<path d="M160.289 213.06C160.289 213.06 166.325 209.409 166.88 210.205C167.435 211.001 167.487 215.621 168.008 217.179C168.528 218.736 168.181 219.688 166.637 220.536C165.094 221.401 160.74 224.187 160.74 224.187L160.289 213.06Z" fill="#AFCDFB"/>
<path d="M146.586 212.645C146.586 212.645 151.252 213.129 154.652 213.164C158.069 213.198 160.151 212.42 160.602 213.406C161.053 214.392 161.191 221.002 161.538 222.577C161.902 224.152 160.584 224.74 157.028 224.463C153.473 224.186 147.714 224.827 147.783 223.217C147.853 221.625 145.355 212.524 146.586 212.645Z" fill="#E9F3FE"/>
<path d="M152.97 214.15C152.97 214.15 148.391 213.666 147.419 213.597C146.431 213.527 147.593 217.109 147.714 218.078C147.714 218.078 148.113 218.269 148.148 217.732C148.2 217.196 147.766 215.379 148.356 215.137C148.946 214.894 149.934 214.237 150.767 214.375C151.582 214.514 153.351 214.479 152.97 214.15Z" fill="white"/>
<path d="M155.485 223.702C155.485 223.702 157.427 223.599 158.641 223.72C159.856 223.824 160.74 223.356 160.653 222.733C160.567 222.111 160.064 216.885 159.977 216.106C159.89 215.327 158.728 216.4 158.693 217.196C158.659 217.992 157.323 219.463 156.942 220.778C156.56 222.093 154.669 223.131 154.687 223.512C154.704 223.893 155.485 223.702 155.485 223.702Z" fill="white"/>
<path d="M164.123 211.676C164.123 211.676 163.238 212.524 162.336 212.835C161.434 213.147 161.191 213.129 161.295 213.683C161.399 214.237 161.764 216.365 161.781 216.711C161.798 217.057 162.18 217.126 162.301 216.832C162.406 216.538 162.544 215.5 162.856 214.842C163.169 214.185 163.585 212.87 164.192 212.489C164.782 212.108 164.869 211.382 164.123 211.676Z" fill="#8FB2E5"/>
<path d="M107.333 212.645C107.333 212.645 111.757 211.728 112.797 211.122C113.838 210.516 116.318 209.703 117.394 209.824C118.469 209.963 127.298 208.925 127.662 210.482L121.331 213.579C121.349 213.596 108.721 213.735 107.333 212.645Z" fill="#CADEFC"/>
<path d="M121.037 213.25C121.037 213.25 127.125 209.668 127.663 210.481C128.218 211.295 128.2 215.898 128.703 217.472C129.206 219.047 128.842 219.981 127.281 220.812C125.72 221.642 121.331 224.394 121.331 224.394L121.037 213.25Z" fill="#AFCDFB"/>
<path d="M107.334 212.645C107.334 212.645 111.982 213.199 115.399 213.268C118.816 213.337 120.915 212.593 121.349 213.58C121.782 214.566 121.834 221.193 122.164 222.768C122.494 224.342 121.193 224.913 117.637 224.602C114.081 224.29 108.322 224.844 108.409 223.235C108.478 221.643 106.102 212.507 107.334 212.645Z" fill="#E9F3FE"/>
<path d="M113.682 214.237C113.682 214.237 109.12 213.683 108.132 213.614C107.143 213.545 108.253 217.127 108.374 218.096C108.374 218.096 108.756 218.286 108.825 217.75C108.877 217.231 108.479 215.397 109.068 215.154C109.658 214.912 110.664 214.272 111.497 214.428C112.312 214.583 114.081 214.583 113.682 214.237Z" fill="white"/>
<path d="M116.093 223.84C116.093 223.84 118.036 223.771 119.25 223.892C120.447 224.013 121.349 223.563 121.262 222.94C121.175 222.317 120.742 217.092 120.672 216.296C120.603 215.517 119.424 216.59 119.371 217.369C119.319 218.165 117.984 219.618 117.568 220.916C117.169 222.231 115.261 223.235 115.278 223.615C115.313 223.996 116.093 223.84 116.093 223.84Z" fill="white"/>
<path d="M124.887 211.918C124.887 211.918 123.985 212.748 123.083 213.043C122.181 213.337 121.938 213.319 122.025 213.891C122.112 214.444 122.459 216.573 122.476 216.919C122.494 217.265 122.875 217.334 122.979 217.057C123.083 216.763 123.239 215.725 123.569 215.084C123.881 214.427 124.315 213.112 124.939 212.748C125.546 212.368 125.633 211.641 124.887 211.918Z" fill="#8FB2E5"/>
<path d="M140.932 223.269C137.133 226.592 131.635 222.75 129.519 222.197C127.385 221.643 124.35 218.321 124.35 218.321C124.35 218.321 131.01 216.608 135.936 217.611C140.776 218.615 140.914 223.148 140.932 223.269Z" fill="#A8D29F"/>
<path d="M140.932 223.269C140.88 223.183 137.896 218.373 124.35 218.321C124.35 218.321 131.01 216.608 135.936 217.611C140.776 218.615 140.914 223.148 140.932 223.269Z" fill="#82B378"/>
<path d="M132.103 201.19C132.329 206.225 125.876 208.094 124.107 209.392C122.338 210.689 117.845 210.984 117.845 210.984C117.845 210.984 120.673 204.737 124.541 201.536C128.374 198.386 131.999 201.103 132.103 201.19Z" fill="#A8D29F"/>
<path d="M132.103 201.19C132.016 201.172 126.362 200.48 117.845 210.984C117.845 210.984 120.673 204.737 124.541 201.536C128.374 198.386 131.999 201.103 132.103 201.19Z" fill="#82B378"/>
<path d="M161.555 185.772C160.619 190.738 153.923 191.084 151.894 191.95C149.882 192.815 145.441 192.088 145.441 192.088C145.441 192.088 149.622 186.637 154.114 184.405C158.555 182.19 161.469 185.668 161.555 185.772Z" fill="#A8D29F"/>
<path d="M161.555 185.772C161.469 185.738 156.126 183.782 145.441 192.088C145.441 192.088 149.622 186.637 154.114 184.405C158.555 182.19 161.469 185.668 161.555 185.772Z" fill="#82B378"/>
<path d="M111.323 164.558C116.267 163.52 119.163 169.559 120.742 171.081C122.32 172.604 123.344 176.982 123.344 176.982C123.344 176.982 116.7 175.217 112.902 171.929C109.172 168.693 111.271 164.679 111.323 164.558Z" fill="#A8D29F"/>
<path d="M111.323 164.575C111.323 164.662 111.566 170.337 123.344 176.999C123.344 176.999 116.7 175.234 112.902 171.947C109.172 168.693 111.271 164.679 111.323 164.575Z" fill="#82B378"/>
<path d="M133.179 200.896C133.179 200.896 137.22 202.903 138.417 203.076C139.614 203.249 142.06 204.131 142.823 204.91C143.586 205.689 151.166 210.309 150.489 211.762L143.603 210.291C143.586 210.291 133.595 202.609 133.179 200.896Z" fill="#CADEFC"/>
<path d="M143.551 209.842C143.551 209.842 150.541 210.794 150.472 211.763C150.402 212.732 147.523 216.348 146.951 217.888C146.378 219.428 145.494 219.947 143.759 219.636C142.025 219.342 136.873 218.771 136.873 218.771L143.551 209.842Z" fill="#AFCDFB"/>
<path d="M133.179 200.896C133.179 200.896 136.492 204.201 139.128 206.364C141.765 208.527 143.863 209.253 143.603 210.292C143.326 211.33 139.267 216.573 138.556 218.009C137.845 219.445 136.457 219.099 133.855 216.642C131.271 214.202 126.397 211.07 127.455 209.876C128.495 208.682 132.294 200.03 133.179 200.896Z" fill="#E9F3FE"/>
<path d="M137.168 206.07C137.168 206.07 133.925 202.817 133.196 202.159C132.468 201.501 131.115 204.997 130.594 205.827C130.594 205.827 130.785 206.208 131.149 205.845C131.514 205.464 132.329 203.786 132.953 203.959C133.578 204.132 134.757 204.253 135.312 204.876C135.867 205.499 137.272 206.571 137.168 206.07Z" fill="white"/>
<path d="M133.092 215.085C133.092 215.085 134.67 216.227 135.538 217.075C136.405 217.923 137.394 218.113 137.723 217.577C138.053 217.04 140.949 212.663 141.383 212.005C141.817 211.347 140.221 211.451 139.7 212.04C139.163 212.628 137.22 212.939 136.075 213.718C134.948 214.497 132.832 214.116 132.606 214.428C132.381 214.739 133.092 215.085 133.092 215.085Z" fill="white"/>
<path d="M147.402 211.173C147.402 211.173 146.17 211.277 145.286 210.948C144.401 210.62 144.21 210.464 143.933 210.948C143.655 211.45 142.597 213.319 142.406 213.596C142.198 213.873 142.458 214.167 142.718 214.011C142.979 213.855 143.759 213.129 144.401 212.817C145.06 212.506 146.205 211.744 146.933 211.814C147.645 211.917 148.165 211.398 147.402 211.173Z" fill="#8FB2E5"/>
<path opacity="0.6" d="M141.851 229.774L172.795 229.549C167.314 229.601 161.885 229.653 157.132 229.722C148.269 229.826 141.782 229.947 141.782 229.947L141.851 229.774Z" fill="#C7DEFF"/>
<path opacity="0.6" d="M183.307 214.097L172.795 229.532L172.674 229.705H160.515C164.175 183.279 156.3 132.251 150.003 117.041C142.562 99.0624 126.708 98.9932 126.708 98.9932H167.071V114.601L183.307 214.097Z" fill="#C7DEFF"/>
<path opacity="0.6" d="M118.279 118.477L105.929 208.076C105.929 208.076 106.71 221.313 110.682 220.95C114.671 220.586 113.509 208.266 113.735 207.522C113.96 206.778 124.975 118.477 124.975 118.477C124.975 118.477 122.234 113.754 118.279 118.477Z" fill="#F8FBFF"/>
<path d="M229.689 208.128C229.082 211.139 228.353 213.735 227.504 215.984C220.878 233.426 207.036 229.654 193.541 229.654C178.294 229.654 178.329 219.479 178.329 205.706C178.329 191.949 186.776 180.996 202.006 180.996C217.235 181.013 232.378 194.614 229.689 208.128Z" fill="#FF9933"/>
<path d="M227.486 215.985C220.86 233.427 207.018 229.655 193.523 229.655C178.277 229.655 178.312 219.48 178.312 205.706C190.037 201.034 211.407 191.812 211.407 191.812C211.407 191.812 225.335 203.457 227.486 215.985Z" fill="#ED8629"/>
<path d="M169.049 210.188C168.962 196.241 179.127 185.045 192.691 181.325C206.532 177.536 218.032 186.81 218.015 200.342C217.998 213.925 206.255 227.387 192.205 229.187C178.624 230.935 169.136 223.754 169.049 210.188Z" fill="#FF9933"/>
<path d="M170.263 209.841C170.176 196.587 179.837 185.945 192.725 182.415C205.89 178.816 216.818 187.624 216.783 200.48C216.766 213.389 205.613 226.176 192.257 227.889C179.369 229.55 170.35 222.733 170.263 209.841Z" fill="#FFBD7B"/>
<path d="M193.748 202.09L189.967 187.918C189.69 186.862 190.505 185.617 191.65 185.374C193.055 185.063 194.963 184.751 197.009 184.682C199.368 184.596 201.363 184.803 202.733 185.011C203.791 185.167 204.225 186.361 203.601 187.416L194.893 202.055C194.598 202.591 193.887 202.609 193.748 202.09Z" fill="#F1A34F"/>
<path d="M190.488 206.432L176.334 215.257C175.276 215.915 174.079 215.5 173.871 214.427C173.611 213.112 173.368 211.243 173.368 209.184C173.368 206.796 173.628 204.685 173.888 203.214C174.079 202.072 175.276 201.207 176.299 201.484L190.505 205.256C191.008 205.394 190.991 206.121 190.488 206.432Z" fill="#F1A34F"/>
<path d="M191.355 203.82L177.357 200.1C176.317 199.823 175.987 198.56 176.681 197.522C177.531 196.259 178.78 194.546 180.323 192.867C182.11 190.929 183.81 189.424 185.041 188.403C185.995 187.624 187.262 187.849 187.591 188.853L192.222 202.851C192.413 203.37 191.858 203.941 191.355 203.82Z" fill="#F1A34F"/>
<path d="M192.708 207.748L188.371 223.339C188.042 224.498 186.793 225.259 185.787 224.896C184.573 224.446 182.925 223.754 181.346 222.75C179.508 221.591 178.085 220.345 177.149 219.428C176.42 218.718 176.698 217.334 177.721 216.659L191.823 207.177C192.309 206.814 192.864 207.177 192.708 207.748Z" fill="#F1A34F"/>
<path d="M196.142 202.505L205.596 188.541C206.307 187.503 207.66 187.226 208.388 187.97C209.273 188.87 210.418 190.202 211.424 191.811C212.586 193.68 213.349 195.463 213.8 196.743C214.164 197.747 213.418 199.01 212.291 199.304L196.697 203.457C196.142 203.595 195.795 203.024 196.142 202.505Z" fill="#F1A34F"/>
<path d="M196.698 204.72L212.1 202.055C213.245 201.865 214.078 202.782 213.8 203.941C213.453 205.36 212.898 207.298 212.048 209.357C211.06 211.728 209.967 213.701 209.134 215.05C208.492 216.106 207.157 216.435 206.411 215.725L196.194 205.897C195.83 205.533 196.142 204.824 196.698 204.72Z" fill="#F1A34F"/>
<path d="M195.31 207.107L203.618 218.441C204.243 219.289 203.792 220.656 202.716 221.244C201.398 221.971 199.559 222.888 197.513 223.615C195.154 224.462 193.072 224.93 191.615 225.207C190.488 225.414 189.672 224.497 189.985 223.355L194.13 207.505C194.286 206.934 195.015 206.692 195.31 207.107Z" fill="#F1A34F"/>
<path d="M200.028 55.8566C199.924 39.3835 211.91 28.4995 227.92 27.219C244.259 25.904 257.823 39.4873 257.788 55.4413C257.771 71.4644 243.912 84.6498 227.347 83.5597C211.32 82.5215 200.132 71.8797 200.028 55.8566Z" fill="#FF9933"/>
<path d="M201.468 55.7355C201.364 40.093 212.76 29.7454 227.954 28.5169C243.479 27.271 256.366 40.1795 256.332 55.3202C256.314 70.5474 243.149 83.0753 227.417 82.037C212.205 81.068 201.572 70.9627 201.468 55.7355Z" fill="#FFBD7B"/>
<path d="M229.168 51.9631L224.711 34.3826C224.381 33.0675 225.352 31.8043 226.705 31.7697C228.353 31.7351 230.625 31.787 233.036 32.1677C235.829 32.6176 238.171 33.3097 239.801 33.8635C241.05 34.296 241.553 35.8015 240.825 36.9089L230.556 52.188C230.174 52.7417 229.325 52.586 229.168 51.9631Z" fill="#F1A34F"/>
<path d="M225.318 56.341L208.631 63.5047C207.382 64.0411 205.977 63.2798 205.735 61.9647C205.44 60.3382 205.127 58.106 205.127 55.6662C205.127 52.8457 205.44 50.4232 205.735 48.7447C205.96 47.4296 207.382 46.7029 208.579 47.2566L225.335 54.9567C225.925 55.2163 225.925 56.0815 225.318 56.341Z" fill="#F1A34F"/>
<path d="M226.341 53.4513L209.828 45.8723C208.596 45.3013 208.215 43.7439 209.03 42.6884C210.036 41.3907 211.51 39.6603 213.314 38.0337C215.413 36.1476 217.425 34.7634 218.882 33.8636C220.01 33.1714 221.501 33.7251 221.9 34.9883L227.364 52.5515C227.59 53.1571 226.948 53.7108 226.341 53.4513Z" fill="#F1A34F"/>
<path d="M227.937 58.3995L222.82 75.7897C222.438 77.0875 220.947 77.6931 219.767 77.0356C218.327 76.2396 216.402 75.0283 214.511 73.4883C212.326 71.6887 210.661 69.9065 209.551 68.6087C208.683 67.5878 209.03 66.0477 210.227 65.4767L226.844 57.517C227.468 57.2056 228.11 57.7593 227.937 58.3995Z" fill="#F1A34F"/>
<path d="M231.978 53.0019L243.131 38.6918C243.964 37.619 245.56 37.6017 246.427 38.6399C247.468 39.9204 248.821 41.7373 250 43.8656C251.37 46.34 252.255 48.6068 252.81 50.2334C253.244 51.4965 252.359 52.8116 251.023 52.8981L232.637 54.2132C231.978 54.2824 231.579 53.5211 231.978 53.0019Z" fill="#F1A34F"/>
<path d="M232.637 55.7356L250.798 56.099C252.151 56.1336 253.122 57.3968 252.793 58.7119C252.394 60.3038 251.735 62.484 250.728 64.6989C249.549 67.2598 248.265 69.3363 247.294 70.7552C246.531 71.8453 244.952 71.9318 244.085 70.9282L232.03 56.9988C231.614 56.497 231.978 55.7183 232.637 55.7356Z" fill="#F1A34F"/>
<path d="M231.007 58.2268L240.807 73.4886C241.536 74.6306 241.015 76.136 239.749 76.6032C238.205 77.1569 236.02 77.8145 233.609 78.2125C230.816 78.6624 228.371 78.7489 226.653 78.7316C225.318 78.7143 224.364 77.4511 224.728 76.1706L229.619 58.4344C229.81 57.8115 230.66 57.673 231.007 58.2268Z" fill="#F1A34F"/>
<path opacity="0.6" d="M307.553 229.481H235.274L228.908 58.6592H312.912L307.553 229.481Z" fill="#92C4FF"/>
<path opacity="0.5" d="M308.524 58.9707L307.691 85.5145L303.979 203.681C303.841 208.284 300.632 211.935 296.729 211.935H246.375C242.247 211.935 238.865 208.111 238.691 203.231L234.476 90.2557L233.314 58.9707H308.524Z" fill="white"/>
<path d="M251.266 197.919L246.271 196.362L287.015 65.8924C287.189 65.0099 288.039 61.4108 290.606 57.3098C293.277 53.0531 298.394 47.3256 307.691 44.2456C324.117 38.7776 350.257 31.4928 350.517 31.4062L351.922 36.4416C351.662 36.5108 325.644 43.7784 309.356 49.1944C303.164 51.2535 298.394 54.8527 295.185 59.8707C292.757 63.6775 292.167 66.9306 292.15 66.9652L292.115 67.1383L292.063 67.294L251.266 197.919Z" fill="#F1A34F"/>
<path d="M256.696 191.724L261.917 192.192L274.302 56.0984C274.475 55.2159 275.082 51.5822 274.284 46.789C273.452 41.8402 270.919 34.6073 263.513 28.2049C250.417 16.8884 229.082 0.173036 228.856 0L225.613 4.11827C225.821 4.2913 247.069 20.9201 260.061 32.1502C264.987 36.4069 268.022 41.546 269.063 47.4293C269.844 51.8763 269.15 55.1121 269.15 55.1467L269.115 55.3197L269.098 55.4928L256.696 191.724Z" fill="#82B378"/>
<path d="M293.659 168.001C304.048 159.851 307.292 146.943 299.695 135.713C298.914 134.571 298.099 133.515 297.214 132.563L264.171 166.686C272.202 173.867 284.674 175.044 293.659 168.001Z" fill="#82B378"/>
<path d="M293.381 167.603C303.511 159.643 306.685 147.046 299.278 136.093C298.515 134.968 297.683 133.93 296.815 132.979L264.553 166.288C272.376 173.331 284.604 174.49 293.381 167.603Z" fill="#D7F2D1"/>
<path d="M281.534 151.685L292.913 161.98C293.762 162.742 293.676 164.091 292.739 164.749C291.594 165.545 289.964 166.566 288.091 167.414C285.922 168.4 283.945 169.006 282.54 169.369C281.447 169.646 280.389 168.815 280.389 167.708L280.459 152.152C280.459 151.598 281.135 151.304 281.534 151.685Z" fill="#A8D29F"/>
<path d="M282.523 147.739L294.699 135.159C295.359 135.938 296.07 136.838 296.746 137.841C298.064 139.831 298.984 141.665 299.556 142.998C300.007 144.019 299.365 145.195 298.238 145.368L282.835 147.774C282.714 147.791 282.61 147.791 282.523 147.739Z" fill="#A8D29F"/>
<path d="M282.835 149.314L298.012 146.943C299.14 146.77 300.146 147.687 300.059 148.812C299.955 150.196 299.729 152.099 299.226 154.089C298.637 156.391 297.874 158.311 297.266 159.627C296.798 160.647 295.497 160.959 294.613 160.249L282.523 150.438C282.089 150.092 282.28 149.4 282.835 149.314Z" fill="#A8D29F"/>
<path d="M266.374 164.42L278.741 151.649C278.95 151.771 279.088 151.978 279.071 152.255L277.926 167.534C277.839 168.676 276.712 169.438 275.637 169.109C274.301 168.694 272.497 168.053 270.676 167.102C268.924 166.184 267.467 165.233 266.374 164.42Z" fill="#A8D29F"/>
<path d="M244.172 132.373C255.117 139.744 268.439 138.896 276.834 128.255C277.684 127.164 278.43 126.057 279.071 124.95L236.401 103.978C232.03 113.771 234.719 125.988 244.172 132.373Z" fill="#82B378"/>
<path d="M244.45 131.992C255.134 139.19 268.126 138.36 276.331 127.978C277.18 126.905 277.909 125.815 278.551 124.69L236.904 104.22C232.585 113.789 235.205 125.745 244.45 131.992Z" fill="#D7F2D1"/>
<path d="M256.054 115.883L249.688 129.829C249.22 130.868 247.902 131.196 246.982 130.504C245.872 129.656 244.398 128.428 243.01 126.905C241.397 125.14 240.218 123.444 239.454 122.233C238.865 121.281 239.316 120.018 240.391 119.689L255.256 115C255.811 114.827 256.279 115.381 256.054 115.883Z" fill="#A8D29F"/>
<path d="M260.113 115.605L275.845 123.34C275.307 124.205 274.648 125.157 273.902 126.091C272.411 127.96 270.919 129.379 269.844 130.348C268.994 131.092 267.675 130.833 267.172 129.829L260.182 115.934C260.113 115.813 260.095 115.709 260.113 115.605Z" fill="#A8D29F"/>
<path d="M258.708 116.384L265.594 130.071C266.114 131.092 265.542 132.321 264.432 132.597C263.079 132.926 261.188 133.29 259.141 133.411C256.765 133.549 254.701 133.411 253.261 133.238C252.151 133.099 251.457 131.957 251.874 130.919L257.563 116.436C257.736 115.917 258.465 115.882 258.708 116.384Z" fill="#A8D29F"/>
<path d="M239.264 105.361L255.239 113.217C255.187 113.442 255.031 113.65 254.753 113.719L239.819 117.301C238.708 117.56 237.633 116.73 237.616 115.605C237.598 114.221 237.668 112.3 238.015 110.276C238.362 108.32 238.83 106.659 239.264 105.361Z" fill="#A8D29F"/>
<path d="M274.232 197.815C274.232 197.815 279.366 195.842 280.494 194.925C281.621 194.008 284.448 192.537 285.767 192.485C287.085 192.434 297.492 189.475 298.238 191.292L291.248 196.24C291.248 196.24 276.105 198.853 274.232 197.815Z" fill="#CADEFC"/>
<path d="M290.814 195.894C290.814 195.894 297.423 190.426 298.238 191.291C299.053 192.156 299.938 197.711 300.84 199.493C301.742 201.275 301.481 202.486 299.782 203.784C298.082 205.082 293.329 209.235 293.329 209.235L290.814 195.894Z" fill="#AFCDFB"/>
<path d="M274.232 197.815C274.232 197.815 279.938 197.572 284.049 197.001C288.16 196.43 290.554 195.133 291.248 196.24C291.959 197.347 293.312 205.29 294.023 207.124C294.734 208.958 293.26 209.893 288.941 210.204C284.622 210.515 277.788 212.298 277.58 210.36C277.354 208.404 272.723 197.884 274.232 197.815Z" fill="#E9F3FE"/>
<path d="M282.176 198.507C282.176 198.507 276.574 198.732 275.377 198.836C274.18 198.939 276.21 203.04 276.539 204.182C276.539 204.182 277.042 204.338 277.007 203.698C276.973 203.058 276.123 200.947 276.799 200.531C277.476 200.133 278.551 199.164 279.557 199.182C280.581 199.182 282.697 198.836 282.176 198.507Z" fill="white"/>
<path d="M286.929 209.564C286.929 209.564 289.253 209.097 290.727 209.028C292.202 208.941 293.19 208.232 292.965 207.488C292.739 206.761 291.213 200.549 290.97 199.632C290.727 198.698 289.531 200.22 289.617 201.172C289.704 202.124 288.368 204.131 288.143 205.792C287.917 207.453 285.819 209.028 285.923 209.478C286.009 209.928 286.929 209.564 286.929 209.564Z" fill="white"/>
<path d="M295.185 193.559C295.185 193.559 294.266 194.736 293.242 195.272C292.219 195.809 291.907 195.826 292.132 196.483C292.358 197.141 293.173 199.633 293.26 200.031C293.347 200.446 293.815 200.463 293.902 200.083C293.971 199.719 293.971 198.439 294.214 197.591C294.474 196.743 294.734 195.082 295.393 194.511C296.052 193.957 296.018 193.057 295.185 193.559Z" fill="#8FB2E5"/>
<path d="M242.229 190.755C242.229 190.755 247.589 191.983 249.046 191.845C250.503 191.707 253.66 192.07 254.788 192.762C255.915 193.454 266.201 196.811 265.802 198.715L257.233 198.922C257.233 198.939 243.218 192.658 242.229 190.755Z" fill="#CADEFC"/>
<path d="M257.06 198.421C257.06 198.421 265.611 197.573 265.802 198.749C265.993 199.926 263.616 205.013 263.374 207.003C263.131 208.993 262.229 209.841 260.095 209.979C257.944 210.118 251.683 210.896 251.683 210.896L257.06 198.421Z" fill="#AFCDFB"/>
<path d="M242.23 190.755C242.23 190.755 247.086 193.731 250.816 195.548C254.545 197.365 257.251 197.625 257.216 198.922C257.181 200.22 253.851 207.574 253.417 209.495C252.984 211.416 251.232 211.364 247.468 209.218C243.704 207.055 237.043 204.736 237.963 203.006C238.899 201.293 240.929 189.976 242.23 190.755Z" fill="#E9F3FE"/>
<path d="M248.439 195.756C248.439 195.756 243.669 192.832 242.629 192.244C241.588 191.656 240.963 196.189 240.599 197.314C240.599 197.314 240.929 197.729 241.258 197.175C241.588 196.622 242.073 194.389 242.854 194.441C243.635 194.476 245.057 194.286 245.907 194.857C246.739 195.445 248.682 196.327 248.439 195.756Z" fill="white"/>
<path d="M246.167 207.592C246.167 207.592 248.353 208.509 249.619 209.253C250.885 209.997 252.117 209.962 252.342 209.218C252.568 208.491 254.77 202.487 255.083 201.587C255.395 200.687 253.556 201.276 253.105 202.106C252.637 202.954 250.417 203.871 249.307 205.117C248.196 206.363 245.577 206.501 245.404 206.934C245.23 207.367 246.167 207.592 246.167 207.592Z" fill="white"/>
<path d="M261.986 198.905C261.986 198.905 260.563 199.372 259.419 199.234C258.274 199.113 257.996 198.957 257.823 199.632C257.632 200.307 256.921 202.816 256.765 203.197C256.609 203.595 256.99 203.871 257.268 203.595C257.545 203.335 258.239 202.262 258.933 201.708C259.609 201.155 260.772 199.909 261.639 199.805C262.489 199.719 262.957 198.957 261.986 198.905Z" fill="#8FB2E5"/>
<path d="M256.401 154.92C256.401 154.92 261.57 156.771 263.044 156.806C264.501 156.841 267.606 157.567 268.629 158.398C269.67 159.229 279.47 163.745 278.863 165.614L270.329 164.8C270.329 164.8 257.147 156.927 256.401 154.92Z" fill="#CADEFC"/>
<path d="M270.225 164.264C270.225 164.264 278.811 164.419 278.863 165.613C278.915 166.807 275.949 171.583 275.481 173.521C274.995 175.459 274.006 176.203 271.873 176.082C269.722 175.961 263.408 176.013 263.408 176.013L270.225 164.264Z" fill="#AFCDFB"/>
<path d="M256.401 154.92C256.401 154.92 260.876 158.449 264.362 160.699C267.849 162.948 270.503 163.519 270.329 164.8C270.138 166.098 265.976 173.002 265.316 174.853C264.657 176.705 262.923 176.463 259.454 173.867C255.985 171.289 249.636 168.191 250.746 166.582C251.839 164.99 255.204 154.002 256.401 154.92Z" fill="#E9F3FE"/>
<path d="M261.969 160.612C261.969 160.612 257.58 157.134 256.609 156.442C255.638 155.732 254.493 160.162 253.99 161.252C253.99 161.252 254.267 161.702 254.666 161.183C255.065 160.664 255.794 158.518 256.574 158.657C257.355 158.778 258.794 158.76 259.558 159.435C260.321 160.093 262.16 161.218 261.969 160.612Z" fill="white"/>
<path d="M258.326 172.085C258.326 172.085 260.39 173.244 261.57 174.144C262.732 175.044 263.963 175.13 264.276 174.438C264.588 173.728 267.485 168.036 267.901 167.17C268.317 166.305 266.427 166.669 265.871 167.465C265.316 168.243 262.992 168.901 261.743 170.008C260.494 171.116 257.875 170.96 257.65 171.358C257.407 171.773 258.326 172.085 258.326 172.085Z" fill="white"/>
<path d="M275.065 165.336C275.065 165.336 273.59 165.63 272.48 165.37C271.353 165.111 271.11 164.938 270.85 165.578C270.59 166.218 269.583 168.624 269.375 169.004C269.167 169.368 269.531 169.696 269.826 169.471C270.121 169.246 270.954 168.26 271.7 167.793C272.445 167.326 273.729 166.236 274.614 166.236C275.464 166.201 276.019 165.509 275.065 165.336Z" fill="#8FB2E5"/>
<path d="M268.473 153.518C263.547 158.588 255.464 153.847 252.429 153.328C249.393 152.792 244.779 148.518 244.779 148.518C244.779 148.518 253.851 145.368 260.841 146.216C267.727 147.047 268.456 153.345 268.473 153.518Z" fill="#A8D29F"/>
<path d="M268.473 153.518C268.404 153.415 263.669 147.029 244.797 148.518C244.797 148.518 253.869 145.368 260.859 146.216C267.728 147.047 268.456 153.345 268.473 153.518Z" fill="#82B378"/>
<path d="M301.378 114.879C304.76 127.822 289.132 136.215 285.281 140.592C281.43 144.953 269.965 148.206 269.965 148.206C269.965 148.206 273.781 130.435 282.02 120.001C290.155 109.705 301.083 114.741 301.378 114.879Z" fill="#A8D29F"/>
<path d="M301.377 114.879C301.135 114.897 286.131 116.264 269.965 148.206C269.965 148.206 273.781 130.435 282.02 120.001C290.155 109.705 301.083 114.741 301.377 114.879Z" fill="#82B378"/>
<path d="M278.291 207.972C273.659 212.021 266.981 207.35 264.397 206.657C261.813 205.983 258.101 201.951 258.101 201.951C258.101 201.951 266.201 199.857 272.202 201.086C278.117 202.297 278.291 207.817 278.291 207.972Z" fill="#A8D29F"/>
<path d="M278.291 207.973C278.239 207.869 274.579 202.003 258.101 201.951C258.101 201.951 266.201 199.857 272.202 201.086C278.117 202.297 278.291 207.817 278.291 207.973Z" fill="#82B378"/>
<path d="M260.356 189.994C260.356 189.994 265.49 188.021 266.618 187.104C267.745 186.187 270.572 184.716 271.891 184.664C273.209 184.612 283.616 181.653 284.362 183.47L277.372 188.419C277.372 188.419 262.229 191.032 260.356 189.994Z" fill="#CADEFC"/>
<path d="M276.938 188.073C276.938 188.073 283.547 182.605 284.362 183.47C285.177 184.335 286.062 189.889 286.964 191.672C287.866 193.454 287.605 194.665 285.906 195.963C284.206 197.261 279.453 201.414 279.453 201.414L276.938 188.073Z" fill="#AFCDFB"/>
<path d="M260.356 189.993C260.356 189.993 266.063 189.751 270.173 189.18C274.284 188.609 276.678 187.311 277.372 188.419C278.083 189.526 279.436 197.468 280.147 199.303C280.858 201.137 279.384 202.071 275.065 202.383C270.746 202.694 263.912 204.476 263.704 202.538C263.478 200.583 258.847 190.08 260.356 189.993Z" fill="#E9F3FE"/>
<path d="M268.3 190.686C268.3 190.686 262.698 190.91 261.501 191.014C260.304 191.118 262.334 195.219 262.663 196.361C262.663 196.361 263.166 196.517 263.131 195.877C263.097 195.236 262.247 193.125 262.923 192.71C263.6 192.312 264.675 191.343 265.681 191.36C266.705 191.378 268.838 191.014 268.3 190.686Z" fill="white"/>
<path d="M273.053 201.761C273.053 201.761 275.377 201.293 276.851 201.224C278.326 201.138 279.314 200.428 279.089 199.684C278.863 198.957 277.337 192.745 277.094 191.828C276.851 190.894 275.655 192.417 275.741 193.368C275.828 194.32 274.492 196.327 274.267 197.988C274.041 199.65 271.943 201.224 272.047 201.674C272.151 202.107 273.053 201.761 273.053 201.761Z" fill="white"/>
<path d="M281.309 185.737C281.309 185.737 280.39 186.914 279.367 187.45C278.343 187.986 278.031 188.004 278.256 188.661C278.482 189.319 279.297 191.81 279.384 192.208C279.471 192.624 279.939 192.641 280.026 192.26C280.095 191.897 280.095 190.617 280.338 189.769C280.598 188.921 280.858 187.26 281.517 186.689C282.176 186.135 282.142 185.252 281.309 185.737Z" fill="#8FB2E5"/>
<path d="M287.189 184.734C286.807 190.859 278.776 192.295 276.469 193.662C274.162 195.012 268.681 194.804 268.681 194.804C268.681 194.804 272.896 187.589 277.996 184.215C283.026 180.858 287.085 184.63 287.189 184.734Z" fill="#A8D29F"/>
<path d="M287.189 184.734C287.085 184.699 280.337 183.159 268.681 194.804C268.681 194.804 272.896 187.589 277.996 184.215C283.026 180.858 287.085 184.63 287.189 184.734Z" fill="#82B378"/>
<path d="M245.282 181.671C255.43 190.098 268.768 190.583 278.204 180.841C279.158 179.854 280.025 178.816 280.771 177.761L240.426 152.636C235.066 161.962 236.523 174.386 245.282 181.671Z" fill="#82B378"/>
<path d="M245.612 181.325C255.516 189.562 268.526 190.029 277.736 180.512C278.69 179.525 279.54 178.504 280.268 177.466L240.877 152.93C235.621 162.031 237.026 174.196 245.612 181.325Z" fill="#D7F2D1"/>
<path d="M258.76 166.462L251.041 179.699C250.469 180.685 249.116 180.875 248.283 180.097C247.26 179.145 245.924 177.778 244.693 176.117C243.271 174.196 242.265 172.397 241.623 171.099C241.12 170.095 241.709 168.884 242.82 168.659L258.084 165.493C258.621 165.389 259.038 165.977 258.76 166.462Z" fill="#A8D29F"/>
<path d="M262.819 166.583L277.701 175.84C277.077 176.654 276.331 177.536 275.499 178.384C273.833 180.08 272.203 181.36 271.023 182.208C270.104 182.866 268.821 182.468 268.422 181.43L262.871 166.894C262.819 166.791 262.802 166.687 262.819 166.583Z" fill="#A8D29F"/>
<path d="M261.362 167.223L266.843 181.533C267.242 182.606 266.565 183.765 265.438 183.921C264.05 184.111 262.142 184.284 260.078 184.198C257.684 184.094 255.655 183.748 254.233 183.437C253.14 183.194 252.568 181.983 253.071 180.979L260.182 167.137C260.425 166.669 261.153 166.704 261.362 167.223Z" fill="#A8D29F"/>
<path d="M243.114 154.314L258.222 163.728C258.153 163.953 257.962 164.143 257.702 164.178L242.49 166.254C241.362 166.41 240.374 165.475 240.478 164.333C240.599 162.949 240.859 161.046 241.414 159.073C241.917 157.17 242.559 155.543 243.114 154.314Z" fill="#A8D29F"/>
<path opacity="0.3" d="M307.691 85.5145L303.98 203.681C303.841 208.284 300.632 211.935 296.729 211.935H246.375C242.247 211.935 238.864 208.111 238.691 203.231L234.476 90.2557L234.511 90.1865C234.511 90.1865 246.826 87.5044 259.055 87.6775C271.283 87.8505 287.276 84.0091 290.728 85.1685C294.179 86.3278 303.927 84.4071 307.674 84.9435C307.674 84.9608 307.674 85.1512 307.691 85.5145Z" fill="#D7F2D1"/>
<path d="M307.674 84.9609C303.875 84.4418 290.051 87.193 286.634 86.051C283.182 84.8917 269.167 89.9097 257.042 88.3351C246.635 86.9681 233.852 88.8715 232.811 89.0791H232.689L232.724 89.0099C232.724 89.0099 245.039 86.3279 257.268 86.5009C269.497 86.6739 285.489 82.8325 288.941 83.9919C292.393 85.1512 303.927 84.4072 307.674 84.9609Z" fill="#E7FFE1"/>
<path opacity="0.4" d="M251.735 63.6777H242.368V227.664H251.735V63.6777Z" fill="white"/>
<path opacity="0.2" d="M299.556 58.7461H282.818V227.664H299.556V58.7461Z" fill="#82B378"/>
<path d="M366.492 171.842C366.492 171.842 374.905 174.749 377.68 174.386C377.68 174.386 377.871 172.967 375.425 171.652C372.979 170.337 370.881 165.924 369.562 166.27C368.244 166.599 366.492 167.793 366.492 167.793V171.842Z" fill="#163560"/>
<path d="M378.495 158.812C378.495 158.812 387.289 157.376 389.544 155.732C389.544 155.732 389.024 154.4 386.249 154.4C383.473 154.4 379.519 151.527 378.513 152.444C377.506 153.361 376.535 155.248 376.535 155.248L378.495 158.812Z" fill="#163560"/>
<path d="M366.509 171.859C364.116 171.79 361.861 171.686 359.745 171.548C327.655 169.662 326.719 162.533 326.719 162.533C321.376 146.215 342.833 130.019 342.833 130.019C342.833 130.019 355.842 128.202 355.321 135.833C354.801 143.464 336.796 158.449 336.796 158.449C342.781 159.003 352.529 162.377 359.207 164.903C363.474 166.513 366.492 167.793 366.492 167.793C366.492 167.793 367.064 168.762 366.978 169.852C366.891 171.046 366.509 171.859 366.509 171.859Z" fill="#1C468A"/>
<path d="M359.744 171.548C327.655 169.662 326.719 162.533 326.719 162.533C321.376 146.215 342.833 130.019 342.833 130.019C342.833 130.019 355.842 128.202 355.321 135.833C354.801 143.464 336.796 158.449 336.796 158.449C342.781 159.003 352.529 162.377 359.207 164.903C360.022 166.98 360.542 169.471 359.744 171.548Z" fill="#163560"/>
<path d="M378.512 158.812C378.495 158.812 378.495 158.812 378.478 158.812C350.864 166.253 341.115 166.149 338.305 165.578C337.057 165.336 336.189 163.519 336.189 163.519C330.847 147.202 353.604 128.825 353.604 128.825C353.604 128.825 363.404 128.375 366.145 132.84C366.648 133.653 366.908 134.639 366.839 135.833C366.509 140.747 359.051 147.825 353.795 152.237C351.02 154.573 348.834 156.165 348.661 156.303H348.643C357.836 150.645 376.57 155.248 376.57 155.248C376.57 155.248 377.662 156.009 378.009 156.649C378.512 157.653 378.512 158.812 378.512 158.812Z" fill="#1C468A"/>
<path d="M388.937 68.9031C388.504 67.242 388.764 67.64 388.469 66.4633C388.174 65.2694 386.891 66.2903 386.891 66.2903C385.087 67.9341 385.069 69.751 385.33 70.9104C385.538 71.7929 385.416 72.71 384.948 73.4886C382.259 78.0395 375.685 89.9271 375.685 89.9271C368.782 90.2385 358.496 92.5572 358.496 92.5572C358.496 92.5572 355.426 101.815 360.491 102.126C365.556 102.438 379.831 95.4469 381.063 94.3741C382.294 93.3013 388.157 73.1771 388.157 73.1771C389.076 72.3466 389.371 70.5643 388.937 68.9031Z" fill="#FFB27D"/>
<path d="M352.789 49.6783C351.662 50.1628 352.147 50.1282 350.552 50.7685C348.956 51.4087 347.204 55.527 347.204 55.527C335.062 71.0137 336.415 77.5199 336.415 77.5199C336.103 83.4897 340.873 98.9072 340.873 98.9072L348.123 93.7334C348.73 89.3037 342.816 75.7895 342.816 75.7895C345.834 69.5429 348.262 61.168 349.303 57.3093C349.598 56.2191 350.291 55.2501 351.297 54.7483C352.356 54.2119 353.639 53.1045 353.865 50.8377C353.882 50.855 353.917 49.2111 352.789 49.6783Z" fill="#FFB27D"/>
<path d="M353.119 113.234C353.119 113.234 343.319 103.095 334.958 96.9344C334.386 95.3944 334.073 93.3353 334.073 93.3353C333.605 94.1832 333.675 95.2906 333.831 96.1212C331.558 94.5292 329.425 93.2834 327.69 92.6777C327.101 89.2862 330.379 85.7044 330.379 85.7044C327.569 86.8464 326.424 90.584 326.043 92.3144C325.748 92.2971 325.453 92.2971 325.193 92.349C325.193 92.349 324.915 80.8767 342.486 80.8767C349.32 80.8767 348.349 69.0237 358.08 69.8715C358.08 69.8715 368.712 71.948 366.718 81.1881C364.74 90.4283 368.001 92.5047 369.129 94.5811C370.273 96.6576 365.451 111.175 353.119 113.234Z" fill="#AA443E"/>
<path d="M361.774 94.3912L351.523 98.4403L350.43 93.9067C350.326 92.5397 350.465 91.017 350.69 89.6154C351.072 87.2967 351.679 85.3414 351.8 84.9434C351.818 84.8915 351.818 84.8742 351.818 84.8742H352.078L352.928 84.8569L358.687 84.7012C358.461 85.5491 358.34 86.345 358.305 87.0891C358.114 92.0379 361.774 94.3912 361.774 94.3912Z" fill="#FFB27D"/>
<path d="M383.716 87.6944C383.716 87.6944 381.791 94.1314 380.872 94.6332C379.952 95.1523 367.88 101.33 364.22 101.831C364.22 101.831 362.936 101.97 362.485 102.178C362.416 102.212 362.364 102.247 362.347 102.281C362.347 102.281 362.347 102.299 362.329 102.316C362.069 102.991 358.825 114.013 358.756 116.938C358.704 118.979 367.706 132.078 367.602 133.566C367.585 133.705 367.568 133.826 367.516 133.93C367.013 135.037 364.532 134.951 362.485 133.878C361.41 133.324 359.485 132.442 357.299 131.767C354.94 131.04 352.286 130.556 350.118 131.005C345.955 131.853 341.705 130.798 340.214 126.23C338.722 121.661 338.93 112.3 338.514 110.397C338.08 108.493 337.716 102.489 340.266 98.4919C340.266 98.4919 340.578 97.8516 340.058 96.5193C339.52 95.1869 335.635 81.2055 336.224 77.0181C336.224 77.0181 336.38 72.9344 338.965 68.2451C338.965 68.2451 340.561 68.6085 341.914 69.8197C343.267 71.031 344.151 72.2769 344.377 72.3461C344.377 72.3461 342.954 75.5299 343.024 75.8068C343.11 76.0664 347.95 89.7881 348.21 90.5841C348.21 90.5841 350.118 90.4111 350.534 90.8264C350.534 90.8264 350.378 94.7543 359.328 91.5012C359.328 91.5012 359.884 91.4147 359.901 91.8819C359.901 91.8819 371.436 90.0477 375.46 89.7535C375.46 89.7535 375.668 89.7362 376.917 87.4175C378.391 84.6663 378.998 84.0087 378.998 84.0087C378.998 84.0087 382.623 84.0087 383.716 87.6944Z" fill="#EE9849"/>
<path d="M367.602 133.583C367.585 133.722 367.568 133.843 367.516 133.947C367.013 135.054 364.532 134.967 362.485 133.895C361.41 133.341 359.485 132.458 357.299 131.784C355.877 128.254 353.899 122.872 353.154 118.512C352.009 111.85 361.011 103.492 362.329 102.315C362.069 102.99 358.826 114.013 358.756 116.937C358.704 118.979 367.706 132.095 367.602 133.583Z" fill="#E58638"/>
<path d="M358.322 87.1056C358.322 87.1056 353.518 89.5455 350.69 89.632C351.072 87.3133 351.679 85.358 351.801 84.96C351.905 84.9254 351.991 84.9081 352.078 84.8908C352.286 84.8562 352.477 84.8389 352.668 84.8389C352.755 84.8389 352.841 84.8562 352.928 84.8562C355.322 85.133 358.322 87.1056 358.322 87.1056Z" fill="#ED975D"/>
<path d="M349.511 86.12C349.511 86.12 357.698 90.2555 360.195 85.1336C362.693 80.0118 365.451 77.0874 360.317 74.2323C355.2 71.3772 353.223 72.8307 351.974 74.3362C350.725 75.8416 347.447 84.9087 349.511 86.12Z" fill="#FFB27D"/>
<path d="M355.929 74.18C355.929 74.18 358.409 76.6371 357.681 78.9731C356.952 81.3091 358.132 85.9637 361.323 86.5001C364.515 87.0366 368.314 76.2564 364.116 74.18C359.901 72.1035 353.032 71.0826 350.951 73.6782C348.869 76.291 349.667 79.5787 349.667 79.5787C349.667 79.5787 352.564 74.0242 355.929 74.18Z" fill="#AA443E"/>
<path d="M352.668 84.4242C352.668 84.4242 352.338 84.9779 350.864 84.4069C350.864 84.4069 349.632 83.9224 349.893 83.2822C349.893 83.2649 351.263 83.1956 352.668 84.4242Z" fill="white"/>
<path d="M27.8568 144.486C27.8568 144.486 32.6095 146.338 36.8765 141.562C36.7724 141.718 33.8757 146.147 31.3953 146.961C31.7075 147.186 32.0198 147.411 32.3146 147.653C33.5808 148.674 34.691 149.798 35.9398 150.473C39.0273 152.134 41.6812 152.896 43.9187 152.982C46.0349 152.031 47.2491 149.989 47.9429 148.224C48.2725 147.964 48.602 147.705 48.9142 147.462C48.7581 150.058 47.5786 151.771 46.6767 152.723C49.7468 151.944 51.7069 149.591 52.6609 146.649C52.7129 146.476 52.7649 146.286 52.817 146.113C52.8517 146.009 52.869 145.922 52.8864 145.819C53.0598 145.144 53.1812 144.452 53.2333 143.725C53.4761 141.268 53.1292 138.638 52.2272 136.284C52.1925 136.181 52.1405 136.077 52.1058 135.973V135.956C51.7589 135.073 51.3253 134.243 50.8222 133.481C49.9029 132.097 49.7468 130.263 49.955 128.411C50.406 124.362 52.6435 120.192 52.6435 120.192C52.6435 120.192 52.2966 119.638 51.5681 118.981C50.1458 117.7 47.2491 115.987 42.4444 116.87C35.1246 118.219 32.5922 123.41 33.4247 129.83C34.2747 136.25 34.0839 139.953 29.1924 141.631C29.1751 141.631 29.1578 141.648 29.1404 141.648C27.9089 142.081 27.4752 143.413 27.8568 144.486Z" fill="#163560"/>
<path d="M43.7798 161.063C43.7798 161.063 49.7466 167.794 52.2444 168.694C54.8115 169.611 64.0393 168.279 64.0393 168.279C64.0393 168.279 62.9812 160.181 63.2067 157.672C63.4322 155.163 69.0001 146.009 69.4511 142.237C69.9021 138.447 65.6004 134.606 65.6004 134.606C65.6004 134.606 62.6863 134.606 62.5129 134.26C62.4262 134.104 62.3568 133.948 62.2874 133.775C61.5415 131.976 61.8191 130.055 61.8191 130.055L56.2512 129.83C56.3032 130.505 56.3379 131.076 56.3726 131.578C56.4767 133.291 55.4186 134.848 53.7881 135.367C52.2617 135.852 50.9608 136.44 50.8567 136.786C50.3711 138.603 54.9329 151.079 53.3718 152.308C46.7979 157.377 43.7798 161.063 43.7798 161.063Z" fill="#D9935C"/>
<path d="M56.251 129.812C56.251 129.812 56.6152 132.564 62.2699 133.775C61.524 131.975 61.8015 130.055 61.8015 130.055L56.251 129.812Z" fill="#CC7C46"/>
<path d="M63.6234 129.381C63.6234 129.381 58.1596 133.326 55.7486 129.9C53.3376 126.473 51.0133 124.657 54.3956 121.992C57.778 119.327 59.3911 120.158 60.4665 121.109C61.5593 122.061 64.9764 128.256 63.6234 129.381Z" fill="#D9935C"/>
<path d="M60.8999 128.376C60.8999 128.376 61.2642 128.74 62.3049 128.03C62.3049 128.03 63.1722 127.425 62.86 126.975C62.86 126.975 61.7845 127.165 60.8999 128.376Z" fill="white"/>
<path d="M61.5065 228.184C60.1015 227.907 57.3609 226.073 57.3609 226.073C57.3609 226.073 56.1641 204.72 57.7946 199.391C58.7486 196.276 60.726 186.171 62.2003 178.332C63.2411 172.743 64.0389 168.296 64.0389 168.296H42.4785C42.4785 168.296 44.1263 185.998 47.2832 194.632C48.0638 196.76 48.5668 198.422 48.4454 198.958C46.4159 207.904 54.551 226.09 54.551 226.09C53.9092 228.011 54.1867 229.568 54.1867 229.568H65.7735C65.5653 228.668 62.9115 228.461 61.5065 228.184Z" fill="#D9935C"/>
<path d="M59.4083 120.399C59.4083 120.399 61.5071 117.112 58.0727 115.381C52.2793 112.492 52.0538 120.261 50.3193 120.797C48.5847 121.334 46.5553 124.812 48.6541 127.234C50.7529 129.657 53.4588 129.086 54.0138 130.297C54.5689 131.526 56.4422 130.937 56.3034 130.487C56.2514 130.314 55.8004 130.072 55.5402 129.432C55.4015 129.086 55.7831 128.688 55.6443 128.671C54.2567 128.619 53.4241 126.508 54.9158 126.663C56.4075 126.819 57.032 125.4 56.9626 124.812C56.8932 124.224 55.4709 122.874 56.8065 122.112C58.1247 121.368 58.6624 121.42 59.4083 120.399Z" fill="#163560"/>
<path d="M45.0807 168.262C45.0807 168.262 43.7624 186.067 47.457 195.082L62.1833 178.315C63.224 172.726 64.0219 168.279 64.0219 168.279H45.0807V168.262Z" fill="#CC7B44"/>
<path d="M45.8439 159.99C42.7044 159.54 41.0045 162.101 40.1373 165.786C39.4781 168.572 39.3047 172.016 39.3394 175.252C39.4088 180.91 40.1373 185.98 40.1373 185.98C40.1373 185.98 37.1885 182.606 32.7134 181.861C21.5082 179.993 17.5535 177.743 17.0505 177.414C16.9117 177.034 16.7209 176.48 16.4954 175.684C15.9924 173.988 15.6975 173.262 13.46 173.089C11.2397 172.933 8.95014 170.389 8.49915 171.185C8.04817 171.964 10.6326 175.459 11.5346 176.359C12.4366 177.259 15.1425 179.387 15.1425 179.387C24.9773 188.593 42.8779 196.137 42.8779 196.137C46.9367 194.199 61.9752 166.877 61.9752 166.877C61.9752 166.877 55.5227 161.374 45.8439 159.99Z" fill="#D9935C"/>
<path d="M79.9279 110.571C80.084 109.879 80.0147 109.152 79.8932 108.823C79.7718 108.494 81.2982 106.591 80.6911 106.262C80.084 105.934 77.5516 107.439 77.1874 107.975C76.8231 108.512 77.7597 111.938 77.7597 111.938C77.7597 111.938 75.8344 124.535 75.1579 128.099C74.1866 133.204 65.6006 134.588 65.6006 134.588L69.7808 140.454C69.7808 140.454 78.4709 132.079 79.6331 129.155C80.5524 126.854 79.9279 111.644 79.9279 111.644C79.9279 111.644 79.7718 111.263 79.9279 110.571Z" fill="#D9935C"/>
<path d="M50.8567 136.769C50.8567 136.769 44.144 145.092 42.236 146.061C39.825 147.272 30.8921 147.774 30.8921 147.774C30.8921 147.774 28.8973 146.147 28.4117 146.182C27.926 146.217 25.9486 147.272 25.9313 147.809C25.9139 148.328 27.7525 148.085 27.926 148.276C28.0995 148.483 28.5504 148.829 29.0535 148.985C29.5738 149.141 30.3891 149.504 30.3891 149.504C30.3891 149.504 39.0271 151.563 43.7624 150.629C44.9939 150.387 54.3085 142.877 54.3085 142.877L55.1584 135.246L50.8567 136.769Z" fill="#D9935C"/>
<path d="M38.559 150.75C38.559 150.75 43.329 151.2 44.1096 150.888C44.8901 150.577 46.4339 149.418 47.9603 148.224C48.2898 147.964 48.6194 147.704 48.9316 147.462C50.458 146.268 51.7936 145.23 52.0711 145.299C52.0885 145.299 52.1058 145.317 52.1232 145.334C52.2793 145.455 52.4701 145.974 52.6609 146.649C53.1639 148.449 53.6496 151.459 53.5628 151.927C53.5628 151.944 53.5455 151.961 53.5455 151.961C53.3374 152.238 50.3366 154.695 49.0183 155.768C48.6541 156.062 48.4113 156.252 48.4113 156.252C48.4113 156.252 48.4459 156.27 48.498 156.304C48.55 156.339 48.6367 156.374 48.7235 156.426C48.949 156.547 49.2959 156.702 49.7295 156.91C50.7182 157.377 52.1926 158.052 53.8751 158.692C56.8758 159.852 60.5184 160.942 63.2069 160.751C63.3977 160.734 63.5885 160.717 63.7793 160.7C63.7793 160.7 63.3283 158.139 63.9701 157.031C64.6119 155.906 68.8962 145.593 69.087 144.832C69.2605 144.157 69.3125 143.223 69.3819 142.392C69.3993 142.167 69.4166 141.96 69.4339 141.752C69.486 141.129 69.5727 140.645 69.7288 140.489L69.7462 140.472L69.7635 140.454C69.7809 140.437 69.7809 140.437 69.7982 140.42C69.8155 140.402 69.8502 140.368 69.8676 140.35L69.8849 140.333C70.943 139.295 76.2681 133.983 78.5577 130.885C78.575 130.868 78.5924 130.851 78.6097 130.833C79.0954 130.159 79.4423 129.605 79.581 129.224C79.6331 129.068 79.6851 128.895 79.7198 128.722C80.2922 126.352 80.0841 122.805 80.0841 122.805C80.032 122.787 79.6678 122.666 78.2975 122.493C77.3088 122.355 76.1293 122.476 76.0773 122.476C76.0773 122.476 75.2273 127.528 74.9671 127.805C74.308 128.532 66.9882 134.242 65.67 134.64C65.6179 134.658 65.5833 134.658 65.5486 134.658H65.5312C65.3578 134.658 65.2017 134.658 65.0455 134.658C65.0282 134.658 65.0282 134.658 65.0109 134.658C64.3691 134.658 63.8834 134.658 63.8834 134.658C63.8834 134.658 65.7741 137.236 65.5486 139.33C65.3231 141.423 59.2522 141.354 57.587 140.074C56.7197 139.399 55.679 138.136 54.9158 137.097C54.4995 136.544 54.1526 136.042 53.9445 135.73C53.8057 135.523 53.719 135.402 53.719 135.402C53.7016 135.402 53.6843 135.419 53.6496 135.419C53.6322 135.419 53.6149 135.436 53.5975 135.436C53.5802 135.436 53.5629 135.454 53.5455 135.454C53.268 135.557 52.6782 135.748 52.1058 136.007C51.7936 136.146 51.4814 136.284 51.2212 136.44C51.0304 136.544 50.857 136.647 50.7355 136.769C49.3999 137.859 43.0515 145.559 42.2536 146.095C42.2363 146.113 42.2189 146.113 42.2016 146.113C41.6812 146.268 38.5243 147.012 38.5243 147.012C38.5243 147.047 38.2815 147.947 38.2642 148.847C38.2642 149.971 38.5417 150.715 38.559 150.75Z" fill="#C65447"/>
<path d="M39.3223 175.252C39.8947 174.646 43.0342 172.172 54.8118 173.764C54.8118 173.764 47.4053 165.302 40.1202 165.77C39.4784 168.573 39.2876 172.016 39.3223 175.252Z" fill="#CC7B44"/>
<path d="M48.4458 156.252C48.4458 156.252 50.8395 157.498 53.9096 158.675C55.6095 156.564 56.4767 153.016 56.2339 150.854C55.8696 147.41 52.6087 145.559 52.123 145.316C52.7301 145.801 53.7708 151.65 53.5627 151.961C53.3546 152.238 50.3538 154.695 49.0355 155.768C48.6886 156.062 48.4458 156.252 48.4458 156.252Z" fill="#C4453B"/>
<path d="M69.7807 140.455C70.1969 140.057 78.887 131.474 79.6329 129.155C79.6329 129.155 68.445 136.181 69.7807 140.455Z" fill="#C4453B"/>
<path d="M63.8311 161.357C63.8311 161.357 77.4646 173.349 80.8123 178.972C80.899 179.128 80.8123 179.491 80.8123 179.647C80.8123 179.647 77.2218 180.183 74.4118 178.592C71.6018 177 70.0234 177.328 68.1154 177.674C66.2074 178.003 63.7617 177.778 61.6629 175.65C59.5641 173.522 56.5286 174.491 54.9502 174.56C53.3718 174.629 51.4985 173.729 50.5965 172.691C49.6945 171.635 46.7631 170.666 45.5663 171.376C44.3695 172.085 42.1146 171.791 40.6922 170.666C39.2699 169.542 38.524 167.604 35.662 168.192C32.8174 168.798 31.3777 168.798 30.1115 167.898C28.8279 166.998 26.5904 165.475 24.6303 166.012C22.6876 166.548 19.7389 163.33 19.7389 163.33C19.7389 163.33 19.6002 162.724 19.7389 162.655C21.6816 161.72 36.5467 155.457 49.0701 156.443C49.0527 156.443 55.3838 160.959 63.8311 161.357Z" fill="#C65447"/>
<path d="M19.7217 162.638C19.7217 162.638 19.8604 162.793 20.1033 163.036C20.9185 163.832 22.8959 165.579 24.3876 165.372C24.457 165.354 24.5264 165.354 24.5958 165.32C26.5558 164.783 28.7934 166.306 30.0769 167.206C31.3605 168.106 32.7828 168.106 35.6275 167.5C36.2519 167.362 36.7896 167.362 37.2406 167.448C38.6803 167.708 39.3914 168.832 40.3281 169.698C40.4322 169.801 40.5362 169.888 40.6576 169.974C41.4208 170.58 42.4269 170.943 43.3635 171.047C44.1788 171.134 44.9767 171.03 45.5317 170.684C45.9133 170.459 46.4684 170.407 47.0928 170.459C48.3243 170.58 49.764 171.186 50.4405 171.861C50.4925 171.912 50.5272 171.947 50.5619 171.999C51.4639 173.054 53.3372 173.954 54.9156 173.868C56.0431 173.816 57.899 173.297 59.6509 173.781C60.3447 173.972 61.0386 174.335 61.6283 174.941C62.7211 176.048 63.8832 176.636 65.0454 176.913C66.1208 177.155 67.1615 177.138 68.0808 176.965C69.3297 176.74 70.4398 176.533 71.8448 176.844C72.5906 177.017 73.4059 177.328 74.3946 177.882C77.2045 179.474 80.795 178.938 80.795 178.938C77.933 173.556 63.8138 160.665 63.8138 160.665C55.3666 160.267 49.0355 155.751 49.0355 155.751C35.6275 154.695 19.7217 162.638 19.7217 162.638Z" fill="#F1A34F"/>
<path d="M65.0624 176.931C66.1378 177.173 67.1785 177.156 68.0978 176.983C69.3467 176.758 70.4568 176.55 71.8618 176.862C71.7751 176.758 66.5367 170.079 65.8776 170.511C65.2011 170.927 63.6227 176.083 65.0624 176.931Z" fill="#EE9849"/>
<path d="M50.4575 171.879C50.5096 171.931 50.5442 171.965 50.5789 172.017C51.4809 173.073 53.3542 173.973 54.9327 173.886C56.0601 173.834 57.9161 173.315 59.668 173.8C59.6333 173.713 56.9274 167.916 55.5571 167.726C54.3602 167.536 50.7697 170.062 50.4575 171.879Z" fill="#EE9849"/>
<path d="M20.103 163.036C20.9183 163.832 22.8956 165.58 24.3874 165.372C24.4567 165.355 24.5261 165.337 24.5955 165.32C24.7343 165.251 34.0314 161.306 34.4998 160.423C34.9681 159.61 22.5314 161.877 20.103 163.036Z" fill="#EE9849"/>
<path d="M30.0938 167.224C31.3773 168.124 32.7996 168.124 35.6443 167.518C36.2687 167.38 36.8064 167.38 37.2574 167.466C37.2574 167.466 42.7212 164.334 42.4784 163.348C42.2529 162.362 30.0938 166.549 30.0938 167.224Z" fill="#EE9849"/>
<path d="M40.3452 169.697C40.4493 169.801 40.5533 169.888 40.6748 169.974C41.438 170.58 42.444 170.943 43.3806 171.047C44.1959 171.134 44.9938 171.03 45.5488 170.684C45.9304 170.459 46.4855 170.407 47.1099 170.459C47.4568 170.147 50.3535 167.552 49.7985 166.912C49.2087 166.237 40.033 168.746 40.3452 169.697Z" fill="#EE9849"/>
<path d="M189.777 209.911C189.777 210.326 189.569 210.603 189.222 210.793C188.58 211.139 187.47 211.174 186.239 211.122C186.082 211.122 185.944 211.105 185.822 211.105C185.788 211.105 185.753 211.105 185.718 211.105C185.701 211.105 185.666 211.105 185.649 211.105C184.452 211.139 184.573 211.503 182.284 211.693C179.665 211.918 178.711 211.122 178.555 210.759C178.433 210.447 179.543 210.101 180.792 209.703C180.844 209.686 180.914 209.669 180.983 209.651C181.156 209.599 181.312 209.547 181.486 209.496C182.978 208.994 184.452 208.423 184.816 206.917C185.198 205.325 184.036 200.861 184.036 200.861L188.181 200.411C188.181 200.411 188.58 205.066 188.84 206.519C188.979 207.298 189.326 207.904 189.534 208.578C189.552 208.63 189.569 208.665 189.569 208.717C189.673 209.115 189.777 209.513 189.777 209.911Z" fill="#E49963"/>
<path d="M189.777 209.91C189.777 210.326 189.569 210.603 189.222 210.793C188.545 211.104 187.435 211.156 186.256 211.122C186.1 211.122 185.961 211.122 185.839 211.122C185.805 211.122 185.77 211.122 185.735 211.122C185.718 211.122 185.683 211.122 185.666 211.122C184.469 211.156 184.591 211.52 182.301 211.71C179.682 211.935 178.728 211.139 178.572 210.776C178.45 210.464 179.56 210.118 180.809 209.72C181.156 209.859 182.839 210.43 184.816 210.066C186.551 209.737 188.285 208.872 189.534 208.578C189.551 208.63 189.569 208.665 189.569 208.717C189.673 209.115 189.777 209.513 189.777 209.91Z" fill="#9E3A38"/>
<path d="M162.926 204.65C162.701 205.792 161.053 205.602 159.232 205.152C157.393 204.702 157.844 205.238 155.225 204.944C152.623 204.65 151.825 203.681 151.756 203.3C151.686 202.954 152.97 202.833 154.357 202.677C154.531 202.66 154.704 202.643 154.878 202.608C156.439 202.418 157.584 201.414 158.989 200.584C160.324 199.805 162.336 196.621 162.336 196.621L165.91 196.898C165.91 196.898 164.036 199.736 163.308 200.982C162.874 201.708 162.909 202.66 162.961 203.404C162.978 203.837 163.013 204.252 162.926 204.65Z" fill="#E49963"/>
<path d="M159.232 205.152C157.393 204.702 157.844 205.239 155.225 204.945C152.623 204.65 151.825 203.681 151.756 203.301C151.686 202.955 152.97 202.833 154.357 202.678L154.375 202.712C154.375 202.712 155.936 203.82 158.104 203.872C159.873 203.906 161.747 203.404 162.961 203.422C162.995 203.82 163.013 204.235 162.926 204.633C162.701 205.792 161.053 205.602 159.232 205.152Z" fill="#9E3A38"/>
<path d="M170.87 152.307C170.87 152.307 169.535 149.919 168.598 149.832C167.662 149.746 164.557 148.915 164.349 149.33C164.14 149.763 164.956 151.961 165.597 152.514C166.239 153.068 170.194 153.951 170.194 153.951L170.87 152.307Z" fill="#E49963"/>
<path d="M176.612 181.862L184.313 202.539C184.313 202.539 185.493 202.661 186.637 202.332C187.678 202.038 188.875 201.242 188.875 201.242C188.875 201.242 186.967 181.394 183.463 177.259C179.959 173.123 176.612 181.862 176.612 181.862Z" fill="#9E3A38"/>
<path d="M207.07 173.504C207.07 173.504 184.938 166.046 180.011 167.621C175.085 169.213 160.255 198.612 160.255 198.612C160.255 198.612 160.584 199.061 161.504 199.39C162.354 199.702 164.4 199.684 164.4 199.684C164.4 199.684 177.774 188.247 179.37 184.924C180.965 181.602 181.59 178.418 183.186 178.73C184.781 179.041 203.723 186.516 208.024 182.069C212.326 177.622 211.199 171.843 211.199 171.843L207.07 173.504Z" fill="#B74B42"/>
<path d="M193.558 138.775C193.212 138.049 192.813 136.751 192.622 134.449C192.656 134.674 193.055 137.581 194.166 139.225C198.762 142.236 207.591 152.307 207.417 154.21C207.417 154.21 210.522 148.95 210.574 148.915C210.574 148.915 216.298 141.648 209.516 137.478C206.065 135.367 206.082 132.65 206.221 130.279C206.359 127.926 205.284 117.769 198.363 120.416C198.363 120.416 197.253 119.932 196.75 120.001C196.75 120.001 197.149 120.07 197.357 120.295C196.559 120.243 195.414 120.312 194.46 120.849C191.928 122.302 189.656 135.194 193.558 138.775Z" fill="#163560"/>
<path d="M194.425 139.38C194.408 139.398 196.646 140.557 198.328 140.09C199.924 139.657 200.947 137.598 200.93 137.598C200.253 137.46 200.063 136.543 200.08 132.58L199.768 132.632L194.651 133.636C194.651 133.636 194.772 135.245 194.772 136.75C194.807 138.048 194.72 139.242 194.425 139.38Z" fill="#E49963"/>
<path d="M194.668 133.654C194.668 133.654 194.79 135.263 194.79 136.769C197.652 136.682 199.161 134.087 199.785 132.65L194.668 133.654Z" fill="#D68D5D"/>
<path d="M200.323 132.096C200.323 132.096 201.815 129.726 202.179 127.719C202.439 126.282 201.693 120.935 196.316 121.697C196.316 121.697 194.755 121.853 193.281 122.839C192.119 123.635 190.419 125.331 192.309 130.003L192.795 131.577L200.323 132.096Z" fill="#163560"/>
<path d="M193.714 135.089C193.714 135.089 200.479 135.193 200.479 130.988C200.479 126.784 201.364 123.963 197.045 123.721C192.726 123.479 191.876 125.071 191.546 126.472C191.199 127.891 191.962 134.951 193.714 135.089Z" fill="#E49963"/>
<path d="M193.975 123.617C193.975 123.617 195.831 128.549 198.675 129.276C201.52 130.002 202.751 129.241 202.751 129.241C202.751 129.241 200.566 127.511 200.115 124.5C200.115 124.5 195.362 121.264 193.975 123.617Z" fill="#163560"/>
<path d="M194.426 124.016C194.426 124.016 193.038 125.123 192.708 126.196C192.379 127.269 192.223 129.466 191.581 129.397C191.581 129.397 190.176 126.04 191.754 124.154C193.42 122.129 194.426 124.016 194.426 124.016Z" fill="#163560"/>
<path d="M209.498 157.55C210.158 154.764 207.903 149.331 205.526 144.849C203.375 140.783 201.138 137.478 200.947 137.599C195.275 140.956 194.755 138.17 194.755 138.17C194.755 138.17 189.603 138.845 188.146 141.354C186.134 144.815 183.931 155.214 181.763 155.058C180.774 154.989 170.801 151.252 170.801 151.252C170.801 151.252 169.135 152.809 169.465 154.712C169.465 154.712 174.391 158 178.554 160.094C180.757 161.201 182.752 161.98 183.688 161.755C185.579 161.305 188.545 156.927 190.158 154.332C190.158 154.332 190.158 154.314 190.176 154.314C192.222 165.856 189.447 168.486 190.852 169.697C192.344 170.978 194.46 169.092 199.126 171.099C202.196 172.431 206.446 174.335 209.308 174.681C210.817 174.854 211.927 174.594 212.291 173.591C213.314 170.684 208.232 162.88 209.498 157.55Z" fill="#699DEE"/>
<path d="M195.223 132.545C195.223 132.545 195.102 133.082 193.766 132.995C193.766 132.995 192.639 132.926 192.674 132.338C192.674 132.338 193.766 131.922 195.223 132.545Z" fill="white"/>
<path d="M212.257 173.607C211.892 174.611 210.765 174.87 209.273 174.697C207.296 173.832 198.744 170.527 198.831 168.295C198.97 164.972 200.479 164.869 199.421 160.785C198.571 157.497 206.481 151.389 207.729 150.057C210.106 154.538 210.158 154.763 209.499 157.549C208.232 162.879 213.315 170.683 212.257 173.607Z" fill="#3B76CA"/>
<path d="M190.141 154.349C188.545 156.927 185.579 161.322 183.671 161.772C182.735 161.997 180.74 161.218 178.537 160.111C180.15 160.526 181.711 160.509 183.22 160.37C184.868 160.215 185.337 158.207 187.938 155.179C189.656 153.224 190.054 153.708 190.141 154.349Z" fill="#3B76CA"/>
<path d="M191.269 156.529C191.269 155.715 191.858 155.179 192.639 155.127C193.437 155.058 194.113 155.733 194.113 156.511C194.113 157.307 193.437 157.947 192.622 157.896C191.824 157.844 191.269 157.307 191.269 156.529Z" fill="#FF9933"/>
<path d="M191.338 156.529C191.338 155.768 191.893 155.248 192.639 155.197C193.402 155.127 194.044 155.768 194.026 156.512C194.026 157.256 193.385 157.879 192.604 157.827C191.858 157.775 191.338 157.273 191.338 156.529Z" fill="#FFBD7B"/>
<path d="M192.691 156.338L192.465 155.473C192.448 155.403 192.5 155.352 192.569 155.352C192.656 155.352 192.76 155.352 192.882 155.369C193.02 155.386 193.142 155.421 193.211 155.455C193.281 155.473 193.298 155.559 193.263 155.611L192.76 156.355C192.743 156.372 192.708 156.372 192.691 156.338Z" fill="#F1A34F"/>
<path d="M192.5 156.546L191.685 156.892C191.615 156.926 191.546 156.874 191.546 156.822C191.529 156.736 191.511 156.632 191.511 156.511C191.511 156.372 191.529 156.251 191.546 156.165C191.563 156.096 191.633 156.061 191.685 156.096L192.5 156.476C192.535 156.494 192.535 156.528 192.5 156.546Z" fill="#F1A34F"/>
<path d="M192.552 156.407L191.737 156.026C191.685 155.991 191.65 155.922 191.702 155.87C191.754 155.801 191.823 155.715 191.91 155.645C192.014 155.559 192.118 155.49 192.188 155.438C192.24 155.403 192.309 155.438 192.344 155.49L192.621 156.355C192.621 156.389 192.587 156.424 192.552 156.407Z" fill="#F1A34F"/>
<path d="M192.639 156.65L192.396 157.497C192.378 157.567 192.309 157.584 192.24 157.567C192.17 157.532 192.066 157.463 191.98 157.394C191.875 157.307 191.789 157.221 191.737 157.151C191.702 157.099 191.702 157.03 191.771 156.996L192.587 156.598C192.604 156.598 192.639 156.615 192.639 156.65Z" fill="#F1A34F"/>
<path d="M192.83 156.39L193.385 155.681C193.419 155.629 193.506 155.629 193.541 155.681C193.593 155.75 193.662 155.836 193.714 155.94C193.784 156.061 193.818 156.165 193.853 156.252C193.87 156.321 193.836 156.373 193.766 156.39L192.864 156.459C192.83 156.442 192.812 156.407 192.83 156.39Z" fill="#F1A34F"/>
<path d="M192.864 156.528L193.766 156.545C193.836 156.545 193.888 156.614 193.87 156.666C193.853 156.753 193.818 156.857 193.766 156.961C193.714 157.082 193.645 157.185 193.593 157.255C193.558 157.307 193.471 157.307 193.437 157.255L192.847 156.563C192.812 156.563 192.83 156.511 192.864 156.528Z" fill="#F1A34F"/>
<path d="M192.778 156.649L193.264 157.393C193.298 157.445 193.281 157.532 193.211 157.549C193.142 157.583 193.021 157.601 192.917 157.635C192.778 157.653 192.656 157.67 192.57 157.653C192.5 157.653 192.466 157.583 192.483 157.532L192.726 156.666C192.726 156.615 192.76 156.615 192.778 156.649Z" fill="#F1A34F"/>
<path d="M196.541 165.059H193.003L192.673 156.667H196.819L196.541 165.059Z" fill="#CEEFC7"/>
<path d="M193.783 163.52L193.541 163.451L195.553 157.031C195.57 156.979 195.605 156.806 195.726 156.616C195.865 156.408 196.108 156.131 196.559 155.975C197.374 155.699 198.657 155.353 198.657 155.353L198.727 155.595C198.709 155.595 197.443 155.958 196.628 156.218C196.316 156.322 196.09 156.495 195.934 156.737C195.813 156.927 195.778 157.083 195.778 157.083V157.1L193.783 163.52Z" fill="#F1A34F"/>
<path d="M194.044 163.208L194.304 163.225L194.911 156.529C194.911 156.477 194.946 156.304 194.911 156.079C194.877 155.836 194.738 155.473 194.374 155.162C193.732 154.608 192.674 153.777 192.674 153.777L192.518 153.985C192.535 153.985 193.576 154.816 194.217 155.369C194.46 155.577 194.616 155.836 194.651 156.113C194.686 156.338 194.651 156.494 194.651 156.494V156.511L194.044 163.208Z" fill="#82B378"/>
<path d="M195.865 162.048C196.368 161.65 196.542 161.01 196.16 160.457C196.125 160.405 196.073 160.353 196.039 160.301L194.408 161.979C194.807 162.325 195.432 162.395 195.865 162.048Z" fill="#82B378"/>
<path d="M195.848 162.014C196.351 161.616 196.507 161.01 196.143 160.457C196.108 160.405 196.056 160.353 196.021 160.301L194.443 161.945C194.824 162.308 195.414 162.36 195.848 162.014Z" fill="#D7F2D1"/>
<path d="M195.275 161.235L195.83 161.737C195.865 161.772 195.865 161.841 195.83 161.876C195.778 161.91 195.691 161.962 195.605 162.014C195.501 162.066 195.397 162.1 195.327 162.118C195.275 162.135 195.223 162.083 195.223 162.031V161.27C195.223 161.235 195.24 161.218 195.275 161.235Z" fill="#A8D29F"/>
<path d="M195.31 161.045L195.917 160.422C195.952 160.456 195.987 160.508 196.021 160.56C196.091 160.664 196.125 160.751 196.16 160.82C196.177 160.872 196.143 160.924 196.091 160.941L195.31 161.045C195.327 161.045 195.327 161.045 195.31 161.045Z" fill="#A8D29F"/>
<path d="M195.327 161.114L196.073 160.993C196.125 160.993 196.177 161.028 196.177 161.08C196.177 161.149 196.16 161.235 196.143 161.339C196.108 161.46 196.073 161.547 196.038 161.616C196.021 161.668 195.952 161.685 195.9 161.651L195.31 161.166C195.293 161.166 195.31 161.132 195.327 161.114Z" fill="#A8D29F"/>
<path d="M194.529 161.858L195.136 161.235C195.154 161.235 195.154 161.253 195.154 161.27L195.102 162.014C195.102 162.066 195.05 162.1 194.98 162.083C194.911 162.066 194.824 162.031 194.737 161.979C194.651 161.945 194.581 161.91 194.529 161.858Z" fill="#A8D29F"/>
<path d="M193.437 160.283C193.974 160.647 194.633 160.612 195.05 160.076C195.084 160.024 195.136 159.972 195.154 159.92L193.055 158.882C192.829 159.366 192.968 159.972 193.437 160.283Z" fill="#82B378"/>
<path d="M193.454 160.266C193.975 160.612 194.616 160.577 195.015 160.075C195.05 160.023 195.102 159.972 195.119 159.92L193.073 158.916C192.865 159.366 192.986 159.954 193.454 160.266Z" fill="#D7F2D1"/>
<path d="M194.009 159.471L193.697 160.163C193.68 160.215 193.61 160.232 193.558 160.197C193.506 160.163 193.437 160.094 193.368 160.024C193.281 159.938 193.229 159.851 193.194 159.799C193.159 159.747 193.194 159.696 193.246 159.678L193.975 159.453C194.009 159.419 194.027 159.453 194.009 159.471Z" fill="#A8D29F"/>
<path d="M194.217 159.47L194.998 159.85C194.963 159.885 194.946 159.937 194.911 159.989C194.842 160.075 194.772 160.145 194.703 160.196C194.668 160.231 194.599 160.214 194.564 160.179L194.217 159.47Z" fill="#A8D29F"/>
<path d="M194.148 159.505L194.495 160.18C194.512 160.232 194.495 160.284 194.443 160.301C194.374 160.319 194.287 160.336 194.183 160.336C194.061 160.336 193.957 160.336 193.888 160.336C193.836 160.336 193.801 160.267 193.818 160.215L194.096 159.505C194.096 159.488 194.131 159.471 194.148 159.505Z" fill="#A8D29F"/>
<path d="M193.194 158.969L193.974 159.349C193.974 159.367 193.957 159.367 193.957 159.367L193.229 159.54C193.177 159.557 193.125 159.505 193.125 159.453C193.125 159.384 193.125 159.298 193.142 159.194C193.142 159.107 193.177 159.021 193.194 158.969Z" fill="#A8D29F"/>
<path d="M194.912 163.502C194.912 163.502 195.172 163.399 195.224 163.364C195.276 163.312 195.415 163.243 195.484 163.243C195.553 163.243 196.056 163.087 196.091 163.191L195.744 163.433C195.744 163.433 194.998 163.554 194.912 163.502Z" fill="#CADEFC"/>
<path d="M195.726 163.416C195.726 163.416 196.056 163.139 196.09 163.191C196.125 163.226 196.177 163.503 196.212 163.589C196.246 163.676 196.246 163.728 196.16 163.797C196.073 163.866 195.847 164.056 195.847 164.056L195.726 163.416Z" fill="#AFCDFB"/>
<path d="M194.911 163.502C194.911 163.502 195.189 163.485 195.397 163.468C195.605 163.433 195.709 163.381 195.744 163.433C195.778 163.485 195.848 163.883 195.883 163.969C195.917 164.056 195.848 164.108 195.64 164.125C195.432 164.143 195.085 164.229 195.085 164.125C195.067 164.021 194.842 163.502 194.911 163.502Z" fill="#E9F3FE"/>
<path d="M195.293 163.537C195.293 163.537 195.015 163.554 194.963 163.554C194.911 163.554 194.998 163.762 195.015 163.814C195.015 163.814 195.033 163.814 195.033 163.797C195.033 163.762 194.981 163.658 195.015 163.641C195.05 163.624 195.102 163.572 195.154 163.572C195.223 163.572 195.327 163.554 195.293 163.537Z" fill="white"/>
<path d="M195.536 164.091C195.536 164.091 195.657 164.073 195.727 164.056C195.796 164.056 195.848 164.021 195.831 163.987C195.813 163.952 195.744 163.641 195.727 163.606C195.709 163.554 195.657 163.641 195.657 163.675C195.657 163.727 195.588 163.814 195.588 163.9C195.571 163.987 195.467 164.056 195.484 164.073C195.484 164.108 195.536 164.091 195.536 164.091Z" fill="white"/>
<path d="M195.935 163.295C195.935 163.295 195.883 163.347 195.831 163.381C195.778 163.416 195.761 163.416 195.778 163.433C195.796 163.468 195.831 163.589 195.831 163.606C195.831 163.624 195.865 163.624 195.865 163.606C195.865 163.589 195.865 163.52 195.883 163.485C195.9 163.45 195.9 163.364 195.935 163.329C195.987 163.312 195.987 163.277 195.935 163.295Z" fill="#8FB2E5"/>
<path d="M193.333 163.156C193.333 163.156 193.593 163.208 193.662 163.208C193.731 163.208 193.888 163.225 193.94 163.26C193.992 163.295 194.495 163.45 194.477 163.554L194.061 163.572C194.078 163.554 193.385 163.26 193.333 163.156Z" fill="#CADEFC"/>
<path d="M194.061 163.537C194.061 163.537 194.477 163.502 194.495 163.554C194.512 163.606 194.39 163.865 194.373 163.952C194.356 164.056 194.321 164.09 194.217 164.09C194.113 164.09 193.801 164.142 193.801 164.142L194.061 163.537Z" fill="#AFCDFB"/>
<path d="M193.333 163.156C193.333 163.156 193.575 163.294 193.749 163.398C193.94 163.485 194.061 163.502 194.061 163.571C194.061 163.64 193.888 164.004 193.87 164.09C193.853 164.177 193.766 164.177 193.575 164.073C193.385 163.969 193.055 163.848 193.107 163.761C193.176 163.675 193.281 163.121 193.333 163.156Z" fill="#E9F3FE"/>
<path d="M193.645 163.398C193.645 163.398 193.402 163.26 193.367 163.225C193.315 163.191 193.281 163.416 193.263 163.468C193.263 163.468 193.281 163.485 193.298 163.468C193.315 163.433 193.333 163.329 193.385 163.329C193.419 163.329 193.489 163.329 193.541 163.346C193.558 163.398 193.662 163.433 193.645 163.398Z" fill="white"/>
<path d="M193.523 163.987C193.523 163.987 193.627 164.039 193.696 164.073C193.766 164.108 193.818 164.108 193.835 164.073C193.853 164.039 193.957 163.744 193.974 163.692C193.991 163.641 193.905 163.675 193.87 163.71C193.853 163.744 193.731 163.796 193.679 163.866C193.627 163.935 193.488 163.935 193.488 163.952C193.488 163.969 193.523 163.987 193.523 163.987Z" fill="white"/>
<path d="M194.304 163.554C194.304 163.554 194.235 163.571 194.183 163.571C194.131 163.571 194.113 163.554 194.096 163.588C194.079 163.623 194.044 163.744 194.044 163.761C194.044 163.779 194.061 163.796 194.061 163.779C194.079 163.761 194.113 163.709 194.148 163.692C194.183 163.658 194.235 163.606 194.287 163.606C194.339 163.606 194.356 163.571 194.304 163.554Z" fill="#8FB2E5"/>
<path d="M194.026 161.39C194.026 161.39 194.287 161.476 194.356 161.476C194.425 161.476 194.581 161.511 194.633 161.563C194.685 161.597 195.171 161.822 195.136 161.909L194.72 161.874C194.72 161.874 194.061 161.493 194.026 161.39Z" fill="#CADEFC"/>
<path d="M194.72 161.857C194.72 161.857 195.136 161.857 195.154 161.927C195.154 161.979 195.015 162.221 194.98 162.307C194.963 162.411 194.911 162.446 194.807 162.428C194.703 162.428 194.391 162.428 194.391 162.428L194.72 161.857Z" fill="#AFCDFB"/>
<path d="M194.026 161.39C194.026 161.39 194.252 161.563 194.425 161.667C194.599 161.771 194.72 161.806 194.72 161.875C194.703 161.944 194.512 162.273 194.477 162.377C194.443 162.463 194.356 162.463 194.183 162.325C194.009 162.204 193.697 162.048 193.749 161.961C193.801 161.892 193.974 161.356 194.026 161.39Z" fill="#E9F3FE"/>
<path d="M194.304 161.685C194.304 161.685 194.096 161.512 194.044 161.477C193.992 161.443 193.94 161.668 193.922 161.72C193.922 161.72 193.94 161.737 193.957 161.72C193.974 161.702 194.009 161.581 194.044 161.598C194.078 161.598 194.148 161.598 194.183 161.633C194.217 161.65 194.321 161.702 194.304 161.685Z" fill="white"/>
<path d="M194.131 162.238C194.131 162.238 194.235 162.29 194.287 162.341C194.339 162.393 194.408 162.393 194.426 162.359C194.443 162.324 194.582 162.047 194.599 161.995C194.616 161.961 194.53 161.978 194.495 162.013C194.46 162.047 194.356 162.082 194.287 162.134C194.217 162.186 194.096 162.186 194.079 162.203C194.079 162.22 194.131 162.238 194.131 162.238Z" fill="white"/>
<path d="M194.946 161.91C194.946 161.91 194.876 161.927 194.824 161.91C194.772 161.893 194.755 161.892 194.738 161.927C194.72 161.962 194.668 162.083 194.668 162.1C194.651 162.117 194.668 162.135 194.686 162.117C194.703 162.1 194.738 162.066 194.772 162.031C194.807 162.014 194.876 161.962 194.911 161.962C194.963 161.944 194.998 161.91 194.946 161.91Z" fill="#8FB2E5"/>
<path d="M194.633 161.321C194.39 161.564 193.992 161.339 193.853 161.304C193.697 161.269 193.471 161.062 193.471 161.062C193.471 161.062 193.922 160.906 194.269 160.941C194.581 161.01 194.633 161.321 194.633 161.321Z" fill="#A8D29F"/>
<path d="M194.633 161.322C194.633 161.322 194.391 161.01 193.471 161.079C193.471 161.079 193.922 160.924 194.269 160.958C194.581 161.01 194.633 161.322 194.633 161.322Z" fill="#82B378"/>
<path d="M196.246 159.436C196.42 160.076 195.639 160.491 195.449 160.699C195.258 160.907 194.703 161.08 194.703 161.08C194.703 161.08 194.893 160.214 195.292 159.695C195.691 159.176 196.229 159.418 196.246 159.436Z" fill="#A8D29F"/>
<path d="M196.246 159.436C196.229 159.436 195.501 159.505 194.703 161.08C194.703 161.08 194.893 160.214 195.292 159.695C195.691 159.176 196.229 159.418 196.246 159.436Z" fill="#82B378"/>
<path d="M195.102 164.004C194.876 164.212 194.547 163.969 194.426 163.935C194.304 163.9 194.113 163.71 194.113 163.71C194.113 163.71 194.512 163.606 194.807 163.675C195.102 163.727 195.102 164.004 195.102 164.004Z" fill="#A8D29F"/>
<path d="M195.102 164.004C195.102 164.004 194.929 163.71 194.113 163.71C194.113 163.71 194.512 163.606 194.807 163.675C195.102 163.727 195.102 164.004 195.102 164.004Z" fill="#82B378"/>
<path d="M194.234 163.121C194.234 163.121 194.495 163.017 194.547 162.982C194.599 162.93 194.737 162.861 194.807 162.861C194.876 162.861 195.379 162.705 195.414 162.809L195.067 163.051C195.067 163.051 194.321 163.173 194.234 163.121Z" fill="#CADEFC"/>
<path d="M195.05 163.034C195.05 163.034 195.379 162.757 195.414 162.809C195.449 162.844 195.501 163.121 195.536 163.207C195.588 163.294 195.57 163.346 195.483 163.415C195.397 163.484 195.171 163.674 195.171 163.674L195.05 163.034Z" fill="#AFCDFB"/>
<path d="M194.235 163.12C194.235 163.12 194.512 163.103 194.72 163.086C194.928 163.051 195.032 162.999 195.067 163.051C195.102 163.103 195.171 163.501 195.206 163.588C195.241 163.674 195.171 163.726 194.963 163.743C194.755 163.761 194.408 163.847 194.408 163.743C194.373 163.64 194.148 163.12 194.235 163.12Z" fill="#E9F3FE"/>
<path d="M194.616 163.155C194.616 163.155 194.338 163.173 194.286 163.173C194.234 163.173 194.321 163.38 194.338 163.432C194.338 163.432 194.356 163.432 194.356 163.415C194.356 163.38 194.304 163.276 194.338 163.259C194.373 163.242 194.425 163.19 194.477 163.19C194.547 163.19 194.651 163.173 194.616 163.155Z" fill="white"/>
<path d="M194.859 163.691C194.859 163.691 194.981 163.674 195.05 163.657C195.119 163.657 195.171 163.622 195.154 163.587C195.137 163.553 195.067 163.241 195.05 163.207C195.033 163.155 194.981 163.241 194.981 163.276C194.981 163.328 194.911 163.414 194.911 163.501C194.894 163.587 194.79 163.657 194.807 163.674C194.807 163.708 194.859 163.691 194.859 163.691Z" fill="white"/>
<path d="M195.258 162.913C195.258 162.913 195.206 162.965 195.154 163C195.102 163.034 195.084 163.034 195.102 163.051C195.119 163.086 195.154 163.207 195.154 163.224C195.154 163.242 195.188 163.242 195.188 163.224C195.188 163.207 195.188 163.138 195.206 163.103C195.223 163.069 195.223 162.982 195.258 162.948C195.293 162.913 195.293 162.896 195.258 162.913Z" fill="#8FB2E5"/>
<path d="M195.553 162.861C195.536 163.156 195.137 163.242 195.032 163.294C194.911 163.363 194.651 163.346 194.651 163.346C194.651 163.346 194.859 163 195.102 162.827C195.345 162.671 195.536 162.861 195.553 162.861Z" fill="#A8D29F"/>
<path d="M195.553 162.861C195.553 162.861 195.223 162.792 194.651 163.363C194.651 163.363 194.859 163.017 195.102 162.844C195.345 162.671 195.536 162.861 195.553 162.861Z" fill="#82B378"/>
<path d="M193.489 162.706C193.992 163.121 194.651 163.139 195.102 162.671C195.154 162.619 195.188 162.568 195.223 162.516L193.246 161.287C192.986 161.737 193.055 162.36 193.489 162.706Z" fill="#82B378"/>
<path d="M193.506 162.689C193.991 163.087 194.633 163.121 195.084 162.654C195.136 162.602 195.171 162.55 195.206 162.498L193.263 161.287C193.003 161.754 193.072 162.343 193.506 162.689Z" fill="#D7F2D1"/>
<path d="M194.148 161.962L193.766 162.62C193.732 162.672 193.68 162.672 193.628 162.637C193.576 162.585 193.506 162.516 193.454 162.447C193.385 162.36 193.333 162.256 193.298 162.204C193.281 162.153 193.298 162.101 193.35 162.083L194.096 161.928C194.148 161.91 194.165 161.945 194.148 161.962Z" fill="#A8D29F"/>
<path d="M194.356 161.979L195.085 162.429C195.05 162.464 195.016 162.516 194.981 162.551C194.894 162.637 194.825 162.689 194.755 162.741C194.703 162.775 194.651 162.758 194.634 162.706L194.356 161.979Z" fill="#A8D29F"/>
<path d="M194.269 161.997L194.547 162.706C194.564 162.758 194.53 162.81 194.478 162.827C194.408 162.845 194.321 162.845 194.217 162.845C194.096 162.845 193.992 162.827 193.922 162.81C193.87 162.793 193.836 162.741 193.87 162.689L194.217 162.014C194.235 161.979 194.269 161.979 194.269 161.997Z" fill="#A8D29F"/>
<path d="M193.385 161.374L194.131 161.841C194.131 161.859 194.113 161.859 194.096 161.859L193.35 161.962C193.298 161.962 193.246 161.928 193.246 161.876C193.246 161.807 193.263 161.72 193.298 161.616C193.315 161.512 193.35 161.426 193.385 161.374Z" fill="#A8D29F"/>
<path d="M198.068 160.699C198.068 160.699 196.628 159.591 195.275 159.851C193.922 160.11 193.263 161.045 193.315 161.46C193.367 161.875 194.079 163.069 195.119 163.173C196.16 163.277 199.091 162.533 199.091 162.533L198.068 160.699Z" fill="#E49963"/>
<path d="M200.947 137.599C200.947 137.599 206.463 137.945 208.371 140.592C211.06 144.33 215.726 159.609 214.459 163.104C214.459 163.104 209.863 164.056 205.787 163.814C203.688 163.693 197.669 163.035 197.669 163.035C197.669 163.035 197.27 161.132 197.825 160.214C198.398 159.297 207.591 157.809 208.007 157.394C208.423 156.979 202.699 149.14 202.699 147.86C202.717 146.597 200.947 137.599 200.947 137.599Z" fill="#699DEE"/>
<path d="M318.324 212.973C318.324 212.973 324.551 211.935 326.164 211.364C327.794 210.775 333.397 210.533 334.923 210.706C336.45 210.879 346.909 210.775 347.464 212.973L338.167 214.046C338.167 214.046 320.318 214.478 318.324 212.973Z" fill="#CADEFC"/>
<path d="M348.383 228.062C348.245 228.581 348.036 228.997 347.776 229.256H338.583C338.531 229.256 338.375 229.256 338.375 229.256L338.097 222.214L338.045 220.76L338.028 220.431L337.768 214.046L337.75 213.562C337.837 213.545 340.873 212.956 343.527 212.697C345.435 212.506 347.152 212.489 347.481 212.956C348.262 214.081 348.695 216.971 348.678 219.289C348.678 219.324 348.678 219.359 348.678 219.393C348.661 220.085 348.696 220.951 348.713 221.902C348.73 222.421 348.73 222.958 348.748 223.494C348.765 225.207 348.713 226.903 348.383 228.062Z" fill="#AFCDFB"/>
<path d="M338.566 229.256C338.514 229.256 338.358 229.256 338.358 229.256H321.897C320.735 229.031 320.006 228.633 320.041 227.941C320.128 225.674 316.589 212.8 318.341 212.956C318.341 212.956 324.932 213.648 329.772 213.682C333.865 213.717 336.623 212.938 337.751 213.544C337.941 213.648 338.098 213.803 338.184 214.011C338.497 214.703 338.705 217.42 338.895 220.223C338.913 220.396 338.913 220.586 338.93 220.759C338.982 221.555 339.034 222.351 339.086 223.113C339.208 224.809 339.346 226.279 339.503 226.989C339.745 228.062 339.572 229.256 338.566 229.256Z" fill="#D2E6F9"/>
<path d="M327.343 215.119C327.343 215.119 320.874 214.426 319.469 214.34C318.081 214.253 319.711 219.306 319.885 220.69C319.885 220.69 320.44 220.95 320.509 220.206C320.579 219.462 319.954 216.884 320.804 216.538C321.637 216.191 323.042 215.257 324.221 215.447C325.401 215.62 327.898 215.586 327.343 215.119Z" fill="white"/>
<path d="M330.917 228.65C330.917 228.65 333.675 228.511 335.392 228.667C337.092 228.823 338.358 228.165 338.237 227.283C338.098 226.4 337.387 219.011 337.283 217.904C337.161 216.797 335.531 218.337 335.461 219.444C335.409 220.569 333.536 222.645 332.981 224.514C332.426 226.383 329.755 227.836 329.789 228.373C329.824 228.892 330.917 228.65 330.917 228.65Z" fill="white"/>
<path d="M343.163 214.201C343.163 214.201 341.897 215.395 340.63 215.845C339.364 216.278 339 216.261 339.139 217.057C339.277 217.852 339.798 220.846 339.815 221.33C339.85 221.815 340.387 221.919 340.544 221.504C340.7 221.088 340.89 219.617 341.341 218.7C341.775 217.783 342.365 215.897 343.232 215.361C344.082 214.807 344.203 213.769 343.163 214.201Z" fill="#8FB2E5"/>
<path d="M357.472 229.256C357.889 229.118 358.288 228.945 358.687 228.737C359.172 228.477 359.641 228.149 360.092 227.751C360.092 227.733 360.092 227.681 360.092 227.612C360.092 227.578 360.092 227.543 360.092 227.508V227.491C360.092 227.457 360.092 227.422 360.074 227.37C360.074 227.335 360.074 227.301 360.057 227.266C360.057 227.232 360.04 227.18 360.04 227.128C360.022 227.041 360.022 226.955 360.005 226.868C360.005 226.834 359.987 226.799 359.987 226.764C359.987 226.73 359.97 226.678 359.953 226.626C359.953 226.591 359.935 226.539 359.935 226.505C359.935 226.47 359.918 226.418 359.901 226.384C359.883 226.28 359.849 226.193 359.831 226.09C359.814 226.003 359.797 225.934 359.762 225.847C359.641 225.415 359.467 224.93 359.242 224.446C359.12 224.169 358.964 223.892 358.791 223.615C358.773 223.581 358.739 223.529 358.721 223.494C358.669 223.407 358.6 223.304 358.53 223.217C358.444 223.079 358.34 222.94 358.236 222.819C358.201 222.767 358.149 222.715 358.097 222.646C358.062 222.611 358.027 222.56 357.993 222.525C357.958 222.49 357.923 222.438 357.889 222.404C357.871 222.369 357.837 222.352 357.819 222.335C357.785 222.3 357.75 222.265 357.733 222.231C357.681 222.179 357.629 222.127 357.594 222.075C357.542 222.023 357.472 221.954 357.42 221.902C357.351 221.85 357.282 221.781 357.23 221.729C357.16 221.677 357.091 221.608 357.021 221.556C356.952 221.504 356.9 221.452 356.831 221.4C356.813 221.383 356.796 221.366 356.779 221.366C356.727 221.331 356.674 221.279 356.605 221.245C356.588 221.227 356.57 221.227 356.553 221.21C356.484 221.158 356.432 221.123 356.362 221.089L356.345 221.071C356.293 221.037 356.224 220.985 356.154 220.95C355.894 220.795 355.599 220.639 355.304 220.5C354.645 220.189 353.899 219.947 353.049 219.774C352.945 219.756 352.859 219.739 352.754 219.722C352.65 219.704 352.546 219.687 352.46 219.67C352.373 219.653 352.269 219.635 352.182 219.618C352.061 219.601 351.939 219.583 351.8 219.566C351.714 219.549 351.627 219.549 351.54 219.531C351.471 219.531 351.402 219.514 351.332 219.514C351.28 219.514 351.245 219.497 351.193 219.497C350.985 219.48 350.794 219.462 350.586 219.445C350.482 219.445 350.378 219.428 350.291 219.428C350.066 219.41 349.858 219.393 349.632 219.393C349.528 219.393 349.441 219.376 349.355 219.376C349.147 219.376 348.938 219.358 348.73 219.358C348.522 219.358 348.297 219.358 348.089 219.358C347.915 219.358 347.742 219.358 347.586 219.358C347.568 219.358 347.568 219.358 347.551 219.358C347.412 219.358 347.256 219.358 347.117 219.376C347.083 219.376 347.048 219.376 347.013 219.376C346.874 219.376 346.736 219.393 346.579 219.393C346.371 219.393 346.146 219.41 345.938 219.428C345.782 219.428 345.643 219.445 345.487 219.462C345.452 219.462 345.435 219.462 345.4 219.462C345.279 219.462 345.157 219.48 345.036 219.497C344.88 219.514 344.724 219.514 344.585 219.531C344.515 219.531 344.446 219.549 344.377 219.549C344.255 219.566 344.116 219.566 343.995 219.583C343.856 219.601 343.718 219.618 343.596 219.618C343.492 219.635 343.388 219.635 343.284 219.653C342.989 219.687 342.694 219.722 342.399 219.756C342.295 219.774 342.174 219.791 342.07 219.808C341.879 219.843 341.688 219.86 341.497 219.895C341.324 219.912 341.168 219.947 341.012 219.964C340.838 219.999 340.682 220.016 340.509 220.051C340.457 220.051 340.405 220.068 340.352 220.085C340.318 220.085 340.266 220.102 340.231 220.102C340.162 220.12 340.092 220.12 340.04 220.137C339.936 220.154 339.832 220.172 339.728 220.189C339.451 220.241 339.208 220.293 338.965 220.327C338.895 220.345 338.843 220.345 338.774 220.362C338.722 220.379 338.67 220.379 338.618 220.397C338.514 220.414 338.41 220.431 338.323 220.466C338.288 220.466 338.254 220.483 338.219 220.483C338.184 220.5 338.132 220.5 338.098 220.518C337.924 220.552 337.768 220.587 337.629 220.622C337.404 220.673 337.23 220.708 337.074 220.743C337.04 220.76 336.987 220.76 336.953 220.777C336.866 220.795 336.797 220.812 336.762 220.829C336.745 220.829 336.727 220.829 336.727 220.847C336.71 220.847 336.71 220.847 336.71 220.847C336.71 220.847 337.109 221.279 337.751 221.919C337.889 222.04 338.028 222.179 338.167 222.317C338.462 222.612 338.809 222.923 339.173 223.234C340.63 224.515 342.486 225.916 344.012 226.314C345.036 226.591 346.614 227.387 348.47 228.149C349.563 228.599 350.76 229.031 351.974 229.343H357.472V229.256Z" fill="#A8D29F"/>
<path d="M360.091 227.751C360.022 227.63 355.79 220.812 336.623 220.76C336.623 220.76 346.042 218.32 353.014 219.756C359.883 221.158 360.091 227.56 360.091 227.751Z" fill="#82B378"/>
<path d="M349.84 203.023C349.84 203.023 355.564 205.861 357.247 206.103C358.929 206.346 362.416 207.592 363.491 208.682C364.567 209.772 375.286 216.33 374.332 218.389L364.584 216.313C364.584 216.313 350.447 205.429 349.84 203.023Z" fill="#CADEFC"/>
<path d="M374.333 218.39C374.229 219.774 370.17 224.896 369.354 227.076C368.955 228.131 368.452 228.858 367.776 229.256H362.885C361.601 229.083 360.057 228.893 358.687 228.737C357.612 228.616 356.64 228.495 355.964 228.426C355.461 228.374 355.131 228.339 355.079 228.322L357.351 225.276L358.704 223.477L364.255 216.054L364.532 215.673C364.689 215.69 374.437 217.023 374.333 218.39Z" fill="#AFCDFB"/>
<path d="M349.84 203.023C349.84 203.023 354.524 207.713 358.253 210.775C361.982 213.838 364.966 214.859 364.584 216.33C364.202 217.801 358.444 225.207 357.42 227.249C356.414 229.29 354.437 228.789 350.777 225.328C347.117 221.867 340.214 217.437 341.705 215.742C343.214 214.011 348.592 201.778 349.84 203.023Z" fill="#E9F3FE"/>
<path d="M355.513 210.342C355.513 210.342 350.916 205.74 349.893 204.805C348.869 203.871 346.944 208.82 346.215 209.996C346.215 209.996 346.476 210.55 347.013 210.014C347.534 209.477 348.678 207.089 349.563 207.349C350.43 207.608 352.113 207.764 352.893 208.647C353.674 209.512 355.634 211.052 355.513 210.342Z" fill="white"/>
<path d="M349.736 223.095C349.736 223.095 351.974 224.722 353.188 225.916C354.42 227.11 355.807 227.387 356.276 226.625C356.727 225.864 360.838 219.669 361.445 218.735C362.052 217.8 359.814 217.956 359.051 218.787C358.305 219.617 355.53 220.067 353.934 221.157C352.338 222.265 349.338 221.728 349.025 222.161C348.73 222.611 349.736 223.095 349.736 223.095Z" fill="white"/>
<path d="M369.979 217.559C369.979 217.559 368.244 217.697 366.978 217.247C365.712 216.798 365.452 216.555 365.053 217.265C364.671 217.974 363.162 220.622 362.884 221.02C362.607 221.418 362.954 221.833 363.335 221.608C363.717 221.383 364.792 220.362 365.729 219.93C366.648 219.48 368.296 218.407 369.302 218.511C370.326 218.614 371.072 217.888 369.979 217.559Z" fill="#8FB2E5"/>
</g>
<defs>
<clipPath id="clip0">
<rect width="431" height="230" fill="white"/>
</clipPath>
</defs>
</svg>
