<svg width="45" height="34" viewBox="0 0 45 34" fill="none" xmlns="http://www.w3.org/2000/svg">
<path d="M33.5283 20.2629H36.7374C36.8291 20.2629 37.043 20.2323 37.1347 20.2323C37.7459 20.1101 38.2655 19.5599 38.2655 18.7959C38.2655 18.0624 37.7459 17.5123 37.1347 17.3594C37.043 17.3289 36.8596 17.3289 36.7374 17.3289H33.5283V20.2629Z" fill="url(#paint0_linear)"/>
<path d="M36.3703 0C33.314 0 30.8079 2.47555 30.8079 5.56235V11.3386H38.6624C38.8458 11.3386 39.0597 11.3386 39.2126 11.3692C40.9852 11.4609 42.2993 12.3778 42.2993 13.967C42.2993 15.2201 41.413 16.2897 39.7627 16.5037V16.5648C41.5659 16.687 42.9412 17.6956 42.9412 19.2543C42.9412 20.9352 41.413 22.0355 39.3959 22.0355H30.7773V33.3435H38.9375C41.9937 33.3435 44.4998 30.868 44.4998 27.7812V0H36.3703Z" fill="url(#paint1_linear)"/>
<path d="M37.8682 14.3338C37.8682 13.6003 37.3486 13.1113 36.7374 13.0196C36.6762 13.0196 36.5234 12.989 36.4317 12.989H33.5283V15.6785H36.4317C36.5234 15.6785 36.7068 15.6785 36.7374 15.6479C37.3486 15.5563 37.8682 15.0673 37.8682 14.3338Z" fill="url(#paint2_linear)"/>
<path d="M5.62416 0C2.56793 0 0.0618125 2.47555 0.0618125 5.56235V19.2848C1.62049 20.0489 3.2403 20.5379 4.8601 20.5379C6.78553 20.5379 7.82465 19.3765 7.82465 17.7873V11.3081H12.5924V17.7567C12.5924 20.2628 11.0337 22.3105 5.74641 22.3105C2.53736 22.3105 0.03125 21.6076 0.03125 21.6076V33.313H8.1914C11.2476 33.313 13.7537 30.8374 13.7537 27.7506V0H5.62416Z" fill="url(#paint3_linear)"/>
<path d="M20.9969 0C17.9407 0 15.4346 2.47555 15.4346 5.56235V12.8362C16.8404 11.6443 19.2854 10.8802 23.228 11.0636C25.3368 11.1553 27.5984 11.7359 27.5984 11.7359V14.0892C26.4676 13.5086 25.1228 12.989 23.3808 12.8667C20.3857 12.6528 18.5825 14.1198 18.5825 16.687C18.5825 19.2848 20.3857 20.7518 23.3808 20.5073C25.1228 20.3851 26.4676 19.835 27.5984 19.2848V21.6381C27.5984 21.6381 25.3673 22.2188 23.228 22.3105C19.2854 22.4939 16.8404 21.7298 15.4346 20.5379V33.3741H23.5947C26.651 33.3741 29.1571 30.8985 29.1571 27.8117V0H20.9969Z" fill="url(#paint4_linear)"/>
<defs>
<linearGradient id="paint0_linear" x1="30.8032" y1="18.7995" x2="44.5371" y2="18.7995" gradientUnits="userSpaceOnUse">
<stop stop-color="#007940"/>
<stop offset="0.2285" stop-color="#00873F"/>
<stop offset="0.7433" stop-color="#40A737"/>
<stop offset="1" stop-color="#5CB531"/>
</linearGradient>
<linearGradient id="paint1_linear" x1="30.8024" y1="16.6584" x2="44.5374" y2="16.6584" gradientUnits="userSpaceOnUse">
<stop stop-color="#007940"/>
<stop offset="0.2285" stop-color="#00873F"/>
<stop offset="0.7433" stop-color="#40A737"/>
<stop offset="1" stop-color="#5CB531"/>
</linearGradient>
<linearGradient id="paint2_linear" x1="30.8028" y1="14.3299" x2="44.5373" y2="14.3299" gradientUnits="userSpaceOnUse">
<stop stop-color="#007940"/>
<stop offset="0.2285" stop-color="#00873F"/>
<stop offset="0.7433" stop-color="#40A737"/>
<stop offset="1" stop-color="#5CB531"/>
</linearGradient>
<linearGradient id="paint3_linear" x1="0.0553408" y1="16.6584" x2="14.0019" y2="16.6584" gradientUnits="userSpaceOnUse">
<stop stop-color="#1F286F"/>
<stop offset="0.4751" stop-color="#004E94"/>
<stop offset="0.8261" stop-color="#0066B1"/>
<stop offset="1" stop-color="#006FBC"/>
</linearGradient>
<linearGradient id="paint4_linear" x1="15.3555" y1="16.6584" x2="28.9009" y2="16.6584" gradientUnits="userSpaceOnUse">
<stop stop-color="#6C2C2F"/>
<stop offset="0.1735" stop-color="#882730"/>
<stop offset="0.5731" stop-color="#BE1833"/>
<stop offset="0.8585" stop-color="#DC0436"/>
<stop offset="1" stop-color="#E60039"/>
</linearGradient>
</defs>
</svg>
