<svg width="387" height="302" viewBox="0 0 387 302" fill="none" xmlns="http://www.w3.org/2000/svg">
<path d="M11.5271 299.622C10.3635 297.883 6.85238 293.38 2.17767 293.979C-2.92572 294.636 7.81181 297.805 11.078 299.641C10.3431 299.641 9.73068 299.603 9.26117 299.448C7.07692 298.714 3.30041 300.125 2.11643 300.627H22.9995C22.8566 300.163 22.4687 299.39 21.5093 298.81C21.1623 298.617 20.4682 298.578 19.5904 298.656C20.8357 297.264 21.693 292.838 18.2431 293.979C15.7119 294.81 15.7323 297.515 15.9772 299.12C15.4465 299.197 14.8953 299.274 14.3646 299.351C13.3235 294.327 9.64903 279.619 2.19808 279.232C-5.35493 278.826 8.60794 294.481 13.2622 299.487C12.6294 299.545 12.0578 299.603 11.5271 299.622Z" fill="#6D89D0"/>
<path d="M208.007 0.677204C209.191 0.831817 210.008 1.87546 209.844 2.9964L167.629 284.682L167.548 285.281L158.382 284.045L200.699 1.72084C200.862 0.619224 201.924 -0.134515 203.088 0.0200977L205.537 0.348651L208.007 0.677204Z" fill="#2A4E96"/>
<path d="M209.844 2.97706L167.629 284.682L163.036 284.045L205.558 0.348633L208.028 0.677186C209.191 0.851126 210.008 1.87544 209.844 2.97706Z" fill="#3B6CBC"/>
<path d="M265.676 121.121L255.877 301.419H136.193L123.026 121.121H265.676Z" fill="#7DB6FD"/>
<path d="M265.676 121.121L255.877 301.419H163.567L150.4 121.121H265.676Z" fill="#5F8AD4"/>
<path d="M264.757 116.734H123.944C123.944 82.8349 150.666 54.8499 185.267 50.6367C185.307 50.714 185.328 50.772 185.369 50.8493C186.92 54.0962 190.35 56.3381 194.351 56.3381C198.433 56.3381 201.945 53.9802 203.435 50.6367C238.036 54.8499 264.757 82.8349 264.757 116.734Z" fill="#7DB6FD"/>
<path d="M264.757 116.734H149.788C149.788 88.5169 164.118 63.8948 185.389 50.8493C186.941 54.0962 190.37 56.3381 194.371 56.3381C198.454 56.3381 201.965 53.9802 203.455 50.6367C238.036 54.8499 264.757 82.8349 264.757 116.734Z" fill="#5F8AD4"/>
<path d="M268.881 122.667H119.821C119.76 122.667 119.719 122.629 119.719 122.571V116.831C119.719 116.773 119.76 116.734 119.821 116.734H268.881C268.942 116.734 268.983 116.773 268.983 116.831V122.571C268.983 122.629 268.942 122.667 268.881 122.667Z" fill="#FB7369"/>
<path opacity="0.2" d="M255.979 178.908L248.406 292.22H143.419L134.825 191.335C134.825 191.335 134.886 191.335 135.008 191.354C137.907 191.934 174.815 198.756 195.412 184.996C220.623 168.123 252.101 177.651 255.653 178.792C255.673 178.811 255.673 178.811 255.714 178.811C255.877 178.888 255.979 178.908 255.979 178.908Z" fill="#D9E9FE"/>
<path d="M153.074 284.644C156.434 284.644 159.158 282.065 159.158 278.884C159.158 275.704 156.434 273.125 153.074 273.125C149.715 273.125 146.991 275.704 146.991 278.884C146.991 282.065 149.715 284.644 153.074 284.644Z" fill="#2E49D3"/>
<path d="M160.199 261.741C160.199 258.011 163.404 254.977 167.343 254.977C171.283 254.977 174.488 258.011 174.488 261.741C174.488 265.471 171.283 268.506 167.343 268.506C163.404 268.486 160.199 265.471 160.199 261.741Z" fill="#2E49D3"/>
<path d="M185.634 252.89C188.362 252.89 190.574 250.796 190.574 248.213C190.574 245.63 188.362 243.536 185.634 243.536C182.906 243.536 180.694 245.63 180.694 248.213C180.694 250.796 182.906 252.89 185.634 252.89Z" fill="#2E49D3"/>
<path d="M144.46 248.213C144.46 244.483 147.665 241.448 151.605 241.448C155.544 241.448 158.749 244.483 158.749 248.213C158.749 251.943 155.544 254.977 151.605 254.977C147.665 254.977 144.46 251.943 144.46 248.213Z" fill="#2E49D3"/>
<path d="M163.036 233.273C163.036 231.012 164.955 229.195 167.343 229.195C169.732 229.195 171.651 231.012 171.651 233.273C171.651 235.534 169.732 237.351 167.343 237.351C164.975 237.351 163.036 235.534 163.036 233.273Z" fill="#2E49D3"/>
<path d="M235.423 233.273C235.423 231.012 237.342 229.195 239.73 229.195C242.118 229.195 244.037 231.012 244.037 233.273C244.037 235.534 242.118 237.351 239.73 237.351C237.342 237.351 235.423 235.534 235.423 233.273Z" fill="#2E49D3"/>
<path d="M198.434 251.923C198.434 248.193 201.639 245.159 205.578 245.159C209.518 245.159 212.723 248.193 212.723 251.923C212.723 255.654 209.518 258.688 205.578 258.688C201.618 258.688 198.434 255.654 198.434 251.923Z" fill="#2E49D3"/>
<path d="M232.585 254.977C232.585 251.247 235.79 248.213 239.73 248.213C243.67 248.213 246.875 251.247 246.875 254.977C246.875 258.707 243.67 261.742 239.73 261.742C235.79 261.742 232.585 258.707 232.585 254.977Z" fill="#2E49D3"/>
<path d="M168.609 281.01C168.609 277.28 171.814 274.246 175.754 274.246C179.694 274.246 182.899 277.28 182.899 281.01C182.899 284.74 179.694 287.774 175.754 287.774C171.814 287.774 168.609 284.74 168.609 281.01Z" fill="#2E49D3"/>
<path d="M185.001 266.766C185.001 263.036 188.206 260.002 192.146 260.002C196.086 260.002 199.291 263.036 199.291 266.766C199.291 270.496 196.086 273.531 192.146 273.531C188.206 273.531 185.001 270.496 185.001 266.766Z" fill="#2E49D3"/>
<path d="M199.271 281.01C199.271 277.28 202.475 274.246 206.415 274.246C210.355 274.246 213.56 277.28 213.56 281.01C213.56 284.74 210.355 287.774 206.415 287.774C202.475 287.774 199.271 284.74 199.271 281.01Z" fill="#2E49D3"/>
<path d="M214.601 265.452C214.601 261.722 217.806 258.688 221.746 258.688C225.686 258.688 228.891 261.722 228.891 265.452C228.891 269.182 225.686 272.216 221.746 272.216C217.786 272.197 214.601 269.182 214.601 265.452Z" fill="#2E49D3"/>
<path d="M216.683 239.458C216.683 236.81 218.949 234.684 221.725 234.684C224.522 234.684 226.767 236.829 226.767 239.458C226.767 242.106 224.501 244.231 221.725 244.231C218.949 244.251 216.683 242.106 216.683 239.458Z" fill="#2E49D3"/>
<path d="M228.237 281.01C228.237 277.28 231.442 274.246 235.382 274.246C239.322 274.246 242.527 277.28 242.527 281.01C242.527 284.74 239.322 287.774 235.382 287.774C231.442 287.774 228.237 284.74 228.237 281.01Z" fill="#2E49D3"/>
<path d="M255.632 178.792C252.162 178.386 222.746 178.946 212.376 184.203C202.516 189.209 172.835 211.106 134.988 191.354C137.887 191.934 174.795 198.756 195.392 184.996C220.603 168.123 252.08 177.651 255.632 178.792Z" fill="#2E49D3"/>
<path d="M115.963 186.02C116.126 185.537 118.188 180.493 126.578 182.618C126.578 182.618 122.352 181.903 121.087 183.392C121.087 183.392 124.537 182.097 126.598 183.43C128.64 184.764 128.762 188.9 128.374 190.137C127.987 191.373 125.455 194.987 123.904 194.91C123.312 194.891 122.699 194.659 122.169 194.408C122.373 195.084 122.536 195.819 122.679 196.611C123.924 204.013 118.474 209.309 115.902 207.801C114.248 206.835 112.799 209.598 112.799 209.598L97.3662 190.446C97.3866 190.465 99.7954 182.116 115.963 186.02Z" fill="#293EB7"/>
<path d="M93.5079 223.572C93.5079 223.572 83.8727 231.418 83.0357 231.148C71.1754 227.282 59.6418 217.986 59.6418 217.986L57.5596 221.716C57.5596 221.716 76.1972 241.835 82.4233 241.777C94.7123 241.642 105.858 231.283 108.206 229.872C110.512 228.461 100.306 224.983 93.5079 223.572Z" fill="#F48484"/>
<path d="M59.6215 217.967C59.6215 217.967 57.968 214.933 56.3349 214.836C54.7018 214.739 54.9876 216.73 50.8845 216.401C49.9046 216.324 48.3736 215.976 49.1902 217.58C50.0067 219.184 52.5992 221.272 54.2527 220.924C55.8858 220.557 57.9884 221.716 57.9884 221.716L59.6215 217.967Z" fill="#F48484"/>
<path d="M96.7539 230.162C98.8565 231.534 101.469 232.674 104.776 233.389C117.127 236.095 121.863 226.2 123.639 219.416C121.944 218.508 120.372 218.295 119.454 218.199C118.556 218.102 117.617 218.025 116.841 218.005C115.453 217 113.391 212.884 112.921 206.487L112.35 206.641L102.613 209.173C102.613 209.173 103.062 212.111 103.286 214.875C103.45 217.039 103.49 219.107 103.041 219.629C102.286 219.784 101.816 219.88 101.816 219.88C101.674 220.073 98.8565 224.461 96.7539 230.162Z" fill="#FC9490"/>
<path d="M102.612 209.154C102.612 209.154 103.061 212.091 103.286 214.855C108.798 214.333 111.37 209.366 112.37 206.622L102.612 209.154Z" fill="#F48484"/>
<path d="M100.959 211.898C100.959 211.898 114.064 211.222 113.472 203.491C112.901 195.78 114.207 190.485 105.817 190.601C97.4274 190.716 96.0189 193.77 95.5494 196.379C95.0799 198.988 97.5295 211.879 100.959 211.898Z" fill="#FC9490"/>
<path d="M95.631 192.069C97.4682 189.615 99.0401 190.021 99.9587 190.658C106.818 186.445 111.86 191.644 111.86 191.644C113.146 197.114 117.616 200.013 117.616 200.013C117.616 200.013 115.33 201.578 109.737 200.612C108.022 200.322 106.45 199.297 105.062 198.003C107.553 201.385 110.778 203.723 110.778 203.723C104.001 201.288 100.694 192.823 100.367 191.934C99.6116 192.668 98.1623 194.253 97.7948 195.722C97.2845 197.732 95.1207 200.863 93.855 200.824C93.8346 200.805 92.8547 195.761 95.631 192.069Z" fill="#293EB7"/>
<path d="M127.374 255.364C128.558 249.643 132.416 226.76 128.558 219.416C127.17 216.768 121.74 216.537 115.779 216.768C113.921 217.909 106.858 222.18 103.959 221.658C103.919 221.658 103.878 221.639 103.796 221.619C102.428 221.291 101.918 220.383 103.061 219.61C103.061 219.61 100.101 219.339 96.4473 219.996C94.3855 220.363 89.7925 225.427 89.7925 225.427C89.7925 225.427 91.9155 230.065 95.7532 229.582C95.0388 235.554 96.1003 238.202 102.653 252.001C108.185 263.674 101.898 274.169 101.898 274.169C101.898 274.169 134.457 298.965 134.641 286.344C134.743 276.797 125.863 262.689 127.374 255.364Z" fill="#FB7369"/>
<path d="M100.244 301.091C98.4684 300.898 96.8762 299.989 95.8963 298.578C95.733 298.346 95.5697 298.114 95.386 297.863C91.6707 292.548 90.2418 276.275 81.8927 258.939C79.8513 254.726 72.5637 253.953 70.5835 249.199C70.5835 249.199 65.6843 233.738 79.9534 233.274C94.202 232.81 118.147 276.295 118.515 280.856C118.882 285.282 127.946 304.048 100.244 301.091Z" fill="#293EB7"/>
<path d="M43.5764 300.743H63.8675C63.8675 300.743 64.6228 297.67 63.2959 295.602C62.1119 293.766 62.561 292.703 63.4388 291.176C62.5202 291.524 61.3362 291.853 60.0297 291.795C59.0091 291.737 57.9476 291.311 57.0085 290.79C56.1308 291.737 52.3951 295.737 51.2315 296.549C49.9046 297.419 43.9847 297.09 43.5764 300.743Z" fill="#9E332E"/>
<path d="M125.23 225.408C125.23 225.408 127.864 248.155 110.737 252.929C93.6099 257.702 88.7515 231.998 102.571 230.143C116.412 228.307 125.23 225.408 125.23 225.408Z" fill="#FF5549"/>
<path d="M70.1344 237.757C68.9096 246.435 64.1328 273.801 55.7224 287.156C53.0074 291.466 62.5609 293.882 62.6018 293.862C63.8878 293.553 66.0108 291.621 66.9907 290.77C73.8292 284.934 87.69 268.429 87.69 255.19C87.69 248.735 87.8125 236.404 82.852 233.273C79.8104 231.341 70.6039 234.298 70.1344 237.757Z" fill="#293EB7"/>
<path d="M112.35 300.743C112.35 300.743 111.595 299.757 110.288 297.863C108.737 295.621 107.001 291.215 104.899 285.571C102.694 279.638 100.081 272.352 96.8151 264.776C95.8149 262.438 94.7329 260.06 93.6102 257.702C91.5893 253.489 85.9959 254.069 83.9954 249.295C83.9954 249.295 76.2383 232.752 90.4869 232.307C104.736 231.843 131.845 276.546 133.396 280.875C135.111 285.591 143.44 305.285 112.35 300.743Z" fill="#3A4ACE"/>
<path d="M58.4783 300.743H78.7694C78.7694 300.743 79.5246 297.67 78.1978 295.602C77.0138 293.766 77.4629 292.703 78.3407 291.176C77.4221 291.524 76.2381 291.853 74.9316 291.795C73.9109 291.737 72.8494 291.311 71.9104 290.79C71.0326 291.737 67.2969 295.737 66.1334 296.549C64.8065 297.419 58.8865 297.09 58.4783 300.743Z" fill="#2C3A64"/>
<path d="M104.899 285.417C102.694 279.484 100.081 272.197 96.8149 264.621C97.6723 258.881 99.5095 253.837 102.592 251.827C102.612 251.808 110.104 273.802 104.899 285.417Z" fill="#273F76"/>
<path d="M81.9743 237.139C80.7495 245.816 79.0348 273.801 70.604 287.156C67.889 291.466 77.4425 293.882 77.4834 293.862C78.7694 293.553 80.8924 291.62 81.8723 290.77C88.7108 284.933 102.572 268.429 102.572 255.19C102.572 248.735 94.5695 236.926 89.609 233.795C86.5878 231.862 82.4643 233.679 81.9743 237.139Z" fill="#3A4ACE"/>
<path d="M123.638 219.417C123.638 219.417 94.8348 229.466 90.5071 229.254C87.7104 229.118 64.4594 221.388 64.4594 221.388L62.3772 225.118C62.3772 225.118 85.0158 238.898 91.2216 238.82C103.511 238.685 124.23 231.554 126.578 230.143C128.905 228.751 130.436 220.827 123.638 219.417Z" fill="#FC9490"/>
<path d="M98.5093 207.472C98.5093 207.472 99.7545 207.009 103.225 207.279C103.225 207.279 103.041 208.574 100.469 208.69C99.0196 208.748 98.5093 207.472 98.5093 207.472Z" fill="white"/>
<path d="M108.798 224.364C108.798 224.364 111.37 232.076 120.229 233.834C120.229 233.834 134.846 229.582 127.558 220.151C127.558 220.17 120.372 215.107 108.798 224.364Z" fill="#FB7369"/>
<path d="M56.582 197.757L52.334 226.058L53.2435 226.18L57.4915 197.879L56.582 197.757Z" fill="#2A4E96"/>
<path d="M63.0101 209.83L62.0303 227.785H50.1087L48.8022 209.83H63.0101Z" fill="#5F8AD4"/>
<path d="M63.01 209.83L62.0302 227.785H52.8441L51.5376 209.83H63.01Z" fill="#7DB6FD"/>
<path d="M62.9079 209.405H48.8838C48.8838 206.023 51.5376 203.24 54.9875 202.834V202.853C55.1508 203.182 55.4774 203.394 55.8857 203.394C56.2939 203.394 56.641 203.163 56.7839 202.834C60.2542 203.24 62.9079 206.023 62.9079 209.405Z" fill="#5F8AD4"/>
<path d="M62.9078 209.405H51.4558C51.4558 206.603 52.8848 204.148 55.0078 202.853C55.1711 203.182 55.4977 203.394 55.906 203.394C56.3143 203.394 56.6613 203.163 56.8042 202.834C60.2541 203.24 62.9078 206.023 62.9078 209.405Z" fill="#7DB6FD"/>
<path d="M63.3367 209.985H48.496C48.496 209.985 48.4756 209.985 48.4756 209.965V209.386C48.4756 209.386 48.4756 209.366 48.496 209.366H63.3367C63.3367 209.366 63.3571 209.366 63.3571 209.386L63.3367 209.985Z" fill="#FB7369"/>
<path opacity="0.2" d="M49.9861 216.827L50.8434 226.876H61.2952L62.0505 215.59C62.0505 215.59 58.6822 214.411 56.0285 216.189C53.8851 217.619 49.9861 216.827 49.9861 216.827Z" fill="#D9E9FE"/>
<path d="M51.1904 225.446C51.1904 225.079 51.5171 224.77 51.9049 224.77C52.2928 224.77 52.6194 225.079 52.6194 225.446C52.6194 225.814 52.2928 226.123 51.9049 226.123C51.5171 226.123 51.1904 225.814 51.1904 225.446Z" fill="#293EB7"/>
<path d="M52.7827 223.842C52.7827 223.475 53.1093 223.166 53.4972 223.166C53.8851 223.166 54.2117 223.475 54.2117 223.842C54.2117 224.21 53.8851 224.519 53.4972 224.519C53.0889 224.5 52.7827 224.21 52.7827 223.842Z" fill="#293EB7"/>
<path d="M50.9456 222.857C50.9456 222.489 51.2722 222.18 51.66 222.18C52.0479 222.18 52.3745 222.489 52.3745 222.857C52.3745 223.224 52.0479 223.533 51.66 223.533C51.2518 223.533 50.9456 223.224 50.9456 222.857Z" fill="#293EB7"/>
<path d="M56.3142 222.857C56.3142 222.489 56.6408 222.18 57.0287 222.18C57.4165 222.18 57.7431 222.489 57.7431 222.857C57.7431 223.224 57.4165 223.533 57.0287 223.533C56.6408 223.533 56.3142 223.224 56.3142 222.857Z" fill="#293EB7"/>
<path d="M59.7234 223.166C59.7234 222.798 60.05 222.489 60.4378 222.489C60.8257 222.489 61.1523 222.798 61.1523 223.166C61.1523 223.533 60.8257 223.842 60.4378 223.842C60.0296 223.842 59.7234 223.533 59.7234 223.166Z" fill="#293EB7"/>
<path d="M53.3542 225.756C53.3542 225.388 53.6809 225.079 54.0687 225.079C54.4566 225.079 54.7832 225.388 54.7832 225.756C54.7832 226.123 54.4566 226.432 54.0687 226.432C53.6605 226.432 53.3542 226.123 53.3542 225.756Z" fill="#293EB7"/>
<path d="M54.967 224.345C54.967 223.978 55.2937 223.668 55.6815 223.668C56.0694 223.668 56.396 223.978 56.396 224.345C56.396 224.712 56.0694 225.021 55.6815 225.021C55.2937 225.002 54.967 224.712 54.967 224.345Z" fill="#293EB7"/>
<path d="M56.396 225.756C56.396 225.388 56.7226 225.079 57.1105 225.079C57.4983 225.079 57.8249 225.388 57.8249 225.756C57.8249 226.123 57.4983 226.432 57.1105 226.432C56.7226 226.432 56.396 226.123 56.396 225.756Z" fill="#293EB7"/>
<path d="M57.927 224.21C57.927 223.842 58.2536 223.533 58.6415 223.533C59.0293 223.533 59.3559 223.842 59.3559 224.21C59.3559 224.577 59.0293 224.886 58.6415 224.886C58.2332 224.886 57.927 224.577 57.927 224.21Z" fill="#293EB7"/>
<path d="M59.2742 225.756C59.2742 225.388 59.6008 225.079 59.9886 225.079C60.3765 225.079 60.7031 225.388 60.7031 225.756C60.7031 226.123 60.3765 226.432 59.9886 226.432C59.6008 226.432 59.2742 226.123 59.2742 225.756Z" fill="#293EB7"/>
<path d="M64.4595 221.388C64.4595 221.388 62.3774 218.353 60.2952 218.257C58.213 218.16 58.6009 220.151 53.3954 219.822C52.1502 219.745 50.2109 219.397 51.252 221.001C52.2931 222.605 55.5797 224.693 57.6414 224.345C59.7236 223.978 62.3569 225.137 62.3569 225.137L64.4595 221.388Z" fill="#FC9490"/>
<path d="M60.8668 218.353C60.8668 218.353 57.5597 216.923 56.6207 216.653C55.6817 216.382 55.8654 216.653 56.1512 217.503C56.437 218.353 58.1313 219.165 58.1313 219.416C58.1313 219.687 60.8668 218.353 60.8668 218.353Z" fill="#FC9490"/>
<path d="M242.221 134.166L240.363 132.06C240.363 132.06 238.893 127.054 233.014 128.001C233.014 128.001 230.626 128.562 231.585 129.992C232.565 131.403 232.402 130.726 233.729 132.755C235.056 134.785 237.24 136.06 239.057 135.751L241.078 136.196L242.221 134.166Z" fill="#FC9490"/>
<path d="M239.302 133.703C240.547 132.118 240.873 132.041 240.873 132.041C240.873 132.041 259.144 140.022 260.797 140.873C265.166 143.134 290.07 141.994 290.07 141.994L293.52 155.329C293.52 155.329 262.491 153.203 256.653 150.208C249.692 146.651 238.22 136.292 238.22 136.292C238.22 136.292 238.322 134.959 239.302 133.703Z" fill="#1E3D70"/>
<path d="M303.686 139.443C303.686 139.443 298.215 145.589 291.233 143.018C291.233 143.018 289.743 139.578 289.702 137.046C289.702 136.737 289.702 136.428 289.682 136.138C289.641 133.277 289.539 131.693 289.539 131.693C289.866 131.577 300.195 127.557 300.195 127.885C300.052 135.597 303.686 139.443 303.686 139.443Z" fill="#FC9490"/>
<path d="M299.195 129.721C298.195 131.48 294.786 134.901 289.723 136.137C289.682 133.277 289.58 131.692 289.58 131.692C289.866 131.634 299.501 129.219 299.195 129.721Z" fill="#FF8585"/>
<path d="M287.416 131.403C287.416 131.403 299.052 133.992 300.644 127.112C302.237 120.232 304.809 115.922 297.46 113.989C290.111 112.037 288.049 114.376 286.926 116.54C285.783 118.724 284.416 130.552 287.416 131.403Z" fill="#FC9490"/>
<path d="M300.236 128.987C300.399 129.083 302.89 129.818 307.646 120.87C308.381 119.459 308.891 116.424 307.156 113.757C305.421 111.071 299.276 108.964 294.173 108.056C289.07 107.148 287.845 109.853 286.64 112.598C285.375 115.477 281.721 117.835 281.721 117.835C286.13 120.174 291.438 116.83 293.275 117.371C295.112 117.913 295.765 120.657 295.908 121.546C296.051 122.416 296.255 123.15 298.562 122.377C300.869 121.585 299.603 125.469 299.236 126.223C299.215 126.204 298.909 128.175 300.236 128.987Z" fill="#2E49D3"/>
<path d="M330.204 300.607H337.246C338.716 300.607 340.37 299.216 340.778 296.645C341.186 294.075 344.228 292.683 344.881 290.577C345.534 288.47 342.166 285.533 342.166 285.533L341.594 284.856L341.002 284.141L335.429 285.378C335.429 285.378 335.287 286.634 335.205 288.238C335.144 289.398 335.103 290.731 335.184 291.91C335.348 294.713 334.347 297.728 331.735 298.269C329.101 298.81 330.204 300.607 330.204 300.607Z" fill="#2C3A64"/>
<path d="M281.17 300.607H299.828C300.012 300.569 300.134 300.53 300.216 300.491C301.461 299.892 301.073 295.389 300.93 293.978C300.91 293.727 300.889 293.572 300.889 293.572C300.889 293.572 294.316 288.605 293.418 292.413C293.398 292.529 293.357 292.645 293.316 292.761C292.173 296.317 287.09 297.94 284.15 298.385C281.905 298.752 281.313 299.989 281.17 300.607Z" fill="#2C3A64"/>
<path d="M284.926 198.698C284.926 198.698 285.927 210.468 287.09 224.635C288.682 243.865 290.601 267.482 290.785 271.965C291.112 279.735 292.418 292.162 292.418 292.162C292.418 292.162 295.541 295.119 301.767 293.863C301.767 293.863 307.32 276.121 308.912 257.355C308.933 257.045 308.953 256.736 308.994 256.427C310.464 237.313 312.77 197.075 312.77 197.075L284.926 198.698Z" fill="#3A4ACE"/>
<path d="M284.926 198.698C284.926 198.698 285.927 210.468 287.09 224.635L308.933 257.355C308.953 257.045 308.973 256.736 309.014 256.427C310.484 237.313 312.791 197.075 312.791 197.075L284.926 198.698Z" fill="#293EB7"/>
<path d="M289.478 200.089C289.478 200.089 307.442 242.743 319.261 262.785C331.081 282.827 334.776 288.412 334.776 288.412C334.776 288.412 341.553 285.842 342.165 284.102C342.165 284.102 337.654 245.41 329.734 235.979C325.263 230.645 320.017 214.662 319.772 209.057C319.527 203.452 318.179 192.397 318.179 192.397L289.478 200.089Z" fill="#3A4ACE"/>
<path d="M281.129 164.857C281.19 168.51 281.415 172.607 281.721 176.762C281.741 177.014 281.762 177.265 281.782 177.497C281.966 180.067 282.191 182.657 282.415 185.189C282.517 186.194 282.619 187.199 282.721 188.184L282.742 188.32C282.742 188.687 282.803 189.093 282.844 189.441C283.824 198.891 284.844 206.352 285.048 206.467C285.273 206.603 285.538 206.68 285.824 206.661C288.437 206.352 296.235 206.912 302.624 205.598C308.014 204.515 312.668 202.486 317.588 199.722C318.241 199.355 319.731 198.389 319.609 197.674C319.486 196.881 319.262 195.722 318.996 194.292C318.037 189.267 316.363 180.628 315.791 170.52C315.689 168.645 315.526 166.771 315.301 164.954C314.75 160.18 313.872 155.658 312.688 151.638C310.504 144.178 306.095 138.592 302.053 136.35C301.522 136.08 299.828 137.22 297.235 138.805C294.827 140.274 292.54 140.37 290.091 139.52L287.702 143.173C285.069 146.072 282.272 149.918 281.517 155.387C281.456 155.793 281.415 156.218 281.374 156.682C281.129 158.866 281.068 161.688 281.129 164.857Z" fill="#2A4E96"/>
<path d="M281.129 164.857C281.19 168.51 281.414 172.607 281.721 176.762C281.741 177.013 281.761 177.265 281.782 177.497C296.725 168.645 299.031 152.449 299.031 152.449C291.682 152.758 285.844 154.363 281.333 156.643C281.129 158.866 281.067 161.687 281.129 164.857Z" fill="#1E3D70"/>
<path d="M234.688 147.734C234.463 147.289 234.484 146.825 234.259 145.956C234.035 145.105 233.892 143.385 233.565 143.424C233.218 143.463 232.932 144.023 232.994 144.487C233.035 144.777 232.953 145.376 232.81 145.801C231.993 145.337 230.687 144.313 230.197 143.637C228.217 140.97 227.094 140.506 226.563 143.037C226.278 144.448 226.441 146.149 227.4 148.178C228.625 150.729 230.871 151.058 233.034 151.348C233.626 151.425 235.137 152.43 235.137 152.43L237.546 149.261C237.566 149.28 235.015 148.391 234.688 147.734Z" fill="#FC9490"/>
<path d="M234.321 149.975C235.097 148.004 236.281 148.139 236.281 148.139C236.281 148.139 258.49 153.377 260.491 153.609C262.492 153.841 284.416 145.511 284.416 145.511C284.416 145.511 293.051 141.839 297.092 145.202C300.604 148.12 300.767 151.792 299.95 154.884C298.97 158.576 295.664 161.301 291.683 161.784C282.742 162.866 264.88 164.896 261.144 164.393C252.816 163.291 233.953 152.99 233.953 152.99C233.953 152.99 233.729 151.521 234.321 149.975Z" fill="#2A4E96"/>
<path d="M386.034 300.607H366.968C365.947 299.796 367.682 297.921 369.478 297.805C370.254 297.747 371.254 297.902 372.398 298.134C372.663 294.829 374.153 279.986 379.808 280.585C386.156 281.261 379.808 287.117 378.011 290.596C376.684 293.167 375.276 296.858 374.643 298.597C375.153 298.694 375.684 298.81 376.235 298.907C377.072 296.452 380.216 288.219 384.197 288.702C388.871 289.263 386.993 292.568 383.686 294.52C381.257 295.969 378.277 298.018 376.848 299.003C378.052 299.197 379.297 299.313 380.583 299.293C383.809 299.216 385.401 300.124 386.034 300.607Z" fill="#6D89D0"/>
<path d="M82.75 168.51C82.75 172.375 79.443 175.525 75.3603 175.525C71.2572 175.525 67.9502 172.375 67.9502 168.51C67.9502 164.645 71.2572 161.514 75.3603 161.514C75.7277 161.514 76.0952 161.533 76.4626 161.61H76.483C79.6676 162.055 82.1988 164.451 82.6683 167.466C82.7296 167.814 82.75 168.162 82.75 168.51Z" fill="#FB7369"/>
<path d="M82.6479 167.466C82.158 169.728 80.0554 171.428 77.5037 171.428C74.6254 171.428 72.2778 169.206 72.2778 166.461C72.2778 164.065 74.0742 162.074 76.4422 161.61H76.4626C79.6471 162.055 82.1784 164.451 82.6479 167.466Z" fill="#FF5549"/>
<path d="M94.304 141.375C94.304 145.994 90.3641 149.743 85.4853 149.743C80.5861 149.743 76.6462 145.994 76.6462 141.375C76.6462 136.756 80.5861 133.026 85.4853 133.026C85.9344 133.026 86.3631 133.045 86.7918 133.142H86.8122C90.6091 133.664 93.6303 136.524 94.1815 140.119C94.2836 140.544 94.304 140.95 94.304 141.375Z" fill="#FB7369"/>
<path d="M94.1814 140.119C93.5894 142.805 91.0785 144.854 88.0369 144.854C84.6074 144.854 81.8108 142.206 81.8108 138.94C81.8108 136.099 83.9542 133.702 86.7713 133.161H86.7917C90.609 133.664 93.6302 136.524 94.1814 140.119Z" fill="#FF5549"/>
<path d="M67.7052 136.254C67.7052 142.612 62.2752 147.772 55.5796 147.772C48.8431 147.772 43.4131 142.612 43.4131 136.254C43.4131 129.895 48.8431 124.754 55.5796 124.754C56.192 124.754 56.8044 124.793 57.3759 124.909H57.4168C62.6426 125.643 66.7866 129.567 67.5623 134.514C67.6848 135.113 67.7052 135.693 67.7052 136.254Z" fill="#FB7369"/>
<path d="M67.5623 134.534C66.7662 138.244 63.2958 141.047 59.1111 141.047C54.3955 141.047 50.5374 137.394 50.5374 132.91C50.5374 128.987 53.4973 125.701 57.3759 124.948H57.4167C62.6426 125.663 66.7866 129.567 67.5623 134.534Z" fill="#FF5549"/>
<g opacity="0.2">
<path opacity="0.2" d="M53.0481 166.5C53.0481 171.448 48.8225 175.468 43.5966 175.468C38.3504 175.468 34.1248 171.448 34.1248 166.5C34.1248 161.552 38.3504 157.552 43.5966 157.552C44.0662 157.552 44.5561 157.571 45.0052 157.668H45.0256C49.1083 158.228 52.3336 161.301 52.9256 165.147C53.0277 165.611 53.0481 166.055 53.0481 166.5Z" fill="#FB7369"/>
<path opacity="0.2" d="M52.9256 165.147C52.2928 168.046 49.5982 170.21 46.3525 170.21C42.678 170.21 39.6772 167.369 39.6772 163.871C39.6772 160.818 41.984 158.267 45.0052 157.667H45.0256C49.0879 158.247 52.3336 161.301 52.9256 165.147Z" fill="#FFCFAB"/>
</g>
<g opacity="0.2">
<path opacity="0.2" d="M48.4755 262.727C48.4755 266.941 44.8623 270.381 40.4121 270.381C35.9416 270.381 32.3284 266.941 32.3284 262.727C32.3284 258.514 35.9416 255.093 40.4121 255.093C40.8204 255.093 41.2287 255.113 41.5961 255.19H41.6165C45.0868 255.673 47.8426 258.282 48.353 261.568C48.4551 261.954 48.4755 262.341 48.4755 262.727Z" fill="#FB7369"/>
<path opacity="0.2" d="M48.3733 261.568C47.8426 264.022 45.5358 265.897 42.7596 265.897C39.6159 265.897 37.0642 263.481 37.0642 260.485C37.0642 257.876 39.0239 255.692 41.596 255.19H41.6164C45.1072 255.673 47.863 258.282 48.3733 261.568Z" fill="#FFCFAB"/>
</g>
<g opacity="0.2">
<path opacity="0.2" d="M22.3667 252.89C22.3667 255.461 20.162 257.548 17.447 257.548C14.7116 257.548 12.5273 255.461 12.5273 252.89C12.5273 250.32 14.732 248.232 17.447 248.232C17.692 248.232 17.9369 248.252 18.1819 248.29H18.2023C20.3253 248.58 21.9993 250.165 22.3055 252.175C22.3667 252.426 22.3667 252.658 22.3667 252.89Z" fill="#FB7369"/>
<path opacity="0.2" d="M22.3054 252.195C21.9788 253.702 20.5702 254.823 18.8963 254.823C16.9775 254.823 15.426 253.354 15.426 251.518C15.426 249.933 16.6304 248.6 18.2023 248.291H18.2227C20.3253 248.6 21.9992 250.185 22.3054 252.195Z" fill="#FFCFAB"/>
</g>
<g opacity="0.2">
<path opacity="0.2" d="M314.423 89.4639C314.423 92.6528 311.708 95.2426 308.34 95.2426C304.951 95.2426 302.236 92.6528 302.236 89.4639C302.236 86.275 304.951 83.7046 308.34 83.7046C308.646 83.7046 308.952 83.7239 309.238 83.7819H309.259C311.892 84.1491 313.954 86.1204 314.342 88.5942C314.403 88.8841 314.423 89.174 314.423 89.4639Z" fill="#FB7369"/>
<path opacity="0.2" d="M314.341 88.5941C313.933 90.4495 312.198 91.8603 310.116 91.8603C307.748 91.8603 305.809 90.0243 305.809 87.7824C305.809 85.811 307.299 84.1683 309.238 83.7817H309.258C311.871 84.1296 313.954 86.1009 314.341 88.5941Z" fill="#FFCFAB"/>
</g>
<path d="M286.191 86.5646C286.191 90.4299 282.884 93.5802 278.802 93.5802C274.699 93.5802 271.392 90.4299 271.392 86.5646C271.392 82.6993 274.699 79.5684 278.802 79.5684C279.169 79.5684 279.537 79.5877 279.904 79.665H279.924C283.109 80.1095 285.64 82.506 286.11 85.521C286.171 85.8495 286.191 86.1974 286.191 86.5646Z" fill="#FB7369"/>
<path d="M286.089 85.5015C285.599 87.7627 283.497 89.4634 280.945 89.4634C278.067 89.4634 275.719 87.2409 275.719 84.4965C275.719 82.1 277.516 80.1093 279.884 79.6455H279.904C283.109 80.09 285.62 82.4865 286.089 85.5015Z" fill="#FF5549"/>
<path d="M298.909 62.1938C298.909 66.8129 294.969 70.5623 290.091 70.5623C285.191 70.5623 281.251 66.8129 281.251 62.1938C281.251 57.5748 285.191 53.8447 290.091 53.8447C290.54 53.8447 290.968 53.8641 291.397 53.9607H291.417C295.214 54.4825 298.236 57.3428 298.787 60.9376C298.868 61.3435 298.909 61.7687 298.909 62.1938Z" fill="#FB7369"/>
<path d="M298.787 60.918C298.195 63.6044 295.684 65.6531 292.642 65.6531C289.213 65.6531 286.416 63.0053 286.416 59.7391C286.416 56.8981 288.559 54.5016 291.377 53.9604H291.397C295.214 54.4823 298.215 57.3233 298.787 60.918Z" fill="#FF5549"/>
<path d="M276.903 49.0711C276.903 55.4296 271.473 60.5898 264.757 60.5898C258.021 60.5898 252.591 55.4296 252.591 49.0711C252.591 42.7127 258.021 37.5718 264.757 37.5718C265.37 37.5718 265.982 37.6104 266.554 37.7264H266.595C271.82 38.4608 275.964 42.3841 276.74 47.3317C276.883 47.9115 276.903 48.4913 276.903 49.0711Z" fill="#FB7369"/>
<path d="M276.74 47.3316C275.944 51.0424 272.474 53.8447 268.289 53.8447C263.573 53.8447 259.715 50.192 259.715 45.7082C259.715 41.7849 262.675 38.4993 266.554 37.7456H266.595C271.841 38.4607 275.985 42.384 276.74 47.3316Z" fill="#FF5549"/>
<path d="M201.639 10.5336L198.475 32.45L182.45 30.4014L152.789 26.5554L155.953 4.61963L168.895 6.30105L201.639 10.5336Z" fill="#FB7369"/>
<path d="M182.45 30.4014L152.789 26.5554L155.953 4.61963L168.895 6.30105C171.039 11.5579 176.408 23.811 182.45 30.4014Z" fill="#F2564B"/>
</svg>
