<svg width="103" height="39" viewBox="0 0 103 39" fill="none" xmlns="http://www.w3.org/2000/svg">
<path d="M34.7184 9.60243C34.8421 9.54384 35.1318 9.51455 35.5874 9.51455H43.5304C43.9861 9.51455 44.253 9.5292 44.3311 9.55849C44.5459 9.63335 44.637 9.84002 44.6045 10.1785C44.6045 10.3152 44.5133 10.4372 44.3311 10.5447C44.253 10.5739 43.9942 10.5886 43.5548 10.5886H42.1098C41.729 10.5886 41.5386 10.7708 41.5386 11.1354V13.2444C41.5386 13.6252 41.7225 13.8156 42.0902 13.8156C42.6533 13.77 43.0878 13.8156 43.3937 13.9523C43.9405 14.2712 44.2302 14.652 44.2627 15.0947V28.0515C44.2302 28.7675 43.7794 29.2313 42.9104 29.4428H36.3686C35.6363 29.3973 35.1708 28.9709 34.9723 28.1638V15.0947C35.109 14.3624 35.5516 13.936 36.3002 13.8156H37.1692C37.5337 13.8156 37.716 13.6317 37.716 13.2639V11.1354C37.716 10.7708 37.5337 10.5886 37.1692 10.5886H35.6118C35.1529 10.5886 34.847 10.5512 34.694 10.4763C34.5443 10.3526 34.476 10.2062 34.489 10.0369C34.476 9.85466 34.5525 9.70983 34.7184 9.60243ZM46.0935 10.198C45.9861 9.90836 46.1309 9.68054 46.528 9.51455H52.6158C53.3937 9.54384 53.9128 10.0695 54.1732 11.0914V16.8131C54.0788 17.744 53.5434 18.2924 52.567 18.4584H47.9682C47.2521 18.5983 46.9397 19.0572 47.0308 19.8351V26.953C47.0601 27.2101 47.1138 27.438 47.1919 27.6365C47.3286 27.9424 47.6036 28.1491 48.017 28.2565C48.6419 28.3932 49.244 28.4762 49.8233 28.5055H51.5613C52.4759 28.4469 53.2391 28.2191 53.851 27.822C53.9258 27.7765 53.9795 27.7146 54.0121 27.6365C54.165 27.1646 54.2562 26.5088 54.2855 25.6691V24.2972C54.2399 24.0987 54.2773 23.9083 54.3977 23.726C54.6126 23.5112 54.8648 23.4884 55.1545 23.6577C55.2456 23.7163 55.3074 23.8448 55.34 24.0434V26.4014L55.2911 27.4315C55.1545 28.4534 54.5751 29.1483 53.5532 29.5161C53.1724 29.6365 52.6842 29.7113 52.0886 29.7406H50.5117C49.4409 29.6951 48.4938 29.5958 47.6704 29.4428C46.925 29.1987 46.4222 28.7349 46.1618 28.0515C46.0382 27.7 45.9698 27.3794 45.9568 27.0897V18.9856C46.0479 18.1166 46.5735 17.591 47.5337 17.4087H52.0886C52.6679 17.3306 53.0031 17.0182 53.0943 16.4714V11.4576C53.0943 11.0149 52.8192 10.7253 52.2692 10.5886H47.2163C46.7574 10.5886 46.4889 10.5739 46.4108 10.5447C46.1993 10.4503 46.0935 10.3347 46.0935 10.198ZM40.4645 13.2639V11.1598C40.4645 10.779 40.2888 10.5886 39.9373 10.5886H39.3661C38.9853 10.5886 38.7949 10.7708 38.7949 11.1354V13.2444C38.7949 13.6252 38.9772 13.8156 39.3417 13.8156H39.9129C40.2807 13.8156 40.4645 13.6317 40.4645 13.2639ZM37.1692 14.8896C36.5443 14.7822 36.1619 15.0426 36.0219 15.6707V23.8822C36.0219 24.2663 36.2058 24.4583 36.5736 24.4583H42.6614C43.026 24.4583 43.2082 24.2744 43.2082 23.9067V22.7643C43.2082 22.3965 43.026 22.2126 42.6614 22.2126C42.004 22.2907 41.4767 22.2142 41.0797 21.9832C40.7152 21.6805 40.5101 21.2997 40.4645 20.8408V15.4413C40.4645 15.0735 40.2807 14.8896 39.9129 14.8896H39.3661C38.9853 14.8896 38.7949 15.0735 38.7949 15.4413V17.3599C38.7005 19.01 38.31 20.5365 37.6232 21.9392C37.5484 22.2289 37.2978 22.4811 36.8714 22.6959C36.7477 22.7871 36.5948 22.7708 36.4125 22.6471C36.0935 22.3281 36.1163 22.0238 36.4808 21.7342C36.9397 21.2134 37.2522 20.6032 37.4182 19.9034C37.6037 19.1549 37.703 18.4372 37.716 17.7505V15.4413C37.716 15.0735 37.5337 14.8896 37.1692 14.8896ZM43.2082 20.5869V15.6903C43.1334 15.0491 42.7672 14.7822 42.1098 14.8896C41.729 14.8896 41.5386 15.0735 41.5386 15.4413V19.9474C41.5386 20.3151 41.5695 20.5755 41.6313 20.7285C41.921 21.093 42.2644 21.2297 42.6614 21.1386C43.026 21.1386 43.2082 20.9547 43.2082 20.5869ZM43.2082 27.5682V26.0791C43.2082 25.6984 43.0325 25.508 42.681 25.508H36.598C36.214 25.508 36.0219 25.6918 36.0219 26.0596V27.6365C36.1619 28.0954 36.4288 28.3476 36.8226 28.3932H42.3832C42.8583 28.3314 43.1334 28.0564 43.2082 27.5682ZM58.152 9.60243C58.2757 9.54384 58.5653 9.51455 59.021 9.51455H66.964C67.4196 9.51455 67.6865 9.5292 67.7646 9.55849C67.9794 9.63335 68.0706 9.84002 68.038 10.1785C68.038 10.3152 67.9469 10.4372 67.7646 10.5447C67.6865 10.5739 67.4278 10.5886 66.9884 10.5886H65.5433C65.1625 10.5886 64.9721 10.7708 64.9721 11.1354V13.2444C64.9721 13.6252 65.156 13.8156 65.5238 13.8156C66.0869 13.77 66.5214 13.8156 66.8273 13.9523C67.3741 14.2712 67.6637 14.652 67.6963 15.0947V28.0515C67.6637 28.7675 67.213 29.2313 66.344 29.4428H59.8021C59.0698 29.3973 58.6044 28.9709 58.4059 28.1638V15.0947C58.5426 14.3624 58.9852 13.936 59.7338 13.8156H60.6028C60.9673 13.8156 61.1495 13.6317 61.1495 13.2639V11.1354C61.1495 10.7708 60.9673 10.5886 60.6028 10.5886H59.0454C58.5865 10.5886 58.2806 10.5512 58.1276 10.4763C57.9779 10.3526 57.9095 10.2062 57.9225 10.0369C57.9095 9.85466 57.986 9.70983 58.152 9.60243ZM69.527 10.198C69.4196 9.90836 69.5645 9.68054 69.9615 9.51455H76.0494C76.8272 9.54384 77.3464 10.0695 77.6067 11.0914V16.8131C77.5123 17.744 76.977 18.2924 76.0006 18.4584H71.4017C70.6857 18.5983 70.3732 19.0572 70.4644 19.8351V26.953C70.4937 27.2101 70.5474 27.438 70.6255 27.6365C70.7622 27.9424 71.0372 28.1491 71.4505 28.2565C72.0754 28.3932 72.6775 28.4762 73.2569 28.5055H74.9949C75.9094 28.4469 76.6726 28.2191 77.2845 27.822C77.3594 27.7765 77.4131 27.7146 77.4456 27.6365C77.5986 27.1646 77.6897 26.5088 77.719 25.6691V24.2972C77.6735 24.0987 77.7109 23.9083 77.8313 23.726C78.0461 23.5112 78.2983 23.4884 78.588 23.6577C78.6791 23.7163 78.741 23.8448 78.7735 24.0434V26.4014L78.7247 27.4315C78.588 28.4534 78.0087 29.1483 76.9867 29.5161C76.6059 29.6365 76.1177 29.7113 75.5221 29.7406H73.9452C72.8745 29.6951 71.9273 29.5958 71.1039 29.4428C70.3586 29.1987 69.8558 28.7349 69.5954 28.0515C69.4717 27.7 69.4034 27.3794 69.3903 27.0897V18.9856C69.4815 18.1166 70.0071 17.591 70.9672 17.4087H75.5221C76.1014 17.3306 76.4367 17.0182 76.5278 16.4714V11.4576C76.5278 11.0149 76.2528 10.7253 75.7028 10.5886H70.6499C70.191 10.5886 69.9225 10.5739 69.8444 10.5447C69.6328 10.4503 69.527 10.3347 69.527 10.198ZM63.8981 13.2639V11.1598C63.8981 10.779 63.7223 10.5886 63.3708 10.5886H62.7997C62.4189 10.5886 62.2285 10.7708 62.2285 11.1354V13.2444C62.2285 13.6252 62.4107 13.8156 62.7752 13.8156H63.3464C63.7142 13.8156 63.8981 13.6317 63.8981 13.2639ZM60.6028 14.8896C59.9779 14.7822 59.5954 15.0426 59.4555 15.6707V23.8822C59.4555 24.2663 59.6394 24.4583 60.0072 24.4583H66.095C66.4595 24.4583 66.6418 24.2744 66.6418 23.9067V22.7643C66.6418 22.3965 66.4595 22.2126 66.095 22.2126C65.4376 22.2907 64.9103 22.2142 64.5132 21.9832C64.1487 21.6805 63.9437 21.2997 63.8981 20.8408V15.4413C63.8981 15.0735 63.7142 14.8896 63.3464 14.8896H62.7997C62.4189 14.8896 62.2285 15.0735 62.2285 15.4413V17.3599C62.1341 19.01 61.7435 20.5365 61.0568 21.9392C60.9819 22.2289 60.7313 22.4811 60.305 22.6959C60.1813 22.7871 60.0283 22.7708 59.846 22.6471C59.5271 22.3281 59.5499 22.0238 59.9144 21.7342C60.3733 21.2134 60.6858 20.6032 60.8517 19.9034C61.0373 19.1549 61.1365 18.4372 61.1495 17.7505V15.4413C61.1495 15.0735 60.9673 14.8896 60.6028 14.8896ZM66.6418 20.5869V15.6903C66.5669 15.0491 66.2008 14.7822 65.5433 14.8896C65.1625 14.8896 64.9721 15.0735 64.9721 15.4413V19.9474C64.9721 20.3151 65.0031 20.5755 65.0649 20.7285C65.3546 21.093 65.6979 21.2297 66.095 21.1386C66.4595 21.1386 66.6418 20.9547 66.6418 20.5869ZM66.6418 27.5682V26.0791C66.6418 25.6984 66.466 25.508 66.1145 25.508H60.0316C59.6475 25.508 59.4555 25.6918 59.4555 26.0596V27.6365C59.5954 28.0954 59.8623 28.3476 60.2561 28.3932H65.8167C66.2919 28.3314 66.5669 28.0564 66.6418 27.5682ZM93.2779 8.75784C93.4472 8.48445 93.7303 8.47631 94.1274 8.73343C94.2348 9.0231 94.2576 9.53408 94.1957 10.2664C94.1795 10.6342 94.3552 10.818 94.723 10.818H100.718C101.053 10.8343 101.358 10.9173 101.631 11.067C102.015 11.3567 102.199 11.7538 102.183 12.2582C102.274 13.9995 101.786 15.9978 100.718 18.2533C100.718 18.39 100.604 18.5121 100.376 18.6195C100.236 18.6813 100.083 18.6439 99.9174 18.5072C99.7807 18.3835 99.727 18.1996 99.7563 17.9555C99.7856 17.7277 99.893 17.4234 100.079 17.0426C100.658 15.744 101.016 14.5235 101.153 13.3811C101.214 12.8766 101.192 12.4714 101.084 12.1655C101.039 12.0743 100.977 12.006 100.899 11.9604C100.778 11.8986 100.534 11.8677 100.166 11.8677H97.6717C97.2909 11.8677 97.1005 12.0516 97.1005 12.4193C97.1168 12.8327 97.1021 13.1907 97.0566 13.4934V15.2118C97.164 17.8969 97.6213 20.3835 98.4284 22.6715C99.2681 24.914 100.406 26.8977 101.841 28.6227C102.131 28.9253 102.282 29.1532 102.295 29.3061C102.357 29.521 102.288 29.6967 102.09 29.8334C101.83 30.0157 101.555 29.9392 101.265 29.6039C98.8694 26.5673 97.3365 23.3875 96.666 20.0645C96.5586 19.6805 96.4593 19.687 96.3682 20.0841C95.8507 22.7106 94.9964 25.1141 93.8052 27.2948C93.317 28.2093 92.7913 28.9253 92.2283 29.4428C91.7401 29.7651 91.4651 29.918 91.4032 29.9017C90.9443 29.6284 90.8841 29.3159 91.2226 28.9644C92.0298 28.141 92.6774 27.2557 93.1656 26.3086C93.8524 25.0295 94.3715 23.809 94.723 22.6471C95.5171 20.115 95.9516 17.1939 96.0265 13.8839V12.4193C96.0265 12.0516 95.8426 11.8677 95.4748 11.8677H94.5863C94.2185 11.8677 93.9891 12.0516 93.8979 12.4193C93.5627 14.3266 92.8988 15.9734 91.9061 17.3599C91.662 17.6658 91.4032 17.6658 91.1298 17.3599C90.915 17.0865 90.9297 16.8196 91.1738 16.5593C92.4854 14.4242 93.1494 12.128 93.1656 9.67077C93.1656 9.21512 93.2031 8.91081 93.2779 8.75784ZM86.6189 8.66508C86.9411 8.55768 87.3235 8.71065 87.7662 9.12399C88.6807 9.84002 89.5953 10.5414 90.5098 11.2281C91.0436 11.5959 91.3105 11.9084 91.3105 12.1655C91.2063 12.6407 90.9329 12.7855 90.4903 12.6L87.2828 9.96858C87.1168 9.78631 86.9264 9.74889 86.7116 9.85629C86.6205 9.90186 86.3927 10.1085 86.0282 10.4763C84.8825 11.5894 83.6539 12.5658 82.3423 13.4055C81.9289 13.6496 81.6002 13.7635 81.3561 13.7472C81.1738 13.6561 81.0681 13.5422 81.0388 13.4055C80.9314 13.1451 81.0078 12.9303 81.2682 12.7611C82.6384 12.0743 84.1177 10.984 85.706 9.49014C86.116 9.03123 86.4203 8.75621 86.6189 8.66508ZM86.6677 12.0092C86.8955 11.9018 87.1168 11.9848 87.3317 12.2582C87.3772 12.3363 87.4 12.6032 87.4 13.0589V13.7912C87.4 14.172 87.5823 14.3624 87.9468 14.3624H89.0696C89.8312 14.4242 90.282 14.8668 90.422 15.6903V21.9636C90.3731 22.6504 89.9533 23.0995 89.1624 23.3111H84.3781C83.9973 23.3111 83.8069 23.4949 83.8069 23.8627V27.5926C83.8069 27.9571 83.9891 28.1019 84.3536 28.0271C85.8052 27.6918 87.1331 27.2948 88.3373 26.8359C88.7344 26.6829 88.8646 26.4388 88.7279 26.1036L88.269 24.844C88.0705 24.5088 88.2153 24.2875 88.7035 24.1801C88.8858 24.1801 89.0306 24.2565 89.138 24.4095C89.7629 25.7211 90.2592 26.9416 90.627 28.071C90.7474 28.4518 90.8011 28.787 90.7881 29.0767C90.6937 29.4282 90.4952 29.5747 90.1925 29.5161C90.1014 29.4835 89.9484 29.2231 89.7336 28.7349L89.5041 28.1393C89.3674 27.7748 89.1152 27.6609 88.7474 27.7976C86.6124 28.6048 84.2706 29.2069 81.7222 29.6039C81.2959 29.6821 81.0681 29.4835 81.0388 29.0083C81.0843 28.6894 81.4651 28.4925 82.1812 28.4176C82.562 28.3851 82.7523 28.193 82.7523 27.8415V15.6707C82.8142 14.984 83.234 14.5479 84.0119 14.3624H85.7743C86.1388 14.3624 86.3211 14.1801 86.3211 13.8156V12.3949C86.3536 12.2289 86.4692 12.1004 86.6677 12.0092ZM88.2934 15.4413H84.4464C84.1405 15.4543 83.9273 15.6366 83.8069 15.9881V17.8432C83.8069 18.224 83.9891 18.4144 84.3536 18.4144H88.7963C89.1608 18.4144 89.343 18.2322 89.343 17.8676V15.9881C89.33 15.7895 89.247 15.6447 89.0941 15.5536C88.9248 15.4787 88.6579 15.4413 88.2934 15.4413ZM89.343 21.617V20.0157C89.343 19.6512 89.1608 19.4689 88.7963 19.4689H84.3781C83.9973 19.4689 83.8069 19.6512 83.8069 20.0157V21.6854C83.8069 22.0694 83.9891 22.2614 84.3536 22.2614H88.6596C89.0078 22.2452 89.2356 22.0303 89.343 21.617Z" fill="#070150"/>
<path d="M7.48048 14.0037C7.48048 14.7199 6.90012 15.3002 6.18398 15.3002C5.46739 15.3002 4.88703 14.7199 4.88703 14.0037C4.88703 13.2869 5.46739 12.7068 6.18398 12.7068C6.8999 12.7068 7.48048 13.2874 7.48048 14.0037ZM16.8525 4.84875C16.0451 4.84875 15.3904 5.50302 15.3904 6.31066C15.3904 7.1183 16.0451 7.77256 16.8525 7.77256C17.6595 7.77256 18.3137 7.1183 18.3137 6.31066C18.3137 5.50302 17.6595 4.84875 16.8525 4.84875ZM22.2613 19.0486V29.8734H2.22614V14.8748C2.90733 14.4605 3.61279 14.2045 4.34007 14.0745C4.38326 15.0554 5.19157 15.8374 6.18375 15.8374C7.09936 15.8374 7.85937 15.1698 8.00429 14.2945C10.2073 14.8372 12.538 15.967 14.9269 16.9908C14.7312 17.3175 14.6195 17.6998 14.6195 18.1083C14.6195 19.3139 15.597 20.2917 16.8026 20.2917C17.8821 20.2917 18.7779 19.5081 18.9544 18.4791C20.0543 18.7915 21.1592 19.003 22.2613 19.0486ZM8.54746 24.54C8.54746 23.3341 7.56975 22.3564 6.36407 22.3564C5.1584 22.3564 4.18046 23.3341 4.18046 24.54C4.18046 25.7455 5.1584 26.7234 6.36407 26.7234C7.56975 26.7234 8.54746 25.7455 8.54746 24.54ZM9.79031 19.9475C10.598 19.9475 11.2524 19.2935 11.2524 18.4856C11.2524 17.6784 10.598 17.0239 9.79031 17.0239C8.98289 17.0239 8.32819 17.6784 8.32819 18.4856C8.32797 19.2932 8.98289 19.9475 9.79031 19.9475ZM12.9116 26.8343C12.9116 26.0266 12.2573 25.3724 11.4499 25.3724C10.6425 25.3724 9.98799 26.0266 9.98799 26.8343C9.98799 27.6417 10.6425 28.2962 11.4499 28.2962C12.2573 28.2962 12.9116 27.6417 12.9116 26.8343ZM15.9351 22.6941C15.9351 21.675 15.109 20.8484 14.0894 20.8484C13.0696 20.8484 12.2435 21.675 12.2435 22.6941C12.2435 23.7137 13.0696 24.54 14.0894 24.54C15.109 24.54 15.9351 23.7137 15.9351 22.6941ZM20.1327 27.2459C20.1327 26.2265 19.3061 25.4002 18.2866 25.4002C17.267 25.4002 16.4409 26.2265 16.4409 27.2459C16.4409 28.2652 17.267 29.092 18.2866 29.092C19.3061 29.092 20.1327 28.2652 20.1327 27.2459ZM13.4125 9.52942C12.207 9.52942 11.2293 10.5074 11.2293 11.713C11.2293 12.9189 12.207 13.8964 13.4125 13.8964C14.6184 13.8964 15.5965 12.9189 15.5965 11.713C15.5965 10.5071 14.6184 9.52942 13.4125 9.52942ZM16.8525 16.3492C15.9242 16.3492 15.1711 17.1021 15.1711 18.0301C15.1711 18.9587 15.9242 19.7111 16.8525 19.7111C17.7804 19.7111 18.5332 18.9587 18.5332 18.0301C18.5332 17.1018 17.7804 16.3492 16.8525 16.3492ZM9.49134 6.53483C8.472 6.53483 7.64588 7.36139 7.64588 8.38074C7.64588 9.40031 8.472 10.2266 9.49134 10.2266C10.5109 10.2266 11.3373 9.40031 11.3373 8.38074C11.3373 7.36139 10.5109 6.53483 9.49134 6.53483Z" fill="#F39519"/>
<path d="M23.7083 0C23.2575 0 22.9292 0.365754 22.9292 0.816323V1.02046V29.7051C22.9292 30.0942 22.6603 30.7148 22.2709 30.7148H15.8677H8.61981H2.21656C1.82721 30.7148 1.55829 30.0942 1.55829 29.7051V1.02046V0.816323C1.55829 0.365754 1.22994 0 0.779147 0C0.328355 0 0 0.365754 0 0.816323V1.02046V34.6353C0 36.5812 1.69743 38.5065 3.64351 38.5065H8.61981H15.8677H20.844C22.79 38.5065 24.4875 36.5816 24.4875 34.6353V1.02046V0.816323C24.4875 0.365754 24.1591 0 23.7083 0ZM12.2437 36.9482C11.0145 36.9482 10.0176 35.9514 10.0176 34.7221C10.0176 33.4928 11.0145 32.496 12.2437 32.496C13.4728 32.496 14.4699 33.4928 14.4699 34.7221C14.4699 35.9514 13.4728 36.9482 12.2437 36.9482Z" fill="#070150"/>
</svg>
