<svg width="50" height="39" viewBox="0 0 50 39" fill="none" xmlns="http://www.w3.org/2000/svg">
<path d="M9.09658 38.6752V36.1C9.11159 35.8834 9.08027 35.6661 9.00472 35.4626C8.92916 35.2591 8.8111 35.074 8.6584 34.9197C8.50571 34.7653 8.32188 34.6453 8.11916 34.5676C7.91644 34.4899 7.6995 34.4563 7.48277 34.469C7.19909 34.4504 6.91561 34.5083 6.66194 34.6367C6.40827 34.765 6.19371 34.9591 6.04064 35.1987C5.90112 34.9663 5.70149 34.7758 5.46279 34.6474C5.22409 34.519 4.95516 34.4574 4.68436 34.469C4.4483 34.4571 4.21323 34.5071 4.00243 34.614C3.79163 34.7209 3.61243 34.881 3.48259 35.0785V34.572H2.58984V38.6752H3.49117V36.4176C3.472 36.2773 3.48406 36.1345 3.5265 35.9994C3.56893 35.8643 3.64069 35.7402 3.73665 35.636C3.8326 35.5319 3.95038 35.4502 4.08156 35.3969C4.21275 35.3435 4.3541 35.3198 4.49551 35.3274C5.08781 35.3274 5.38825 35.7137 5.38825 36.409V38.6924H6.28958V36.4176C6.27119 36.2774 6.28381 36.1349 6.32653 36.0002C6.36926 35.8654 6.44105 35.7417 6.53684 35.6377C6.63263 35.5337 6.75008 35.452 6.8809 35.3984C7.01172 35.3448 7.15271 35.3206 7.29392 35.3274C7.90339 35.3274 8.19525 35.7137 8.19525 36.409V38.6924L9.09658 38.6752ZM22.4319 34.572H20.9641V33.3273H20.0627V34.572H19.2473V35.3875H20.0799V37.276C20.0799 38.2289 20.449 38.7954 21.5049 38.7954C21.8993 38.7967 22.2862 38.6866 22.6208 38.4778L22.3633 37.7138C22.1239 37.8566 21.8521 37.9363 21.5735 37.9456C21.1443 37.9456 20.9812 37.6709 20.9812 37.2589V35.3875H22.4405L22.4319 34.572ZM30.046 34.469C29.8284 34.4626 29.613 34.5151 29.4226 34.6208C29.2323 34.7266 29.074 34.8817 28.9644 35.0699V34.572H28.0803V38.6752H28.973V36.3747C28.973 35.6965 29.2649 35.3188 29.8314 35.3188C30.0224 35.3162 30.212 35.3512 30.3894 35.4219L30.6641 34.5634C30.4602 34.4905 30.2454 34.4528 30.0289 34.4519L30.046 34.469ZM18.5348 34.8982C18.0294 34.5978 17.4484 34.4488 16.8609 34.469C15.8222 34.469 15.1441 34.9669 15.1441 35.7824C15.1441 36.4519 15.6419 36.864 16.5604 36.9927L16.9896 37.0528C17.4789 37.1215 17.7107 37.2503 17.7107 37.482C17.7107 37.7996 17.3845 37.9799 16.775 37.9799C16.2848 37.9941 15.8041 37.8429 15.4102 37.5507L14.981 38.246C15.501 38.6091 16.1239 38.7957 16.7579 38.7782C17.9425 38.7782 18.6292 38.2203 18.6292 37.4391C18.6292 36.658 18.0884 36.3404 17.1957 36.2116L16.7665 36.1515C16.3802 36.1 16.0711 36.0227 16.0711 35.7481C16.0711 35.4734 16.363 35.2673 16.8523 35.2673C17.3045 35.2726 17.7479 35.3938 18.1399 35.6193L18.5348 34.8982ZM42.4457 34.469C42.2281 34.4626 42.0127 34.5151 41.8224 34.6208C41.632 34.7266 41.4737 34.8817 41.3641 35.0699V34.572H40.48V38.6752H41.3727V36.3747C41.3727 35.6965 41.6646 35.3188 42.2311 35.3188C42.4221 35.3162 42.6117 35.3512 42.7891 35.4219L43.0638 34.5634C42.8599 34.4905 42.6451 34.4528 42.4286 34.4519L42.4457 34.469ZM30.9431 36.615C30.9324 36.9034 30.9821 37.1908 31.089 37.4588C31.1958 37.7269 31.3574 37.9696 31.5634 38.1716C31.7695 38.3736 32.0154 38.5304 32.2855 38.6319C32.5556 38.7334 32.8439 38.7774 33.132 38.7611C33.668 38.7883 34.1948 38.6138 34.6085 38.2718L34.1793 37.5507C33.8707 37.786 33.4943 37.9155 33.1063 37.9198C32.7763 37.8931 32.4684 37.7432 32.244 37.4998C32.0195 37.2565 31.8949 36.9375 31.8949 36.6065C31.8949 36.2754 32.0195 35.9565 32.244 35.7131C32.4684 35.4697 32.7763 35.3198 33.1063 35.2931C33.4943 35.2974 33.8707 35.4269 34.1793 35.6622L34.6085 34.9411C34.1948 34.5992 33.668 34.4246 33.132 34.4519C32.8439 34.4355 32.5556 34.4795 32.2855 34.581C32.0154 34.6825 31.7695 34.8393 31.5634 35.0413C31.3574 35.2433 31.1958 35.4861 31.089 35.7541C30.9821 36.0221 30.9324 36.3095 30.9431 36.5979V36.615ZM39.304 36.615V34.572H38.4112V35.0699C38.2596 34.8748 38.0638 34.7186 37.8399 34.6141C37.616 34.5097 37.3705 34.4599 37.1236 34.469C36.5544 34.469 36.0086 34.6951 35.6061 35.0976C35.2037 35.5 34.9776 36.0459 34.9776 36.615C34.9776 37.1842 35.2037 37.7301 35.6061 38.1325C36.0086 38.535 36.5544 38.7611 37.1236 38.7611C37.3705 38.7702 37.616 38.7204 37.8399 38.616C38.0638 38.5115 38.2596 38.3553 38.4112 38.1602V38.6581H39.304V36.615ZM35.9819 36.615C35.9962 36.3735 36.0807 36.1414 36.2252 35.9474C36.3697 35.7533 36.5677 35.6057 36.795 35.5228C37.0223 35.4398 37.2689 35.4252 37.5044 35.4806C37.7399 35.5361 37.9541 35.6592 38.1205 35.8348C38.2869 36.0104 38.3984 36.2308 38.4411 36.469C38.4838 36.7071 38.456 36.9526 38.361 37.1751C38.2659 37.3976 38.1079 37.5875 37.9064 37.7213C37.7048 37.8552 37.4686 37.9272 37.2266 37.9284C37.0567 37.9306 36.8881 37.8975 36.7316 37.8314C36.575 37.7652 36.4338 37.6674 36.3169 37.544C36.2 37.4207 36.1099 37.2745 36.0523 37.1146C35.9946 36.9547 35.9707 36.7846 35.9819 36.615ZM25.2089 34.469C24.6397 34.477 24.0971 34.7107 23.7002 35.1188C23.3034 35.5269 23.085 36.0759 23.0929 36.6451C23.1009 37.2142 23.3346 37.7569 23.7427 38.1538C24.1508 38.5506 24.6998 38.769 25.269 38.7611C25.8865 38.7928 26.4938 38.5939 26.9729 38.2031L26.5437 37.5421C26.2048 37.8139 25.7849 37.965 25.3505 37.9713C25.0554 37.9967 24.7621 37.906 24.5328 37.7184C24.3036 37.5309 24.1566 37.2613 24.123 36.967H27.1704C27.1704 36.8554 27.1704 36.7438 27.1704 36.6236C27.1704 35.336 26.372 34.4776 25.2218 34.4776L25.2089 34.469ZM25.2089 35.2673C25.3425 35.2645 25.4753 35.288 25.5998 35.3365C25.7243 35.385 25.8381 35.4576 25.9345 35.55C26.031 35.6425 26.1083 35.7531 26.162 35.8754C26.2157 35.9978 26.2448 36.1295 26.2476 36.2631H24.1016C24.1171 35.9876 24.2399 35.7291 24.4437 35.543C24.6474 35.3569 24.9159 35.2579 25.1917 35.2673H25.2089ZM47.5747 36.6236V32.9239H46.7163V35.0699C46.5647 34.8748 46.3689 34.7186 46.145 34.6141C45.9211 34.5097 45.6756 34.4599 45.4287 34.469C44.8595 34.469 44.3137 34.6951 43.9112 35.0976C43.5088 35.5 43.2827 36.0459 43.2827 36.615C43.2827 37.1842 43.5088 37.7301 43.9112 38.1325C44.3137 38.535 44.8595 38.7611 45.4287 38.7611C45.6756 38.7702 45.9211 38.7204 46.145 38.616C46.3689 38.5115 46.5647 38.3553 46.7163 38.1602V38.6581H47.5747V36.6236ZM49.0641 38.0786C49.1199 38.0779 49.1753 38.0882 49.2272 38.1087C49.2765 38.1288 49.3216 38.1579 49.3602 38.1945C49.3979 38.2315 49.4285 38.2752 49.4503 38.3233C49.4721 38.3734 49.4833 38.4274 49.4833 38.4821C49.4833 38.5367 49.4721 38.5908 49.4503 38.6409C49.4285 38.689 49.3979 38.7326 49.3602 38.7697C49.3216 38.8063 49.2765 38.8354 49.2272 38.8555C49.1758 38.8782 49.1202 38.8899 49.0641 38.8898C48.9827 38.8892 48.9032 38.8655 48.8348 38.8214C48.7664 38.7773 48.712 38.7147 48.6778 38.6409C48.6563 38.5907 48.6452 38.5367 48.6452 38.4821C48.6452 38.4275 48.6563 38.3735 48.6778 38.3233C48.6996 38.2752 48.7302 38.2315 48.7679 38.1945C48.8066 38.1579 48.8517 38.1288 48.901 38.1087C48.9569 38.0864 49.0168 38.0762 49.0769 38.0786H49.0641ZM49.0641 38.804C49.1069 38.8042 49.1493 38.7955 49.1885 38.7782C49.2255 38.7617 49.259 38.7384 49.2873 38.7096C49.3409 38.651 49.3707 38.5744 49.3707 38.495C49.3707 38.4155 49.3409 38.3389 49.2873 38.2804C49.259 38.2514 49.2255 38.2281 49.1885 38.2117C49.1493 38.1946 49.1069 38.1858 49.0641 38.1859C49.0213 38.1862 48.979 38.1949 48.9396 38.2117C48.901 38.2275 48.866 38.2508 48.8366 38.2804C48.7829 38.3389 48.7531 38.4155 48.7531 38.495C48.7531 38.5744 48.7829 38.651 48.8366 38.7096C48.8661 38.739 48.9011 38.7623 48.9396 38.7782C48.9829 38.7969 49.0298 38.8057 49.0769 38.804H49.0641ZM49.0898 38.2932C49.1299 38.2913 49.1694 38.3034 49.2014 38.3276C49.2145 38.3384 49.2249 38.3523 49.2316 38.368C49.2383 38.3836 49.2412 38.4007 49.24 38.4177C49.2407 38.432 49.2383 38.4462 49.2331 38.4595C49.228 38.4728 49.2201 38.4849 49.21 38.495C49.1851 38.5176 49.1534 38.5312 49.1199 38.5336L49.2443 38.6752H49.1456L49.0297 38.5336H48.9911V38.6752H48.9095V38.2975L49.0898 38.2932ZM48.9954 38.3662V38.4692H49.0898C49.1066 38.4742 49.1245 38.4742 49.1413 38.4692C49.1443 38.4632 49.1459 38.4566 49.1459 38.4499C49.1459 38.4432 49.1443 38.4366 49.1413 38.4306C49.1443 38.4246 49.1459 38.418 49.1459 38.4113C49.1459 38.4046 49.1443 38.3979 49.1413 38.3919C49.1245 38.3869 49.1066 38.3869 49.0898 38.3919L48.9954 38.3662ZM44.2741 36.6236C44.2884 36.3821 44.3729 36.15 44.5174 35.9559C44.6619 35.7619 44.86 35.6143 45.0872 35.5313C45.3145 35.4484 45.5611 35.4338 45.7966 35.4892C46.0321 35.5447 46.2463 35.6678 46.4127 35.8434C46.5791 36.019 46.6906 36.2394 46.7333 36.4776C46.776 36.7157 46.7482 36.9612 46.6532 37.1837C46.5582 37.4062 46.4002 37.596 46.1986 37.7299C45.9971 37.8638 45.7608 37.9357 45.5188 37.937C45.3489 37.9391 45.1804 37.9061 45.0238 37.84C44.8672 37.7738 44.7261 37.676 44.6092 37.5526C44.4923 37.4293 44.4021 37.283 44.3445 37.1232C44.2868 36.9633 44.2629 36.7932 44.2741 36.6236ZM14.1311 36.6236V34.572H13.2384V35.0699C13.0868 34.8748 12.891 34.7186 12.6671 34.6141C12.4432 34.5097 12.1977 34.4599 11.9508 34.469C11.3816 34.469 10.8358 34.6951 10.4333 35.0976C10.0309 35.5 9.80476 36.0459 9.80476 36.615C9.80476 37.1842 10.0309 37.7301 10.4333 38.1325C10.8358 38.535 11.3816 38.7611 11.9508 38.7611C12.1977 38.7702 12.4432 38.7204 12.6671 38.616C12.891 38.5115 13.0868 38.3553 13.2384 38.1602V38.6581H14.1311V36.6236ZM10.8091 36.6236C10.8233 36.3821 10.9079 36.15 11.0524 35.9559C11.1968 35.7619 11.3949 35.6143 11.6222 35.5313C11.8495 35.4484 12.0961 35.4338 12.3316 35.4892C12.5671 35.5447 12.7812 35.6678 12.9477 35.8434C13.1141 36.019 13.2255 36.2394 13.2683 36.4776C13.311 36.7157 13.2831 36.9612 13.1881 37.1837C13.0931 37.4062 12.9351 37.596 12.7336 37.7299C12.532 37.8638 12.2957 37.9357 12.0538 37.937C11.8831 37.9403 11.7136 37.9082 11.5561 37.8426C11.3985 37.777 11.2563 37.6793 11.1384 37.5558C11.0206 37.4323 10.9297 37.2857 10.8715 37.1252C10.8134 36.9648 10.7892 36.7939 10.8005 36.6236H10.8091Z" fill="#231F20"/>
<path d="M31.7592 3.3045H18.2393V27.6017H31.7592V3.3045Z" fill="#FF5F00"/>
<path d="M19.0973 15.4553C19.0948 13.115 19.6249 10.8047 20.6473 8.69957C21.6698 6.5944 23.1579 4.74948 24.9989 3.30452C22.7194 1.51311 19.982 0.399146 17.0993 0.089931C14.2167 -0.219284 11.3053 0.288728 8.69775 1.55591C6.09021 2.82309 3.89177 4.79831 2.35371 7.25582C0.815643 9.71334 0 12.554 0 15.4531C0 18.3523 0.815643 21.1929 2.35371 23.6505C3.89177 26.108 6.09021 28.0832 8.69775 29.3504C11.3053 30.6176 14.2167 31.1256 17.0993 30.8163C19.982 30.5071 22.7194 29.3932 24.9989 27.6018C23.1584 26.1572 21.6707 24.313 20.6483 22.2086C19.6258 20.1043 19.0955 17.7949 19.0973 15.4553Z" fill="#EB001B"/>
<path d="M50.0002 15.4553C50.0001 18.3546 49.1843 21.1955 47.6459 23.6531C46.1076 26.1107 43.9088 28.0859 41.3009 29.3529C38.6931 30.6199 35.7813 31.1276 32.8986 30.8179C30.0158 30.5082 27.2783 29.3937 24.999 27.6018C26.8387 26.156 28.326 24.3112 29.3487 22.2067C30.3714 20.1022 30.9029 17.793 30.9029 15.4531C30.9029 13.1133 30.3714 10.804 29.3487 8.69954C28.326 6.59506 26.8387 4.75032 24.999 3.30452C27.2783 1.51256 30.0158 0.398046 32.8986 0.0883867C35.7813 -0.221273 38.6931 0.286413 41.3009 1.55341C43.9088 2.82041 46.1076 4.7956 47.6459 7.2532C49.1843 9.7108 50.0001 12.5516 50.0002 15.451V15.4553Z" fill="#F79E1B"/>
<path d="M48.5239 25.0265V24.5287H48.7256V24.4257H48.2148V24.5287H48.4337V25.0265H48.5239ZM49.5153 25.0265V24.4257H49.3608L49.1806 24.8549L49.0003 24.4257H48.8629V25.0265H48.9745V24.5759L49.1419 24.9665H49.2578L49.4252 24.5759V25.0308L49.5153 25.0265Z" fill="#F79E1B"/>
</svg>
