<svg width="51" height="18" viewBox="0 0 51 18" fill="none" xmlns="http://www.w3.org/2000/svg">
<g clip-path="url(#clip0)">
<path d="M22.1666 17.0206H18.1162L20.6496 1.0309H24.6997L22.1666 17.0206Z" fill="#00579F"/>
<path d="M36.8491 1.4218C36.0502 1.09828 34.7831 0.741058 33.2163 0.741058C29.2165 0.741058 26.3998 2.91827 26.3825 6.03102C26.3493 8.32761 28.3992 9.60319 29.9323 10.3689C31.4993 11.1514 32.032 11.6622 32.032 12.3596C32.0161 13.4308 30.7658 13.9246 29.5996 13.9246C27.9826 13.9246 27.1161 13.67 25.7993 13.0741L25.266 12.8186L24.6992 16.4079C25.6492 16.8497 27.3994 17.2417 29.2165 17.2589C33.4664 17.2589 36.2332 15.1154 36.266 11.7983C36.2821 9.97804 35.1997 8.58331 32.8661 7.44361C31.4495 6.712 30.5819 6.21868 30.5819 5.47011C30.5985 4.78959 31.3157 4.09256 32.9149 4.09256C34.2316 4.05842 35.1991 4.3815 35.932 4.7048L36.2983 4.87459L36.8491 1.4218Z" fill="#00579F"/>
<path d="M42.2334 11.356C42.5669 10.4374 43.8504 6.88224 43.8504 6.88224C43.8336 6.91638 44.1833 5.94669 44.3833 5.35141L44.6664 6.72918C44.6664 6.72918 45.4334 10.5566 45.6 11.356C44.967 11.356 43.0334 11.356 42.2334 11.356ZM47.233 1.0309H44.1001C43.1339 1.0309 42.3999 1.31984 41.9831 2.35757L35.9668 17.0204H40.2167C40.2167 17.0204 40.9164 15.0469 41.0668 14.6218C41.533 14.6218 45.6673 14.6218 46.2671 14.6218C46.3834 15.1832 46.7504 17.0204 46.7504 17.0204H50.5006L47.233 1.0309Z" fill="#00579F"/>
<path d="M14.7334 1.0309L10.7667 11.9344L10.3333 9.72301C9.59993 7.1714 7.3 4.39913 4.7334 3.02068L8.36669 17.0037H12.6498L19.0163 1.0309H14.7334Z" fill="#00579F"/>
<path d="M7.08329 1.0309H0.566668L0.5 1.35398C5.58337 2.68088 8.94999 5.87932 10.3332 9.72369L8.91654 2.37498C8.68332 1.35375 7.96658 1.06459 7.08329 1.0309Z" fill="#FAA61A"/>
</g>
<defs>
<clipPath id="clip0">
<rect width="50.0001" height="16.5179" fill="white" transform="translate(0.5 0.741074)"/>
</clipPath>
</defs>
</svg>
